<mxfile host="Electron" agent="Mozilla/5.0 (Windows NT 10.0; Win64; x64) AppleWebKit/537.36 (KHTML, like Gecko) draw.io/25.0.2 Chrome/128.0.6613.186 Electron/32.2.5 Safari/537.36" version="25.0.2" pages="2">
  <diagram name="Backend" id="bvgwhhhy0VUoFM5T08wh">
    <mxGraphModel dx="1400" dy="873" grid="1" gridSize="10" guides="1" tooltips="1" connect="1" arrows="1" fold="1" page="1" pageScale="1" pageWidth="850" pageHeight="1100" math="0" shadow="0">
      <root>
        <mxCell id="0" />
        <mxCell id="1" parent="0" />
        <mxCell id="6yK7ew2rnF_ANEhxyzKK-1" value="" style="shape=image;verticalLabelPosition=bottom;labelBackgroundColor=default;verticalAlign=top;aspect=fixed;imageAspect=0;image=data:image/png,iVBORw0KGgoAAAANSUhEUgAAA5AAAAKlCAYAAAC9jAOOAAAAAXNSR0IArs4c6QAAAARnQU1BAACxjwv8YQUAAAAJcEhZcwAAEnQAABJ0Ad5mH3gAAHzPSURBVHhe7P1/bFv3nef7v6JajmPasp3IDuVcr3PFtpbcDgc74WjbQHfNCrkGihCt+P0GUDdJE0ypO4j3TqTGl9tpkxuVdb9pO3O59kgzGBcDsYO0sVMCWVAxTmJATVV6rpCgLpudcgxLbnqUaL2OlFgZ2bIZ25HH+f7BX4dHlHT8QyLtPB8AAZ3P+ZwfpPtHXn1/ftzmdrs/FgAAAAAAi6ixN1Sr0DcnZXxz1t4MC/tvFPrmpIw9F+Uv6QUAAAAA1+amCZAAAAAAgMq6ugDZFFJ0X5fud9lPzOV64Gnt/+uvq8l+Assm9jduBXpWKWk/AQAAAADX4KoCpOv8ezpfv1Ph/7pwiHQ9EFbff75fa86+p5P2kwAAAACAm9JtV72ITn1AkX1PyJsZVPT/6tPrmdLT2fDo18rf9umJ5wZlOz3XtouKP3FRIz+ukx55X761ufbxuxT4m9pCt9A3JxXUXYqezijsu5hrXaPEU2sUK/TK9dtaPDZfcav7tdxB/lmvrFLzg2fkyl//wHkZD0qJV6Tgg+ezfc+tV7RnlfTImeLzcm3Wit6Cz5MkXVFkj+V75fqkP5/9PtbvmO/bfGKTOg4slu1n1bvvA3nyh+N3KaEPSu6Z/82Kz7BdY//98r/Dj1do5xNnlP//COZ+p8WfLeXvl/s9Vf73AwAAAHDzWCylzDVlKPJEn9KuuZXIfOVRbzgMjwUX5XtiRjrgVuAptwJP3SVz6wdzF83Z+oF2qS7XZ5NS584raO2z7aK8pzflzrsVeGWNPA+eUWSb9SYX5fuP0v6n3AqUhM/zCn7+9uLz155ReN+kwhtdJW27HrlSvNWiz5tV77735fvXu0r6SFLs2Bpp6yWFineTtn2k5rWrNJJa7J8lG+DcqeKzo6czJUG2HP8jlzT94/xv7FZi/LyCcxbZOa/gI/nfx61oapU8D563vKezZ/sfOSPjwctKWZ/3r2cU3me9FwAAAICbyWJJpbzM4JwQ6fpil6L/+X7pjR+r6/+5mvCYZb6yXpET+aNadb9SJmCdW6/9hcpcjSL/ZOtzYpW6rZW7126XqYvasKXYJEnmP5Wrgq1RolA9q1Uitapsm2vbR8XAtcjz/I9k5Dm3XlFrVe61Ndlq3murlTp3Xt4Hiqf8votyjbssv0N5+fsWfwspeWC9EuMl3eZIHlhTcu/YsTXS2suWiqQkrVLqQPH3SR5wyVTxPZ09e1ZB30Xbv6kU+5u7Su4FAAAA4OZybQFSxRCZWrVT4f/aq+h/8Uu/il5TeJRWado+WfLkCmV0WVus1cN//VSZ4Gez7aLi+yZl7JuUUTJcM6/Ms+ZzboVMe5vdAs/zbLyozImV87xzjZInVsnz+XwF9Yr82y7KPGYd0lrewvddmP+RM7l3nSwdXlqwQicXCLCOnr3t3+TWGqVLhr1KUq3S45L7bksVFwAAAMBN49oDpLIh8gf/Z59StW599Kuown/7+jWExxsn9M1JGU9c1Ehh2ORdiwfA63C9z0umVimTr6Bu+0jNWq/EnNB1o8yqd9+kwttWKWobTgsAAAAATlxfgFQuRIY61H2Dw6Pfd1Guc6uUXKAaVmpW3q32obBLafHnmadtQ17tTqzS4Hh2SKffd1FarLJnMfe+V7TlzpKGUg9ckkdrlLgBi9gs+uwTn9Jk2aGq2d9s8r3r/58dAAAAgOVXJf8lf1G+JyyLq2y7qF0+B0MlS3xK0+dKh0eGvlluCOuNsvjzkgdc2cV4rAv9PHBevZZgFTu2Rp7PX5R/mxwsnpMVO7xeGduCPv5HZkpWep1jzpDgWfWWHcK6MGfPzs4XtS9gFPrmB/KcW8oqKwAAAICl5CyxLLlVSr2yQjvzc/OeOCOlnGxlYVWjyIH1ku/9whw/77GrG1J6dZw8r1bd+RVlC/MOVTo38LXbZW49I9+/Lr54TsGJVer4cemzd6lu4UV0TqzS/pTkeyI/X/OS0tcyhNXhs5MH1ita8rzcliI3oAIKAAAAoDKufh/IG62wD+T8Q0FvbdltMTRnr8XrF/rmpHaevtogfm3m7jkJAAAA4Faz9MkCC8vNTSypSpas7Fr6iVv3oVzQInMib6jcfFAHK8gCAAAAuHlRgayoK4rseV/NJ5agSvjAeRkPSomn1ihmP3c9tl1U/MufUkeh0pj9Dj6tV5ThqQAAAMAtjQBZIf5HzijsuyiN39hhn4X7apVSS/KbZofclixOdI7wCAAAAHwSVD5AAgAAAABuCjd43CQAAAAA4FZFgAQAAAAAOHLNAbKhocHeBAAAAAC4hV1zgAQAAAAAfLIQIAEAAAAAjhAgAQAAAACOECABAAAAAI4QIAEAAAAAjhAgAQAAAACOECABAAAAAI7c+gHygfMy9p1XyN5+tR44L2PfGUW22U8sYNtFxfdNqvcB+wkAAAAAuPnc+gESAAAAAHBDECCdem2NAk+tV+SE/cQCTqxSx1Nudb9mP1HOrHpvYLXS/8gZGXsuym8/AQAAAADXaGkCZFNI0X1dut9lPzGX64Gntf+vv64m+wkAAAAAQFW5ze12f2xvdKKhoUETExP2ZkmS638J6L/88Al5M4OK/l99ej1j75HleiCsvv/s18rf9umJ5wY1T7cC/yNnFPZdLBxnUpvUcaA0A4e+Oang1vzRGiVekYIPSomn1iim3FzGB5VrP5/tdm69oj2rJOv9c23J/K3y19nv8+MV2vnEGeWzsvmKpeK47aLiT1zUyI+LlcvS98v113kZ+Xextr92RZE976v5xF0a2faBfGuL95//t8he41truVnJd5lV774P5CmcXKWU5f3y15d7JgAAAIBPtiWpQGb+p6HIUz9W2rVT4f9avhJ5teFRmlVwo0uBp9zZz4/XS773S4Z8hr45qeCd6xUt9FmhnbZglnVewc/fnrvXXTLXnlF436TChftn23Y9csV+oc15BR+R9ueeF02tkufB+Rfs8T9ypvT9XlmTPfHamuwzc8ExYBv26vJlpAPW9oV+ixpFerLvonO5Z+XD47aLiu/7QO7UpuK1r6yQ74m5Q2fnPhMAAADAJ92SBEhJ0pShyBN9ZUNkNjzeL73hNDxKUq26/6a2eHhipUbOSe67cyFv20Xt3LpKqQOWquGJVerIh7QSa5Qo3KtWidSqsm2ubR8tMoew9HnJAy6ZOi/vPPMYPRsvSv/6qeL7vbbGWTgbd9nmXi7yW8wj9OUzco3fVVq1fW2NEuOS5/Oz1q5lngkAAADgk27pAqQkZQbnhEjXF7sU/c/3S2/8WF3/j9PwmJddaMbYNyljn22Y5pbLcp1bpeS1hp5zK2Ta2xa1Qiev4nmxw+uV2frBVW8Hkjn9KXvTwr9FWVe05U7JPGYJnjmxY2ukO/+tJCyXfyYAAACAT7KlDZAqhsjUqp0K/9deRf+LX/pV9KrDo/+RMzL2fSDlhngGntqk1Dl7ryqXW5U1P2z0aoNk3i3xWwAAAAC46Sx9gFQ2RP7g/+xTqtatj34VVfhvX7+q8ChJ/m0XlUltWnjI59qL8tsCmf/uy6UN1eC1NbnQd1HNvoWHnc51xdlvMUeNTv5rmaGqkkKfP186tBYAAAAAylieAKlciAx1qPsawqMknfxXybXx3wrH/kdmSodtvrZaqXMX5XvEsvfhtovaZVmptNJC35x/gR3pU5p2MI8xHwQX/C0kJd9bIa29bFlttTiENm5dHOiB8wpuXaXU4blDWwEAAADAavkC5HWK/c1dMrd+kJvzN6ldctmGbdYo0rNJKWVXVDX2Tcp4RNpfdhGdSjmvoGXeYvMJ6zYkNYr80xq5fO/L2Dd3VVSrxX+LfKDOPW9PLlSfWKWO3Iqt+WuzW5NYt/EAAAAAgPKWZB9IAAAAAMCt56apQAIAAAAAKosACQAAAABwhAAJAAAAAHCEAAkAAAAAcIQACQAAAABwhAAJAAAAAHCEAAkAAAAAcGTJA2RDQ4O9CQAAAABwE1ryAAkAAAAAuDUQIAEAAAAAjhAgAQAAAACOECABAAAAAI4QIAEAAAAAjlRXgHS55LK3AQAAAACqQhUFyCaFfvgT/WxfSE32UwAAAACAiquiADmq2N8bGtsc1A8IkWX4FTloKN7jt58AAAAAgGVRRQFS0ujPFP5uXGObg/pe9OuESAAAAACoItUVIFUMkSe3dBAiAQAAAKCKVF+AVGmIfOYHQUIkAAAAAFSB29xu98f2RicaGho0MTFhb57Dab+ymoJ67pmQ/t1oVF9/Lmk/e0OF+gwFlVAg7ZXR7sm1ZpTa26HIkKS2iOK7mzWSP87r7JXRLiUC3YpJubmKYfnqil3MgYC6+yUppF4jqPzdJdNyXZ69T/4dsvdtHo1qsD6sYGPu9ExK0Ycjsv46/p64wi3F9WyLzwcAAACAa1edFUgbl+tue9PSaAzK8KYVCAQUCAQUPSr5dscVaZM0lNTIjEvNraWL2IS8HmksnQuBIfUaYfmmEoV7BAbMQl9/j1fTe3PtgYASYx4FD0ZUuGNbRHEjKPfRqOUdJgvXS5KrJSxvOn+PhMw6n3ZZFtbx98QVbhpRNP/8vSm52w31dpbcBgAAAACuWvUGyFz1sXk6oaefjtvPLo2ZlKJdxXpgcs9+pQqhManIkClXk78Y+BSStzGj1ECu9tizUx7bPdTfXaj+Jfd0l1QvY2lTqttQqDaG2n1yjSXUsadYT7Rfo7GEpZoYU+JoxvJOIQVbpFS/pSI5FNHgmOTxhvItAAAAAHBNqjNAWsNjV0yj9vNLZepkyVBQKamTU5KrPhfx+tMy65rlb8ud7vTKMzOiZC7geepdyowmbfco5e+JyzCM7KcwVFaS/NpSL5np0gGtdpmpYkVzjrYtcssl3+7c/XOfwnBXAAAAALgO1RcgKxUeHYkpPVYcxhryemQOlc4/nF9IvYZROrzUMrz1xjGVyN/f+rFWRQEAAADgGlRXgKy68BiSt7G0KhgbSElNfvkVkrfRVNqyOI05ZR1OatPplUemErYFb4qy1c7rGmo6dFKT8sjLfEcAAAAAS6CKAuTdCj0ZUvO0oe99p0LhsTGouGVBmlBfUB6VhkQNJTWiZvl7vPIUFs/JSu4ZlFnnU7jPEgI7e7ML2IxNKyO3tuSHvyqk3pIhrNlwmrG9g7+nN7uIjyMxpcckT3uvrDH06u4BAAAAAOVVUYB8T7FvfV2h7/xYv8vYzy2TsYQG68OWuYPlttlIKjkq+VrchcVzimLqDiRkNgYt8xyVDaBDEe0/Ksv8RK/S9iGsQxF17E1JLcV3CDdNF+ZYOhHryq3uapkDGa5Ply7EAwAAAADXoLr3gVxGhX0gHcwVLGyVMe9wVAAAAAC49dxyAdIwDHuTpIzeO+3S3Rvt7cotOtMtOQ6QfkUOhtU8Gi3ZbuNm4O+JK9zisjdLmtWHqtVqe7OyVdnFfxMAAAAAnwS3XIC8Vo4rkJ29MtpVZmgrAAAAANzaqmgOZLXLbsNhtLuV2kt4BAAAAPDJQwUSAAAAAOAIFUgAAAAAgCMESAAAAACAIwRIAAAAAIAjBEgAAAAAgCMESAAAAACAIwRIAAAAAIAjBEgAAAAAgCMESAAAAACAIwRIAAAAAIAj1RUgXS657G0AAAAAgKpQRQGySaEf/kQ/2xdSk/3UcmiLKG4Y6u20n1hG1fAOAAAAADCPKgqQo4r9vaGxzUH9oFIhEgAAAAAwr9vcbvfH9kYnGhoaNDExYW+ew2m/gqavK/q9Dm05Gdd3wz/TqP38raKzV0a7lAh0K2Y/BwAAAABVqIoqkDmjP1P4u3Gd3NKh70W/TiUSAAAAAKpE9VUg83KVyLvNmJ57OuG8EtkWUXx3s0YGRtTc7sstymNmK32dvTLaPbmOuTb7dXs7FBnKN4bUawSVv0JjCSUUVFAJBbqyV4b6DAWVa2+UMkej6tiTzN0v/3xJMylFH44omb+mMX9CxXdx8g7KKFVyvvgO0amdCrfkn1ju+5V/HwAAAABwovoqkHmjP1P4uzH9jy0hPfOM3352ES752qT9gYACgahSMx4FDUNG27Si1ra+kP1Ci2xwcx+NKhAIKBAIKDq10xb8chqD8qazfTr2ZCNZqH2DBnPXBQJRpeRTOPe8WFdAgQEzF/ICCsw3jLUtorjtHQIDk/LtLrPQTmNQu7S/+LyS7xdS726fJgcs7zNlux4AAAAAFlG9AdLC5brb3rSIjFL9+epaUpEhs3xbo1fzRUh/z055ZlLanwuEkpTc06HEWEm3rJmUEv2lTbEuayhMKjmakeq36GqicKjdJ9dYohBKJUn93UqMSR6v7c1L3tX2/dq2yK2MpgvvnlSki+ojAAAAgKtTvQGyKajnngmpeTqhp5+O289eg0mdtAz7XIyn3qXMaNJZyJo6WbZfqM+QYWQ/xaGlTvm1pV4y03Nrk7G0OTeMzvMOkqShiAbHXPLtNmQsWHUFAAAAgPlVZ4C0hseumPP5j9Uit59jUIni8NejGXuvZRXryg1drQ9mQy1BEgAAAMBVqr4AWUXh0dXktw05zVYFF+NvbZZrJqVobqGda5PUyakyQ1UlhbyehSuO80oq8nBu/uUCw3cBAAAAoJzqCpBVFB5jAyll6nza1VOMkP6eXfLVlXQrK/nupFS3obhyaltEu+xDWMemlZFbW9pKm61iAyllGoOKW95Bnb0KNmaUGriKcNoWUa/1HgAAAABwDaooQN6t0JMhNU8b+t53Khsepey8wY69KaklXJjHuEv7yy+iY9ffrcRYbuVXw5DRKQ3ah7Ba5yUaveWrgWXewWiXEoHSbTyccM+5xzwrvwIAAADAPKprH0jXBm3QtKYrO11wQfk9F/P7QAIAAADAJ0UVVSAlZao7PEoheRvLr4wKAAAAALe66gqQ1aQtonjJSqV+RQ4G5Smz5yMAAAAAfBJU1xDWqhJSrxEsLoQjSTMpRR+OXMPqpwAAAABw8yNAAgAAAAAcYQgrAAAAAMARAiQAAAAAwBECJAAAAADAEQIkAAAAAMARAiQAAAAAwBECJAAAAADAEQIkAAAAAMARAiQAAAAAwBECJAAAAADAkeoIkDXrdPvnHtKGL2Q/a7dutPcAAAAAAFTYbW63+2N7oxMNDQ2amJiwN8+xaL9VX5Gna4dqLq5XfX1toXn2xIt688BhXSnpDAAAAAColMpXIO+6R3d8eFyT6dO6bGmuvfteFePk0gv1GTIORuS3n1jAtVwDAAAAADerCgbIWtXUbdWKS8d16vfSHSvf0vjwH3TO3g0AAAAAUBUqNIR1o9Y9/iNt9yxQYzzzho4f267t96/W9Ot9Gh38nb1H9ensldEuJQLditnPAQAAAMBNrjIVyHse0paFwqMkfZTRlRWSamq1ofUxbaq3dwAAAAAALKfKBEj3Rq21HF56f1yTJ44XP789rH9+4bBqNq7O9dgo11bLBUsg1GfI6AvNOfb3xGUYRu7Tq2KP0mtCfYaMdo8kj4Jl+l6XtojiRlyRNr8iB/PvUvq+6uwt+0x/T5x5mgAAAABuiMoESIvL5ktKv/Cyzp23NK7Zqs2Pfl9Ni1Upl1pjULu0X4FAQIFAVKkZj4LW0GYR6wooMGBKMpUIBBS44cNYXfLt3iX1B3Lvk5DZGCyGyP60THnk7bRe45e/yaXMaFJJazMAAAAAXIPKBEjzHU3n/rxw+kOtf7RLn7lvu9zbip9Nm1ZbXu6sLkwWDpbPTEr79+SjV1KRIVNq9M6p8i0Xc6BDkaH8UUzdA9b3iSlxNCOP1/J2bX4115kaLHwHAAAAALh2lQmQZ17U28PvavaKpMu1WrHS3qHUrPkLTZ2yty6DqZNVVLnLaHrM1jQ2rYzc2tKWPUwOjyhjCbj+1ma5xtI3uBIKAAAA4JOqMgFSs7o0+G2lIo/p2OC4pf2sJoePyBw+InP4kNJ9z+o30SeVev5QyR6RmMdQUiMz+WGsfvmbpNQA8REAAADAjVGhADmfdXK33q91H42r5rM7tPb2cV2eOWvvhBx/a7NcMyNKFoa1ZofZeryh7PBVWc8BAAAAwPWpggB5Shfem7Uc12qdd4fuXH1Glz6wNN8MbENKr11IvYaheI917VSXfLstq6y2RbSrpcwCOf1pmY1eRVqbJfs5AAAAALgOVRAgz+rsgSf169hPNfrqIY2+ekjmL1/SaPRZTV+0961yQxENjrnk232Dt/GQJGWUGpjWzvwWHrt90tGoOuYskBNTeswjX8ski+cAAAAAuKFuc7vdH9sbnWhoaNDExIS9eQ6n/bCAtojiu5s1ste6Cuv8Qn2Ggkoo0MX8RwAAAAA3zi0XIA3DsDdJyui90y7dvdHerty+jTd6z8Ysf09c4RaXvfnq3+eqAmRIvUZQGgiou99+DgAAAACu3S0XIG9JVxEg/T1xhZtGFH04wvxHAAAAADdUFcyBxA3RFlHcMBRumVSC8AgAAABgCVCBBAAAAAA4QgUSAAAAAOAIARIAAAAA4AgBEgAAAADgCAESAAAAAOAIARIAAAAA4AgBEgAAAADgCAESAAAAAOAIARIAAAAA4Eh1BMiadbr9cw9pwxeyn7VbN9p7AAAAAAAq7Da32/2xvdGJhoYGTUxM2JvnWLTfqq/I07VDNRfXq76+ttA8e+JFvXngsK6UdAYAAAAAVErlK5B33aM7PjyuyfRpXbY01959r4pxchl09sowehWyt1+tzl4ZRlyRNvsJAAAAALi5VTBA1qqmbqtWXDquU7+X7lj5lsaH/6Bz9m4AAAAAgKpQoSGsG7Xu8R9pu2eBGuOZN3T82HZtv3+1pl/v0+jg7+w9bqzOXhntUiLQrZj9HAAAAACgQhXIex7SloXCoyR9lNGVFZJqarWh9TFtqrd3AAAAAAAsp8pUIO/r0Re/+unC4aX3xzU9nSmePz+uySOvaeVXi1XKyZcf09u/LXZZiL8nrnCLq3CcORpVx55kSZ9Qn6FgY/7IVGJAClorkPmK5IAUbPdku82kFH04Ilnvn2sr3N1eycwf753Wzt0+5d/KHAiouz9/UalQn6GgEgqkvTLyz1ZGqb0digxJaosovrtZI/njPPuzAQAAAOAGqkwF0uKy+ZLSL7ysc+ctjWu2avOj31fTYlXKskIK1g8qEAhkP3tTUktYvZ2WHn2GgvUpRQt9prWzENSsPAp607l7JWTW+RQ2DIUL98+27erx2y+08SjYKe3PPS96NCNP+yIL9jQGZRSeHVD0qOTbnVucZyipkRmXmltLnxvyeqSxNOERAAAAwJKoTIA039F07s8Lpz/U+ke79Jn7tsu9rfjZtGm15eXO6sJk4WARMXV3WSLUUFIjM5J7cy5stUW0szGjVL+lajgUUceAWbymwFSicK+YEkczZdtcTX4tHCFLn5fcMyhTHnktoXaOmZSilu+R3LNfqUJoTCoyZNqeG5K3MaPUAPERAAAAwNKoTIA886LeHn5Xs1ckXa7VipX2DqVmzV9o6pS9dSEh9RqGDMOQYYTlq7Ocatwg18yIktahn1djZlrloubCJnXyap83dbIYcCVJSZ2cklz1uUppf1pmXbP8+e1COr3yXM/3AgAAAIBFVCZAalaXBr+tVOQxHRsct7Sf1eTwEZnDR2QOH1K671n9JvqkUs8fKtkjciH+nrgMIygN5IanBqJKzdh73QpiSo8Vh7GGvB6ZQ5aqKgAAAADcYBUKkPNZJ3fr/Vr30bhqPrtDa28f1+WZs/ZOC/I3uZQ5Gp13gRpJkrVyl+Pf7C5tqDoheRslM10cohobSElNfvkVkrfRVHqh7wwAAAAA16kKAuQpXXhv1nJcq3XeHbpz9Rld+sDS7FDJME9J/p5dpUNY+xNKzbjk64wU5w+2RbTLsmrrcstWTW2L6jQGFbcszhPqC8ojW0gcSmpEzfL3eOVh8RwAAAAAS6wKAuRZnT3wpH4d+6lGXz2k0VcPyfzlSxqNPqvpi/a+i4t1JWQ2BnPzHw3t0qBtCGtSkYejSim7oqphGDI6pf1lF9GpoLGEBuvDhe8RbDTLbM+RVHJU8rW4WTwHAAAAwJKrzD6QWFBhH0jrarLz8PfEFW4aKd2LEgAAAACWQBVUIHHt/Nk5n6NJwiMAAACAJUeAvJl1BuWrMzW4h/gIAAAAYOkRIG9KuX0u291K7bXPiwQAAACApcEcSAAAAACAI1QgAQAAAACOECABAAAAAI4QIAEAAAAAjhAgAQAAAACOECABAAAAAI4QIAEAAAAAjhAgAQAAAACOECABAAAAAI4QIAEAAAAAjlRHgKxZp9s/95A2fCH7Wbt1o70HAAAAAKDCbnO73R/bG51oaGjQxMSEvXmORfut+oo8XTtUc3G96utrC82zJ17UmwcO60pJZwAAAABApVS+AnnXPbrjw+OaTJ/WZUtz7d33qhgnAQAAAACVVsEAWauauq1acem4Tv1eumPlWxof/oPO2bsBAAAAAKpChYawbtS6x3+k7Z4Faoxn3tDxY9u1/f7Vmn69T6ODv7P3AAAAAAAso8pUIO95SFsWCo+S9FFGV1ZIqqnVhtbHtKne3gEAAAAAsJwqU4G8r0df/OqnC4eX3h/X9HSmeP78uCaPvKaVXy1WKSdffkxv/7bYZSH+nrjCLa7CceZoVB17kvmzihwMq3k0qv3aZelnKhHoVix/UWevjHYpEUjLawTlyTWX3ivfL39W0lhCga7CXYoWvV/xvUrur5B6jaA0EFB3v6UZAAAAAJZZZSqQFpfNl5R+4WWdO29pXLNVmx/9vpoWq1KWFVKwflCBQCD72ZuSWsLq7Szt5WoJa5f2F/olxjwKGr0KlfTyKGh4lbbdK97jz55uiyje7lZqb+58ICGz5Hq7he6XVHI0I1eTX7m7Z3V65ZGpNOERAAAAQIVVJkCa72g69+eF0x9q/aNd+sx92+XeVvxs2rTa8nJndWGycLCImLqtFcChpEZmJPfmklgmjSVKKn2xroRMeeQtCZoZpfZaqpJDEe0/agl5jRvk0qRODuU72J49x8L3S+4ZlFnXLH9b8YqQ16PM0UTxGgAAAACokMoEyDMv6u3hdzV7RdLlWq1Yae9Qatb8haZO2VsXElKvYcgwDBlGWL46+3kpM2WvFZqanhM0reEwK/nupFS3ITsEtT+h1IxHQcMoViUXtMj9FFN6zKXm1vy9QvI2ZjQybB3SCgAAAACVUZkAqVldGvy2UpHHdGxw3NJ+VpPDR2QOH5E5fEjpvmf1m+iTSj1/qGSPyIX4e+IycnMGs8NKo0rN2HvdKElFHs4OXZ1sCctwHCTnF0ubxQpnp1eesUFFbKETAAAAACqhQgFyPuvkbr1f6z4aV81nd2jt7eO6PHPW3mlB/iaXMkejV7/gTJtfzXWLV/tCXo80lrYNKY2pOxBQ1Dq81aE59+tPKKXsMNaQ1yMzzeBVAAAAANWhCgLkKV14b9ZyXKt13h26c/UZXfrA0uzQySnJVV9cFdXfs6vsEFZXycI6fkU6fXLNjChZUu3zKHgwUgyEnb0KNqoY6jp75yzOU9AWUdwwbOcXuZ+UW0xHam6NyNvI4jkAAAAAqkdltvGYY7Vqtt6vdQ3rs4fn3tLZkd/pyhV7Pyey214Ut8lIaKQpaNkeI79dRra9EC5nUoo+HFGh/pjfdmNAClq26TCt22nYt/Cw3qMtovhunybz/Z3cLy93rexbhgAAAABABVVJgFxO8+23aFPYt9Gyaur1uJr7tUUU392skb0dzH8EAAAAUDWqYAgr7PytzWWG0wIAAABAZREgq05IwRaXzCHLcFoAAAAAqAIEyCoS6jNkGEG5r2UVWQAAAABYYp/AOZAAAAAAgGtBBRIAAAAA4AgBEgAAAADgCAESAAAAAOAIARIAAAAA4AgBEgAAAADgCAESAAAAAOAIARIAAAAA4AgBEgAAAADgSHUEyJp1uv1zD2nDF7KftVs32nsAAAAAACrsNrfb/bG90YmGhgZNTEzYm+dYtN+qr8jTtUM1F9ervr620Dx74kW9eeCwrpR0BgAAAABUSuUrkHfdozs+PK7J9GldtjTX3n2vinGySrRFFDfiirTZTywXvyIHDRl9IfuJGyrUZ8g4GJHffgIAAADAJ1oFA2Stauq2asWl4zr1e+mOlW9pfPgPOmfvBgAAAACoChUawrpR6x7/kbZ7FqgxnnlDx49t1/b7V2v69T6NDv7O3mNpdfbKaJcSgW7F8m1tEcV3N2tkb4ciQ6Xdb7yQeo2gNBBQd7/93I3iV+RgWM2jUXXsSdpPAgAAAECJylQg73lIWxYKj5L0UUZXVkiqqdWG1se0qd7eAQAAAACwnCpTgbyvR1/86qcLh5feH9f0dKZ4/vy4Jo+8ppVfLVYpJ19+TG//tthlIf6euMItrsJx5qi1whZSr7FT07YqYqjPUFAJBbpi2b8bi+ckM1uJLFQgB7Vhd1Ce3NnS+2eV3iOjlPV5+erm3mnt3O1T/k3NfLWxs1dGe/7u1nPlK4b276ux7PfQnPewPKMtorjl2bJ8D+tvUWB/p5mUog9HVHiLq/htCgpV3rS8Rrlryn/f5anOAgAAALCrTAXS4rL5ktIvvKxz5y2Na7Zq86PfV9NiVcqyQgrWDyoQCGQ/e1NSS1i9nfZ+84t1BRQYMHPBMaCAdRirXPLt9iqdv/+AKVfLrpKFdQoBrNBnUr7d9sV3PAp2SvtzfaJHM/K09yokSf3dCgQSMnOBLxCYPyiF+gyFWyZz7xkoXCdlQ513Kmp5D1Oe9tx7DEXUEYgqNZMNbIFAYN6g5++Jy2h3K7U3/4yAElM+hY3c+xYs/tvM5VHQsFyT+/eK9/glJZUczcjV5C9d0KfTK49Mpef5TQAAAAAsjcoESPMdTef+vHD6Q61/tEufuW+73NuKn02bVlte7qwuTBYOFhFTt7VyNpTUyIzk3nzj1hQ1ByyBsj+h1IxLza25+7dFtLPRVML6DvY+UrYq2V+s4CX3DMqUR96rCLrZZ2WU2msNuJbvPxRRtzUU9qdlyqUNJdXVxYQUbHHJHCit2Ma6EmXfd8Hfpizb+w9FtP9oMTQm9wzKrGuW3xrQvR5ljiYs3xkAAADAcqhMgDzzot4eflezVyRdrtWKlfYOpWbNX2jqlL11ISH1GoYMw5BhhOWrs5+/HhlNj9nbLBo3yCWPgoXnz/cOkzp5vQvxNG6Qa2ZEyYXu0xZRvPAexWGijrVtkbtstS+m9Jg9mC/y25Q193dIvjsp1W3IvWtM6TFrCA3J25jRyHD5aikAAACApVOZAKlZXRr8tlKRx3RscNzSflaTw0dkDh+ROXxI6b5n9Zvok0o9f6hkj8iF+HviMnLz47LDLbPDNJfVTErRwpDS4me+IaJLJdRnyNjdrJHC0FPL8NabSCxtFoexdnrlGRtchlVwAQAAANhVKEDOZ53crfdr3UfjqvnsDq29fVyXZ87aOy3I3+RS5mh03jmDWfZhnH5tuVGrvI5NK2MbcrlkFnxWSN5GzRl6etWGTmqyzFDV/P0n373xoTjk9Uhj6dKhsMp+z5DXIzPN4FUAAACgEqogQJ7ShfdmLce1WufdoTtXn9GlDyzNDp2cklz1xYGa/p5dtuGj2aGXnrZIYWGWuX1y4UxubSkbzhYwlNTIjEu+zuL9JSnUZ19wZjGmphebuzkU0eCYS77d1nuH1NsXKnt9qM8+hDU55/eaK6bE0Uxx8Z2cUF9QnpmUEgsGdZvccNrSBY08Ch60/FadvQo2yhYSk0qOSs2tEXkbyw2nBQAAALAcqiBAntXZA0/q17GfavTVQxp99ZDMX76k0eizmr5o77u4WFdCZmOwMP9wlwbnDGGNdSVk1vkULvTZr4R97l4hnBky5qw2upCkIg9HlVLx/oZhaOfU1S76klRkyJSrJSxjTugqinUFlBizzrkMSulY9vr+7Iqm+XfwpucOYY0NpJTJ/V7ZlU/nSu7pUPSocr9F9hNUQgHrNh7XzFRiaEPxt2r3FLcasUgOj0gtPrlZPAcAAAComMrsAwnIug+kdRXZeRT2mbzOIbkAAAAArlkVVCCBxflbmxdfcRYAAADAkiJA4iaQ24ty6EYMmQUAAABwrQiQqGqhvuy8TveiK+sCAAAAWGrMgQQAAAAAOEIFEgAAAADgCAESAAAAAOAIARIAAAAA4AgBEgAAAADgCAESAAAAAOAIARIAAAAA4AgBEgAAAADgCAESAAAAAOAIARIAAAAA4Eh1BMiadbr9cw9pwxeyn7VbN9p7AAAAAAAq7Da32/2xvdGJhoYGTUxM2JvnWLTfqq/I07VDNRfXq76+ttA8e+JFvXngsK6UdAYAAAAAVErlK5B33aM7PjyuyfRpXbY01959r4pxssq1RRQ34oq02U/ML9RnyOgL2ZsBAAAAoGpVMEDWqqZuq1ZcOq5Tv5fuWPmWxof/oHP2bgAAAACAqlChALlR6x7/sf5D+Pv6066Qmlp3yNO6Q57WT2utpdeqnX+rL0Ziatr5x5ZWAAAAAEAlVCZA3vOQtngWGaD6UUZXVkiqqdWG1se0qd7eAQAAAACwnCqziM59PfriVz9dOLz0/rimpzPF8+fHNXnkNa386o+0PRc0J19+TG//tthlXm0RxXc3a2RgRM3tPrkkSaYSgW7FOntltHtyHXNtJRf7FTkYlq+u2GIOBNTdb+0j+XviCrdk7yxllBoYUXN7s0b2digylO8VUq8RVP5pmkkp+nBEyfzZPkNBJRToyr1BW0Tx3fn3ndu/IP/99u6XOi3vOla815x7S4Xv1jwaVceeOXcFAAAAgEVVpgJpcdl8SekXXta585bGNVu1+dHvq2mxKuW8XPK1SfsDAQUCUaVmPAoahoy2aUWtbSWL2ITUa4Tlm0ooEAhkP3tTcrcbivf4C72y4XFSiXyfwKA2FIKq9V5BaSDfJ6DElE/hgxEV72QVUu9unyYL/aNKTdn7WLnk271L6s/3T8hsDBYW5YmlTanRq5Iletr8aq7LaGSY8AgAAADg2lQmQJrvaDr354XTH2r9o136zH3b5d5W/GzatNrycmd1YbJw4EBGqf589S6pyJBZvs0Ssvw9O+WZSSlqrdoNRbT/aEauJn8u+IUUbHHJHLBWLmPq3puSpX6avddYoqRyGRtIKVPXLH+5lVrbtsitjKbH8g1JRbrKVB8tzAFrtTOm7gHL9+lPKDXjkbez2N/f2izX2KDlGgAAAAC4OpUJkGde1NvD72r2iqTLtVqx0t6h1Kz5C02dsrderUmdXCA8eepdyowm54S25PCIMnUbskNR27bILVNp25BWO0+9S2oMyjCM4sc6PNVuKKLBMZd8u51u7WENmzlj08rIrS1tkpRUcjQjj7cQj+VvcslMlw7YBQAAAICrUZkAqVldGvy2UpHHdGxw3NJ+VpPDR2QOH5E5fEjpvmf1m+iTSj1/qGSPyJtB5mi0OBS28LFWDUvFunJDV+tzwdNRkJxfcnhEmXxFss2vZqWUWCT4AgAAAMBCKhQg57NO7tb7te6jcdV8dofW3j6uyzNn7Z2WhDllHapa5G9tlmtmWmahpXRoqCSpcUNJdXG+ey0uqcjDAQWsw1Edyr7niJL5gDoU0eBY9l39rc1SmeoqAAAAAFyNKgiQp3ThvVnLca3WeXfoztVndOkDS/MSS+4ZlFnnU9ha+WuLaFeLS+ZQbj7iUESDY5KnvdcS7kLqLazsmpUd9urTLsviO1JIvfNVFdsi6i3paxVSr1G6kE92ER3LO+Te0z4EN5Y25fFG5G8Si+cAAAAAuG5VECDP6uyBJ/Xr2E81+uohjb56SOYvX9Jo9FlNX7T3XUoxdedXMy3MW2zWyN7SbTxiXQElxnKruhqGDMOrtG0RHQ1F1LE3JbWELfMgd2p6YP45iG5r33aV2WLEKqPUwLR2WuZX6miZ7Tn60zIbffJNsXgOAAAAgOtXmX0gce0K+0DOP5+yqLidiH0vSwAAAAC4WlVQgcSS6fTK42DVWAAAAABwggB5y/Ir0uZR5mhigaGwAAAAAOAcAfIW5O+JyzDC8k0l5s6LBAAAAIBrxBxIAAAAAIAjVCABAAAAAI4QIAEAAAAAjhAgAQAAAACOECABAAAAAI4QIAEAAAAAjhAgAQAAAACOECABAAAAAI4QIAEAAAAAjlRHgKxZp9s/95A2fCH7Wbt1o70HAAAAAKDCbnO73R/bG51oaGjQxMSEvXmORfut+oo8XTtUc3G96utrC82zJ17UmwcO60pJZwAAAABApVS+AnnXPbrjw+OaTJ/WZUtz7d33qhgnK6wtorhhqLfTfmI+fkUOGor3+EuOjb6QrR8AAAAA3DwqGCBrVVO3VSsuHdep30t3rHxL48N/0Dl7NwAAAABAVajQENaNWvf4j7Tds0CN8cwbOn5su7bfv1rTr/dpdPB39h5VzK/IwbCaR6Pq2JO0nwQAAACAm1JlKpD3PKQtC4VHSfoooysrJNXUakPrY9pUb+8AAAAAAFhOlalA3tejL37104XDS++Pa3o6Uzx/flyTR17Tyq8Wq5STLz+mt39b7LKQUJ+hYGPx2BwIqLu/cFa9RlCe/OFMStGHI8rXCUN9hoJKKKGggo1S5mhUHcN+xXc3a2RvhyJD2X7+nrjCLa78XbL9CtVGewXSeixFDoblqytcWmB9T/v9S75DWyT7PgMjam73ySVTiUC3Ym0RxXf7VLjK9t0K8tfv3S91Wt5lLKFAV0yy/A754yz79wIAAADwSVKZCqTFZfMlpV94WefOWxrXbNXmR7+vpsWqlGX4e+IK1qcUDQQUCAQUGDAtZ7PhUQO5c4GAElM+hQ9GlF/uRpLUGJQ3nT1fPiiFFKwfLNwjsDcltYQdLrKTVOTh4vMDgahSM9kAWhIem0aK32FvSu52+yI+LvnapP2BgAKBbsUUUu9unyYL3y2q1JS1v51Lvt27pP58/4TMxmBhoZ9Y2pQavSpZ9qfNr+a6jEaGy/0mAAAAAG51lQmQ5juazv154fSHWv9olz5z33a5txU/mzattrzcWV2YLBwsyFPvkqZOFqtu/d2WYLZTnrGEpRopxQZSytQ1y99WbNNMSglLn7li6rZW5oaSGpmR3JtLYqgjob6wfEppfyGohhRskVL9lsrhUESDY5LHW7qKqzlk6dO2RW5lND2Wb0gq0lWm+mhhDhQrqlJM3QOW0NifUGrGI68ltPpbm+UaG7RcAwAAAOCTpDIB8syLenv4Xc1ekXS5VitW2juUmjV/oalT9tbyYgMpZRqDMoy4ItZQmA+XjUEZhlH8WId85lkD6LxC6i3cp/yQ1EV19irYmCkNi21b5JZLvt2WdzRKh+RmWcNiPmTmrnO0XYjtekkam1ZGbm1pk6SkkqMZS2j1y9/kkpm2DmkFAAAA8ElSmQCpWV0a/LZSkcd0bHDc0n5Wk8NHZA4fkTl8SOm+Z/Wb6JNKPX+oZI/IBQ1F1BEIKDAwmQthpUEyczRqGT6a/1grcYvz98RllAyFzQ5DvToh9bZ7bFXAPFOJOe8YsM1HnCvWlXuX+lxIdhQk55ccHlEmX5Fs86tZi1VmAQAAANzKKhQg57NO7tb7te6jcdV8dofW3j6uyzNn7Z2c6e/OBTuXmluzQ0vNqYxcTf7S+Y5XLVuJs85ZvBahvuCc4bSSpKGTmlTp0NGrk5tjaR2O6pC/tVmumREl84F2KKLBsey7+FubpdGkg8osAAAAgFtVFQTIU7rw3qzluFbrvDt05+ozuvSBpdmhUF/vvKEpOTyiTJ1Pu3qsETKk3quq1CV1ckpy1RfWcZW/Z9dVDWH198QVbDSVKFtRjCk9JnnaS7+Hv6d3zpDcEm0R9ZZ8L6vscNt4yXmXfLstz2iLaFeLSxlbSIylTXm8EfmbxOI5AAAAwCdcFQTIszp74En9OvZTjb56SKOvHpL5y5c0Gn1W0xftfZ3wKGiZm1iy5cRQRB25FVOL8wt3anqgXJCbX6wrt2Jp7h67NOh8CGsuqJW+Z/aTX2U11hVQYqz0fLg+XWaoaym39Xu1K7u1h71TQUapgWntzPff7ZNKtiLJ6U/LbPTJN8XiOQAAAMAnXWX2gURlFfaBLDf/0q649cmc4bYAAAAAPlGqoAKJqtbplUem0oRHAAAA4BOPAIkF+BVp8yhzNLHAUFgAAAAAnxQESJSV3aokLN9UYu68SAAAAACfSMyBBAAAAAA4QgUSAAAAAOAIARIAAAAA4AgBEgAAAADgCAESAAAAAOAIARIAAAAA4AgBEgAAAADgCAESAAAAAOAIARIAAAAA4AgBEgAAAADgSHUEyJp1uv1zD2nDF7KftVs32nsAAAAAACrsNrfb/bG90YmGhgZNTEzYm+dYtN+qr8jTtUM1F9ervr620Dx74kW9eeCwrpR0BgAAAABUSuUrkHfdozs+PK7J9GldtjTX3n2vinESAAAAAFBpFQyQtaqp26oVl47r1O+lO1a+pfHhP+icvRsAAAAAoCpUaAjrRq17/Efa7lmgxnjmDR0/tl3b71+t6df7NDr4O3uPefgVORhW82hUHXuS9pPXaCnuCQAAAAA3l8pUIO95SFsWCo+S9FFGV1ZIqqnVhtbHtKne3gEAAAAAsJwqU4G8r0df/OqnC4eX3h/X9HSmeP78uCaPvKaVXy1WKSdffkxv/7bYZT5xw5DLcpw5Wqwa+nviCrcUz5oDAXX3F/uG+gwFG4vH5kBA3WMRxXf7yt+zzXZuJqXowxHNqVF29spolxKBtLxGUJ5cs/XdQn2Ggkoo0BWzXEjlEwAAAED1qEwF0uKy+ZLSL7ysc+ctjWu2avOj31fTYlXKMjoCUaVmsuEsEAiUhsemEUUDAQUCAQX2puRuN9Tbmb3O3xNXsD5VPD9gZk8MRea5Z0i9u32aHMj1D0SVmrK8yBweBQ2v0pbnqyWseI9fkhRLm1KjVyHrJW1+NddlNDJMeAQAAABQeZUJkOY7ms79eeH0h1r/aJc+c992ubcVP5s2rba83FldmCwcXIOQgi1Sqt9SHRyKaHBM8nizkc1T75KmThbP93eXVCfnaNsitzKaHss3JBXpKlN9LMgotbdbhfriUET7j2bkavLLL0n9CaVmPPLmAq0k+Vub5RobVGSo2AYAAAAAlVKZAHnmRb09/K5mr0i6XKsVK+0dSs2av9DUKXvrVWjbIrdc8u02ZBjFj3W4amwgpUxjUIYRV6TNevE8hiIaHMvds6+kbjiPSZ20BcHku5NS3YbckNakkqOZQqCV/PI3uWSmrUNaAQAAAKByKhMgNatLg99WKvKYjg2OW9rPanL4iMzhIzKHDynd96x+E31SqecPlewReW1MJfLDR62f/JzDoYg6AgEFBiZzQXPxIBnryg1drQ9mQ6mjIDm/5PCIMvlhrG1+NSulxEJVUAAAAABYRhUKkPNZJ3fr/Vr30bhqPrtDa28f1+WZs/ZOV2/opCZVOjx0Xv3d2VA441Jza3Z+4sKSijycmzNpn8O4iJDXI42lS4a1Do5l39Pf2iyNJhcYEgsAAAAAy6sKAuQpXXhv1nJcq3XeHbpz9Rld+sDS7FhSJ6ckV31+rVNJiik9Jnnae0sCnr+nt1BlDPWVnitV5p5tEfXmFsCZoy2iuFFcoCfLo+DBSHa+o7IrswYbNWeIaixtyuONyN8kFs8BAAAAUFUqs43HHKtVs/V+rWtYnz0895bOjvxOV67Y+zlk2V5jzlYZlnmPGitum2E/Z71OKnPPYb9tew9TiUBukZxc38n8NiH5bTwGpGB7MYTatxHJCqnXCMpjeTcAAAAAqAZVEiBvcYV9IC2rsM4rGyBVNlwCAAAAQOVUwRBWlOj0yiNTacIjAAAAgCpDgKwqfkXaPMocTTioVAIAAADA8iJAVgl/T1yGEZZvKlE69xIAAAAAqgRzIAEAAAAAjlCBBAAAAAA4QoAEAAAAADhCgAQAAAAAOEKABAAAAAA4QoAEAAAAADhCgAQAAAAAOEKABAAAAAA4QoAEAAAAADhSHQGyZp1u/9xD2vCF7Gft1o32HgAAAACACrvN7XZ/bG90oqGhQRMTE/bmORbtt+or8nTtUM3F9aqvry00z554UW8eOKwrJZ0BAAAAAJVS+QrkXffojg+PazJ9WpctzbV336tinFwmnb0yjF6F7O0AAAAAgEoGyFrV1G3VikvHder30h0r39L48B90zt4NAAAAAFAVKhQgN2rd4z/Wfwh/X3/aFVJT6w55WnfI0/pprbX0WrXzb/XFSExNO//Y0goAAAAAqITKBMh7HtIWzyIDVD/K6MoKSTW12tD6mDbV2zsAAAAAAJZTZQKke2NJpfHS++OaPHG8+PntYf3zC4dVs3F1rsdGubZaLlhIZ6+MgxH5SxpD6jUM9Xbmj/2KHDQU7wkpctCQUXLOKtvPMPKfuCJt9j6y3M8vf0/c0t8yn3Ke+ZX+nniZ9wUAAACA6lOZAGlx2XxJ6Rde1rnzlsY1W7X50e+rabEq5XVyteyU+gMKBALq7reflUJ9YfmmEgoEsn2iRyftXUq4WsLapf2F/okxj4L50NiflimPvCVB1S9/k0uZ0aSS1mYAAAAAqEKVCZDmO5rO/Xnh9Ida/2iXPnPfdrm3FT+bNq22vNxZXVg4u12bsUFFhuyNeX5tqZcyU2ahJbmne4H+ksYS6thTjIKxroQlNMaUOJqRx2upQbb51VxnatByDQAAAABUq8oEyDMv6u3hdzV7RdLlWq1Yae9Qatb8haZO2VuvnzUczpVUZMiUqyVcduhpOXPvZ2p6RnJvzg5QTQ6PKNPoLdzL39os11hasZJrAAAAAKA6VSZAalaXBr+tVOQxHRsct7Sf1eTwEZnDR2QOH1K671n9JvqkUs8fKtkjctn0d+eGrroVtM9pvBZDSY3M5CuSfvmbpNQA8REAAADAzaFCAXI+6+RuvV/rPhpXzWd3aO3t47o8c9beaXF1G+SxHrdtkdt6fJWSezoUCFiHozrU5ldzXUYjw/khqtmqpscbyp7TiJILDYkFAAAAgCpSBQHylC68N2s5rtU67w7dufqMLn1gaXYqt1jNzp78uqZ+RTp9ctm6Lc6vSN/8q6OG+ow5q6e6WsKlK712+uSasYXE/rTMRq8irc0Si+cAAAAAuIlUQYA8q7MHntSvYz/V6KuHNPrqIZm/fEmj0Wc1fdHe14mYugfycxcNGcYuqT8h++xER+p9Che25AhKA+VXa83LHE1oui3fPyyfUoo+HLGFxJjSYx75WiZZPAcAAADATeU2t9v9sb3RiYaGBk1MTNib53Da7+bmV+RgWM2j0ZJVWOcT6jMUVEKBLuY/AgAAALh5VEEF8pMmJG+jZKYJjwAAAABuLgTIZebv2SnPTEqJBYbCAgAAAEA1IkAul7aI4oahcMukEnPmRQIAAABA9WMOJAAAAADAESqQAAAAAABHCJAAAAAAAEcIkAAAAAAARwiQAAAAAABHCJAAAAAAAEcIkAAAAAAARwiQAAAAAABHCJAAAAAAAEcIkAAAAAAAR6ojQNas0+2fe0gbvpD9rN260d4DAAAAAFBht7nd7o/tjU40NDRoYmLC3jzHov1WfUWerh2qubhe9fW1hebZEy/qzQOHdaWkMwAAAACgUipfgbzrHt3x4XFNpk/rsqW59u57VYyTN9AD52XsO6PINvsJAAAAAMBCKhgga1VTt1UrLh3Xqd9Ld6x8S+PDf9A5ezcAAAAAQFWo0BDWjVr3+I+03bNAjfHMGzp+bLu2379a06/3aXTwd/YeAAAAAIBlVJkK5D0PactC4VGSPsroygpJNbXa0PqYNtXbOwAAAAAAllNlAqR7o9ZaDi+9P67JE8eLn98e1j+/cFg1G1fnemyUa6vlggXEy81vfOC8jH3nFbL/nbftouL7JmXkP9+czZ24osieScUfsS7lM6vefba2bRcVt9wz9E3LvfZNqveBYler0Ddzz3rgvKW/5f23XVz8+wAAAADAMqlMgLS4bL6k9Asv69x5S+Oardr86PfVtFiVsoyRcxfV7LMGviuK/MfzyqRWK2ZpLdh2UfEnLmrkx24FnnIr8NQmpe78IBcia5Q8sUqubR/Jn+//wCV5pJI2v++iXOdWyJTkf+SMgneuV/Sp3P1eWVN8VjlbP5Dx+dtzz3YrmpJ8T+RC44mVZb6PFPr8eWn89vLfBwAAAACWSGUCpPmOpnN/Xjj9odY/2qXP3Ldd7m3Fz6ZNqy0vd1YXJgsHC5oT+LZ9pOa1qzSSKv9VQ18+I6XqFDmRb6lR5J/WSFsvKSQpmVqlzNrL8uT7f/68MuNrSto8Gy8qc2Klkrm/9a+fUjJ/u9fWqPu1/EEZ59Yr+jfFoJw8UKdUITRm36Xk+2hW3q2rlDp89eEaAAAAAK5H+VS11M68qLeH39XsFUmXa7Vipb1DqVnzF5o6ZW8tL3nAJXPtRflzwz79votyjbssAdHqirbcKbl875cMOTUetJRDT3xKkzov7wP5/qs0cni1Rs7l27KBLh9QY4fXK7P1A+dbhVjDpiSpRif/VXJt/Lfs4Wu3l3wfPXBJnnOrlCz7fQAAAABg6VQmQGpWlwa/rVTkMR0bHLe0n9Xk8BGZw0dkDh9Suu9Z/Sb6pFLPHyrZI3JhtUqP5yt4V+TfdlHmsYWrdeYr+eGr1s+a3BDRWqXHJc/nZ7PVTK1S8kR2aKvn87NzA92JVep4yq3AKyvke8I2p/GaWL9PtgJq/tMqW+gEAAAAgKVXoQA5n3Vyt96vdR+Nq+azO7T29nFdnjlr77So2LHcsM9tH6l57Rql5x1Cmq32eT6fXzSnvNixNdKd/6aQ76KUG6qaTK1S5s5/U+juy4XhqyVeW5OdT1lmDuPCZuXdqpLQGzu8Xtr2kfyalXfrQt8HAAAAAJZOFQTIU7rwnjXA1Wqdd4fuXH1Glz6wNF+N11YrpYsKfvmiNN/iOTmxY2ukrR+UrpS67aJ6rausvna7zLVnFPSpOJfyxKc0ufaMgr6Lmnyv+DOGvjn/6qihb07K2HPRMp8xu4iOdUXX0Dc/kEe2kHhipUZ0Uf5HLsnD4jkAAAAAKqQKAuRZnT3wpH4d+6lGXz2k0VcPyfzlSxqNPqvpi/a+TtUoeULybLUEvvm8tkaBV9bI86BlDuQTl5U+YL0uO4xVJXMPc232sKfzChbmU76v5hOb1FFyL5vxuzS4sTgHM7h1jRKF4bN52e/j811m8RwAAAAAFXOb2+3+2N7oRENDgyYmJuzNczjt90kU+uakgrpLAcsqrPPxP3JG4W2rFO1h/iMAAACAyligNIbqkV0MqOxcSwAAAABYJgTIm8EDH8q3do0GFxoKCwAAAABLjERS1WbVu29SxoOXlfqxfV4kAAAAACwv5kACAAAAAByhAgkAAAAAcIQACQAAAABwZMkDJMNXAQAAAODWsOQBEgAAAABwayBAAgAAAAAcIUACAAAAABwhQAIAAAAAHCFAAgAAAAAcIUACAAAAABxZngDpcsllbwMAAAAA3FSWIUA2KfTDn+hn+0Jqsp+qhM5eGUZckTb7CQAAAADAQpYhQI4q9veGxjYH9YNqCZEAAAAAgKt2m9vt/tje6ERDQ4MmJibszfNr+rqi3+vQlpNxfTf8M43azwMAAAAAqtqn1qxZE7E3OrF27VqdP3/e3jy/qbQGj31KX/hqh776hU/p2GBaU/Y+AAAAAICqtXwVyLxcJfJuM6bnnk5cVSXS3xNXuKW4HE/maFQde5L5s4ocDKt5NKr92mXpZyoR6FYsf1Fnr4x2lbYBAAAAABa1DHMgbUZ/pvB3Y/ofW0J65hm//ewCQgrWDyoQCGQ/e1NSS1i9naW9XC1h7dL+Qr/EmEdBo1eh0m4AAAAAgKu0/AHSwuW62960gJi6uyw1w6GkRmYk92ZbCB1LWKqSUqwrIVMeeW1BEwAAAABwdZY/QDYF9dwzITVPJ/T003H72UWE1GsYMgxDhhGWr85+XspMmbYWU9PlgiYAAAAA4Kosb4C0hseu2FXPfzSMoDSQG8IaiCo1Y+8FAAAAAFgqyxcgryM8SpK/yaXM0ai6++1nFtHmV3NdRiPDxWGtAAAAAICrtzwB8jrDoySdnJJc9Z7Csb9nV9khrK6ShXX8inT65JoZUXKotB8AAAAA4OosQ4C8W6EnQ2qeNvS971xbeFR+MZzGYG7+o6FdGiw7hDVzNKHpNss8SaUUfTgi6o8AAAAAcH2WZx9I1wZt0LSmM/YTN1JxH0jrKqwAAAAAgBtjGSqQkjJLHR4BAAAAAEtteQIkAAAAAOCmR4AEAAAAADiyPHMgAQAAAAA3PSqQAAAAAABHCJAAAAAAAEcIkAAAAAAARwiQAAAAAABHCJAAAAAAAEcIkAAAAAAARwiQAAAAAABHCJAAAAAAAEcIkAAAAAAAR5YnQLpcctnbAAAAAAA3lWUIkE0K/fAn+tm+kJrspwAAAAAAN41lCJCjiv29obHNQf1gCUJkqM+Q0ReyNwMAAAAAbrBlCJCSRn+m8HfjGtsc1PeiX7/hIRIAAAAAsPSWJ0CqGCJPbumo/hDZ2SvD6BV1TQAAAAAoWr4AqdIQ+cwPgtUdIgEAAAAAJW5zu90f2xudaGho0MTEhL3ZmaagnnsmpH83GtXXn0vazy4gpF4jKE/+cCyhhIIKKqFAV6zYrbNXRnuhlzSTUvThiEqf5FfkYFi+umKLORBQ2mso2GjtZyoR6Fb27uWv6e4vHof6DAWVe69GKXM0qo49V/MdAQAAAKA6LW8F0sblutvetIBseHQfjSoQCCgQCCg6tdMW9iR/T1xGu1upvdk+gUBAiSmfwiVDUkPqNcLyTSUKfQIDpiQp1pX/21QiEFCgEB7LXLM3JXe7oXiPv3BnSVJjUN50tg/hEQAAAMCtYvkDZK762Dyd0NNPx+1n5+Xv2SnPTEr7LYEsuadDiTFrr5CCLS6ZAx2KDBVbY10JmfLI25k9zt8raq1a9neXVBLtyl4zFNH+oxm5mvwqiZAzKSUWuBcAAAAA3IyWN0Baw2NXTKP28wvw1LuUGU3ahqHatG2RW6bSc8JbTOkxyb05G/Mc3ctmvmuSwyPK1G0oDquVpKmTc/oBAAAAwM1u+QLkdYRHAAAAAEDlLU+AvEHhcc5QUfm1pd5yOHRSk5ahqkUheRulyXezdUFzqsyw00XMd42/tVmumWllZ1ACAAAAwK1rGQLk3Qo9GVLztKHvfefaw2NsIKVMnU+7LAvW+Ht2layIKsWUOJqRpz2uSFuxNdQXlMcyLzG5Z1BmnU/hPstOj5296s0Hz7FpZeTWFss9yl7TFtGuFpfMIfsKrwAAAABw61mebTxcG7RB05rO2E9cpbaI4rt9cuUOM0ejGqwPz9nGw98TV7gl3yu73UfJNh/S3C1BSrbryG3H0Whvt1+TUWpv6YI9+W085j4PAAAAAG5uyxMgAQAAAAA3vWUYwgoAAAAAuBUQIAEAAAAAjhAgAQAAAACOECABAAAAAI4QIAEAAAAAjhAgAQAAAACOECABAAAAAI4QIAEAAAAAjhAgAQAAAACOECABAAAAAI4QIAEAAAAAjhAgAQAAAACOECABAAAAAI4sT4B0ueSytwEAAAAAbirLECCbFPrhT/SzfSE12U9dg1CfIcMwZByMyG8/WWGhPkNGX8jefG3aIoobcUXa7CcAAAAAoDKWIUCOKvb3hsY2B/WD6wyR/p64gvUpRQMBBR6OKGnvAAAAAABYMssQICWN/kzh78Y1tjmo70W/fs0h0lPvkqZOLm9w7OyVYfTqBtUVAQAAAOCmtTwBUsUQeXJLx3WFSAAAAABAZdzmdrs/tjc60dDQoImJCXvz4pq+ruj3OnS3GdNzTyc0aj8/j17DkMdynDkaVcewX/HdzRoZGFFzu08umUoEuhWTJIXUawQt12SU2tuhyFD+2K/IwbCaR6MarA8r2JhrnkkpmhseG+oziu2StND9xxJKKKigEgp0ZXsoN+w23FJcQsgcCKi7v3A45xmF822R7HcrvHP+edZ3AAAAAIDls3wVyLzRnyn83Zj+x5aQnnnG+TI43YGAEmPZoBYIBNSxJz+Q1SVfm7Q/EFAgH6zaIoobQbmPRhUIBLKfgUn5dhvq7Sy9r6slLG861yeQkFnn066e7HvFugIKDJi54Gi5fy7MWe8fndppC5u58Ng0kp2zGQgosDcld3vxHUrmdAbyzyrHr8jBoDxjCcs7AAAAAMDyWv4AaeFy3W1vuibmUOmCOqF2n1xjCUvIlNTfrcSY5PHaZjOOJSwVwZgSRzNyNfkXXOHV37NTnpmU9lvun9zTkQ24BSEFW6RUv+XdhiIatLzDnDmd/d0l1cmsbKXUp5SilsomAAAAACy35Q+QTUE990xIzdMJPf103H72GmQ0XRLc/NpSL5npuWErljal+i0l4TAzNV/Vb36eepcyo8mFF/Np2yK3XPLtzm07kvtYq5SxgZQyjUEZC2zX0dyZC4+sOgsAAACgwpY3QFrDY1fM8fzHm1d+6Kvtk68kDkXUYRleOzdIuiRlpLoNJfM/AQAAAKASli9ALlt4TOrkVJmhqpJCXs8N2wZk7jDXbOWzYOikJuWR1zbnsqz+bgUCUaVmXGpuLamPaqS/Q4kxj4JsJQIAAACgwpYnQC5beMzKDw2N5xbDkbL7OQYbM0oNzB3auqCxaWXk1hZLZTA2kFLGstiOJPl7dslXV+wjxZQekzztpcHP39NbqDKG+pyFwlhXgBAJAAAAoOKWIUDerdCTITVPG/red5Y+PEq5oaF7U1JLuDj/sF1KBKzbeDg0FNHgWH4uYy7Albn/Lu23LaJjDX7FOZDh+rTlHaznsluKlCz8YxHriio1k+1vX0kWAAAAAJbD8uwD6dqgDZrWdMZ+AgAAAABws1iGCqSkDOERAAAAAG52yxMgAQAAAAA3PQIkAAAAAMARAiQAAAAAwBECJAAAAADAEQIkAAAAAMARAiQAAAAAwBECJAAAAADAEQIkAAAAAMARAiQAAAAAwBECJAAAAADAEQIkAAAAAMARAiQAAAAAwJHlCZAul1z2NgAAAADATWUZAmSTQj/8iX62L6Qm+ykAAAAAwE1jGQLkqGJ/b2hsc1A/WIYQGeozZPSF7M0AAAAAgOu0DAFS0ujPFP5uXGObg/pe9OtLHiIBAAAAADfe8gRIFUPkyS0dhEgAAAAAuAktX4BUaYh85gdBQiQAAAAA3ERuc7vdH9sbnWhoaNDExIS92ZmmoJ57JqR/NxrV159L2s+W1xZRfHezRvbulzrD8tXl2scSCnTFCt1CfYaCSig6tVPhlvzar6YSgW4Ve+X6NRaPzYGAuvtzB/lnDYyoud0nV/76zl4Z7VJiQAq2e7J9Z1KKPhyReuLF5+XarN9swedJkvyKHLR8r1yftDf7fazfMd+3eTSqjj0Ofz8AAAAAuE7LW4G0cbnutjctwiXf7l1Sf0CBQECBQEJmY3DuojmNQe3S/lyfqFIzHgWtfdoi8k5Fc+cDCgyY8rTHFWmz3sQlX5u0PxBQoCR8ehT0povPr/MpbBgK1w+WtO3q8RdvtejzQuo1wvJNJUr6SFIsbUqNXpV8wza/musyGhkmPAIAAABYPssfIHPVx+bphJ5+Om4/uyhzoEORofxRTN0DZQLWTEr7C5W5pCJDtj5DEXVbK3f9aZlyaYOlQihJ5lBpFTHXqkShGhhT4mimbJurya9ChFzkef6enfLMpBS1Vhn7u7MVyv6EUjMeeTuLp/ytzXKNDVp+BwAAAABYessbIK3hsSumUfv5RWU0PWZrGptWRm5tsVYPp06WCX42bRHFDUOGYcgwgsoNSLUo86z5zEwrWy9cwALP89S7lBlNzvPOSSVHM/J48/HXL3+TS2baOqQVAAAAAJbe8gXI6w6PN06oz5Cxu1kjey1DYe2dbqDrfV5yeESZfAW1za9mpZQomT8JAAAAAEtveQLkEoZHf2uzXDMjSjoezhmSt9E+FHYpLf48c8o25NVuKKLBsewwVn9rszRvtRIAAAAAls4yBMi7FXoypOZpQ9/7zvWGR5d8u3uLcxnbItrVstDwz3JMTc9I7s3FuBbqKzeE9UZZ/HnJPYPZxXisC/109qrXMu8xljbl8UbkbxKL5wAAAACoiGUIkO8p9q2vK/SdH+t3Gfu5q5VRamBaO/NzCXf7pKNXu5VFUpH+lNQSzs1HNORNX92Q0qvj5HkxdedXlM1/t3YpbR2m2p+W2eiTb4rFcwAAAABURmX2gbwWhX0g5x8KemsLqdcISnP2jwQAAACA5bEMFUjcEJ1eeWSWViUBAAAAYBkRIG8KfkXaPMocTYjNOwAAAABUCgGyyvl74jKMsHxTiauc6wkAAAAAN9bNMwcSAAAAAFBRVCABAAAAAI4QIAEAAAAAjtymbx+7piGsnnNvylz7J/ZmAAAAAMAt6rYVX3zsmgLk/7rm3/T2+U/ZmwEAAAAAtyiGsAIAAAAAHCFAAgAAAAAcIUACAAAAABwhQAIAAAAAHCFAAgAAAAAcIUACAAAAABy55QLkP7z4vGZf/Ia9GRb23+gfXnxes4N/qadKegEAAABAqVsuQAIAAAAAlgYBEvrz//S4anf+lfbZTwAAAACAxdIEyNZv6DcvPKld/4v9xFz3PvKX+peffF1ftp8AAAAAAFSV21Z88bGP7Y1O/K9r/k1vn/+UvVmSdO+f/H/1D/+/r+iL51P61u6/1f7/ae+Rde8ju/X//h9/LP3zz/W/ffOw3rF3sPraX+p01736732HpG98TV9ak2sfP6La//STQrd/ePF5/ZmO6Fsf/Kn++k9W51rf1T/e/x39eaFXrt/W4vHoK4/rj57LHeSf9co7+vcPbtf6/PXP/FCzD0r/+Ir0Zw9uzvY9f1zf2vlX0t/tLz4v12at6C34PEnSlzU4aPleuT5vfD77fazfMd/33//+59r4F4ct7eV8Q//y+g415Q/Hj+gftaPknvnfrPgM2zX23y//O/SdUbBru9bnmud+p8WfLeXvl/s9Vf73AwAAAFB5S1KBfOfN/6adu/+b3ljj01/vLV+JvKrwWLBaX+r6ivSTx1V7/+Oqvf+IRrfumLtoztYdelqHcn1+rl+d36w/s/b52l/qix/8PHf+cdW+8q6aHtyvwa9Zb7JaX9oh/eD+x1VbEj43688+/1bx+Wu2669ff15/fddvStqe/jtLTXXR531D//L61/SlD46U9JGkPz/2rrT1M/qH4t2kr3n179d8qP8+7Cw8ut8sPvtbH/xpSZAt56m/+4wm+vK/8eP6x/HN+rM5i+xs1p99I//7PK5vvfmhmh78oeU9nT37qb/br9kH1+tX1ud9sF1//br1XgAAAACqwZIESEnS6CHt/POflw2R2fC4XTp6NeExa/SVXdr58/zRT/RHr5QJWOeP6weFytxh7Txi6/Pzv9IfWSt3z72lUa1Wg6fYJEmjR8pVwd7VPxaqZz/RT978sGzb+s96i4Frkec99Xd/qqbzx/Uta1Xuue9kq3nP/ZN+dX6zvvhM8dRTrfdq/fhvLL9Defn7Fn8Lad9f7NI/jpd0m2PfX3yn5N5/fuxdac16NVs76UP96ifF32ffX/xGoyq+p7Nnf0Pf+JPVtn9T6c//05GSewEAAACoDksXICXpfx6eEyLv/f88qV/8H9ulo/9N/9u3ri48Sh9qwrQ1mWd0Rut1r7V6+MHpMsHP5mt/qdOvP6/Z15/XbMlwzbwyz5rP+TMasbfZLfC85rtW68zv0/O882Ed/v2Havp8voL6ZX35s6s1esw6pLW8he+7sKf+bn/uXZ8vHV5acEbvLBBgHT37axvl1rt6o2TYqyT9RG+MS+4GZsYCAAAA1WRpA6QsIfIOn/567w/1i64/loZ/fg3h8cb5hxef12zXvfrvhWGTRzRq73QDXe/z9g2/ozP5CurXvPr3Oq6fzAldN8o39C+vP6+//uw7+pZtOC0AAACAT7alD5DKhchdP9cbK9fr4vDP9b//36/dsPD4VOu9Wn/+HR1eoBpW6hv64lb7UNiltPjzRj6wDXm1+/lfKTGeHdL5VOu90mKVPYu59/2y7r2rpKHUM59Rk97VP96ARWwWffbPT2uy7FDV7G82ObHYHE8AAAAAy2l5AqRyIbJ9l/7ousLjan2py7K4ytf+Uk//iYOhkiUmNHG+dHjkP7xYbgjrjbL48/b9xW+yi/FYF/p55of6F0uw+vNj76rp83+pL39WDhbPyfrzl4/rjG1Bn6f+7islK73OMWdI8Df0L2WHsC7M2bOz80XtCxj9w4s71HR+KausAAAAAK7F8gXIG+JD/eqVMwrm5+Z1bZfedLKVhdVh7fzJcelPvlaY4/fFY1c3pPTqOHneT/RH+RVlC/MOVTo38Lm3NLp1u770weKL5xT8/K+0sa/02U/r0MKL6Pz8r/SDN6UvdeXna35Gb1zLEFaHz973F7v0rZLn5bYUuQEVUAAAAAA31pLsA7kkCvtAzj8U9NaW3RZDc/ZavH7/8OLzCn5wtUH82szdcxIAAADAzeImq0B+guXmJpZUJUtWdi39nLbuQ7mgReZE3lC5+aAOVpAFAAAAUH0IkDeFL2twx2adefOf9OfW5p//lTbmV0q1fRxXE5/5j/rSmneVcNrfqa/9pU5b53TqyxocZG4jAAAAcDMjQFa57H6MX9OXPjjiPBQ6UNjn8cH1+lXfd0qD6Y3w89OatM7pfP1r+pKO61vMbQQAAABuWjfPHEgAAAAAQEVRgQQAAAAAOEKABAAAAAA4cpu+feyahrB6zr0pc+2f2JsBAAAAALeo29xu9zUFyIaGBk1MTNib53DaDwAAAABQ3RjCCgAAAABwhAAJAAAAAHCEAAkAAAAAcIQACQAAAABwhAAJAAAAAHCkugKkyyWXvQ0AAAAAUBWqKEA2KfTDn+hn+0Jqsp8CAAAAAFRcFQXIUcX+3tDY5qB+QIgsw6/IQUPxHr/9BAAAAAAsiyoKkJJGf6bwd+Ma2xzU96JfJ0QCAAAAQBWprgCpYog8uaWDEAkAAAAAVaT6AqRKQ+QzPwgSIgEAAACgCtzmdrs/tjc60dDQoImJCXvzHE77ldUU1HPPhPTvRqP6+nNJ+9kbKtRnKKiEAmmvjHZPrjWj1N4ORYYktUUU392skfxxXmevjHYpEehWTMrNVQzLV1fsYg4E1N0vSSH1GkHl7y6Zluvy7H3y75C9b/NoVIP1YQUbc6dnUoo+HJH11/H3xBVuKa5nW3w+AAAAAFy76qxA2rhcd9ublkZjUIY3rUAgoEAgoOhRybc7rkibpKGkRmZcam4tXcQm5PVIY+lcCAyp1wjLN5Uo3CMwYBb6+nu8mt6baw8ElBjzKHgwosId2yKKG0G5j0Yt7zBZuF6SXC1hedP5eyRk1vm0y7Kwjr8nrnDTiKL55+9Nyd1uqLez5DYAAAAAcNWqN0Dmqo/N0wk9/XTcfnZpzKQU7SrWA5N79itVCI1JRYZMuZr8xcCnkLyNGaUGcrXHnp3y2O6h/u5C9S+5p7ukehlLm1LdhkK1MdTuk2ssoY49xXqi/RqNJSzVxJgSRzOWdwop2CKl+i0VyaGIBsckjzeUbwEAAACAa1KdAdIaHrtiGrWfXypTJ0uGgkpJnZySXPW5iNefllnXLH9b7nSnV56ZESVzAc9T71JmNGm7Ryl/T1yGYWQ/haGykuTXlnrJTJcOaLXLTBUrmnO0bZFbLvl25+6f+xSGuwIAAADAdai+AFmp8OhITOmx4jDWkNcjc6h0/uH8Quo1jNLhpZbhrTeOqUT+/taPtSoKAAAAANegugJk1YXHkLyNpVXB2EBKavLLr5C8jabSlsVpzCnrcFKbTq88MpWwLXhTlK12XtdQ06GTmpRHXuY7AgAAAFgCVRQg71boyZCapw197zsVCo+NQcUtC9KE+oLyqDQkaiipETXL3+OVp7B4TlZyz6DMOp/CfZYQ2NmbXcBmbFoZubUlP/xVIfWWDGHNhtOM7R38Pb3ZRXwciSk9Jnnae2WNoVd3DwAAAAAor4oC5HuKfevrCn3nx/pdxn5umYwlNFgftswdLLfNRlLJUcnX4i4snlMUU3cgIbMxaJnnqGwAHYpo/1FZ5id6lbYPYR2KqGNvSmopvkO4abowx9KJWFdudVfLHMhwfbp0IR4AAAAAuAbVvQ/kMirsA+lgrmBhq4x5h6MCAAAAwK3nlguQhmHYmyRl9N5pl+7eaG9XbtGZbslxgPQrcjCs5tFoyXYbNwN/T1zhFpe9WdKsPlStVtubla3KLv6bAAAAAPgkuOUC5LVyXIHs7JXRrjJDWwEAAADg1lZFcyCrXXYbDqPdrdRewiMAAACATx4qkAAAAAAAR6hAAgAAAAAcIUACAAAAABwhQAIAAAAAHCFAAgAAAAAcIUACAAAAABwhQAIAAAAAHCFAAgAAAAAcIUACAAAAABypjgBZs063f+4hbfhC9rN260Z7DwAAAABAhd3mdrs/tjc60dDQoImJCXvzHIv2W/UVebp2qObietXX1xaaZ0+8qDcPHNaVks4AAAAAgEqpfAXyrnt0x4fHNZk+rcuW5tq771UxTi69UJ8h42BEfvuJBVzLNQAAAABws6pggKxVTd1Wrbh0XKd+L92x8i2ND/9B5+zdAAAAAABVoUJDWDdq3eM/0nbPAjXGM2/o+LHt2n7/ak2/3qfRwd/Ze1Sfzl4Z7VIi0K2Y/RwAAAAA3OQqU4G85yFtWSg8StJHGV1ZIammVhtaH9OmensHAAAAAMByqkyAdG/UWsvhpffHNXniePHz28P65xcOq2bj6lyPjXJttVywBEJ9hoy+0Jxjf09chmHkPr0q9ii9JtRnyGj3SPIoWKbvdWmLKG7EFWnzK3Iw/y6l76vO3rLP9PfEmacJAAAA4IaoTIC0uGy+pPQLL+vceUvjmq3a/Oj31bRYlXKpNQa1S/sVCAQUCESVmvEoaA1tFrGugAIDpiRTiUBAgRs+jNUl3+5dUn8g9z4JmY3BYojsT8uUR95O6zV++ZtcyowmlbQ2AwAAAMA1qEyANN/RdO7PC6c/1PpHu/SZ+7bLva342bRpteXlzurCZOFg+cyktH9PPnolFRkypUbvnCrfcjEHOhQZyh/F1D1gfZ+YEkcz8ngtb9fmV3OdqcHCdwAAAACAa1eZAHnmRb09/K5mr0i6XKsVK+0dSs2av9DUKXvrMpg6WUWVu4ymx2xNY9PKyK0tbdnD5PCIMpaA629tlmssfYMroQAAAAA+qSoTIDWrS4PfVirymI4Njlvaz2py+IjM4SMyhw8p3fesfhN9UqnnD5XsEYl5DCU1MpMfxuqXv0lKDRAfAQAAANwYFQqQ81knd+v9WvfRuGo+u0Nrbx/X5Zmz9k7I8bc2yzUzomRhWGt2mK3HG8oOX5X1HAAAAABcnyoIkKd04b1Zy3Gt1nl36M7VZ3TpA0vzzcA2pPTahdRrGIr3WNdOdcm327LKaltEu1rKLJDTn5bZ6FWktVmynwMAAACA61AFAfKszh54Ur+O/VSjrx7S6KuHZP7yJY1Gn9X0RXvfKjcU0eCYS77dN3gbD0lSRqmBae3Mb+Gx2ycdjapjzgI5MaXHPPK1TLJ4DgAAAIAb6ja32/2xvdGJhoYGTUxM2JvncNoPC2iLKL67WSN7rauwzi/UZyiohAJdzH8EAAAAcOPccgHSMAx7k6SM3jvt0t0b7e3K7dt4o/dszPL3xBVucdmbr/59ripAhtRrBKWBgLr77ecAAAAA4NrdcgHylnQVAdLfE1e4aUTRhyPMfwQAAABwQ1XBHEjcEG0RxQ1D4ZZJJQiPAAAAAJYAFUgAAAAAgCNUIAEAAAAAjhAgAQAAAACOECABAAAAAI4QIAEAAAAAjhAgAQAAAACOECABAAAAAI4QIAEAAAAAjhAgAQAAAACOECABAAAAAI5UR4CsWafbP/eQNnwh+1m7daO9BwAAAACgwm5zu90f2xudaGho0MTEhL15jkX7rfqKPF07VHNxverrawvNsyde1JsHDutKSWcAAAAAQKVUvgJ51z2648Pjmkyf1mVLc+3d96oYJ6tMZ68MI65Im/0EAAAAANy6Khgga1VTt1UrLh3Xqd9Ld6x8S+PDf9A5ezcAAAAAQFWo0BDWjVr3+I+03bNAjfHMGzp+bLu2379a06/3aXTwd/YeAAAAAIBlVJkK5D0PactC4VGSPsroygpJNbXa0PqYNtXbOwAAAAAAllNlKpD39eiLX/104fDS++Oans4Uz58f1+SR17Tyq8Uq5eTLj+nt3xa7LMTfE1e4xVU4zhyNqmNPstihs1dGu6d4PJZQoCtWOAz1GQo25o9MJQakYLuUCHQrpvz1luMSfkUOhtU8GtV+7bK8h7no9f6euMJNI4o+HJHlbQEAAACgKlSmAmlx2XxJ6Rde1rnzlsY1W7X50e+rabEqZVkhBesHFQgEsp+9KaklrN7O3Om2iOLtbqX25s4HEjKtV/cZCtanFC1cP62d1rDpkKslrF3aX3iPxJhHQaNXIUnqT8uUR978O0mS/PI3uZQZTRIeAQAAAFSlygRI8x1N5/68cPpDrX+0S5+5b7vc24qfTZtWW17urC5MFg4WEVO3pZqooaRGZiT3Zn/2uHGDXJrUyaEy/dsi2tmYUarfUgEciqhjwBoxHRpLlFQ9Y10JS2iMKXE0I483VOzf5ldznalBa6UUAAAAAKpIZQLkmRf19vC7mr0i6XKtVqy0dyg1a/5CU6fsrQsJqdcwZBiGDCMsX53lVH9CqRmPgoaheE8uVOY1bpBrZkTJQri8dpkpe+g0NW0JssnhEWUavdmKpCR/a7NcY+kyQ2IBAAAAoDpUJkBqVpcGv61U5DEdGxy3tJ/V5PARmcNHZA4fUrrvWf0m+qRSzx8q2SNyIf6euAwjKA3kh6hGlZqx9kgq8nB26OpkS1hGuSC5HIaSGpnJVyT98jdJqQHiIwAAAIDqVaEAOZ91crfer3Ufjavmszu09vZxXZ45a++0IH+TS5mjUXX328/YxdQdCCh6NCNXk1+FCFnXLH9baU//Zndpw7Vo86u5LqOR4fwQ1aQiQ2Z2GGubX826MZVPAAAAAFgqVRAgT+nCe7OW41qt8+7QnavP6NIHlmaHTk5Jrvriojf+nl2lQ1g7e4sL6tj1J5SaccnXGSkGyraIdllWdC0n1GfIOGi5JreITvE5fkU6fXOHx/anZTZ6FWltllg8BwAAAECVq4IAeVZnDzypX8d+qtFXD2n01UMyf/mSRqPPavqive/iYl0JmY3B3PxHQ7s0aBvCKnna8/MjDdu2GUlFHo4qJZ/C+TmUndL+a1hEJ3M0oek2yzxMpcpszxFTeswjX8ski+cAAAAAqHqV2QfyZjPPvo3lFfeBLNl7ch6hPkNBle5DCQAAAADVqAoqkNUv5PVIS7JCakjeRslM3/g7AwAAAMCNRoAs4VfkYG9haw3lVnUNNmaWZIVUf89OeWZSSiy64A8AAAAAVB4BskRSJ6eye0QW5ki2SKm9HYrcyBVS2yKKG4bCLZNKzJkXCQAAAADViTmQAAAAAABHqEACAAAAABwhQAIAAAAAHCFAAgAAAAAcIUACAAAAABwhQAIAAAAAHCFAAgAAAAAcIUACAAAAABwhQAIAAAAAHKmOAFmzTrd/7iFt+EL2s3brRnsPAAAAAECF3eZ2uz+2NzrR0NCgiYkJe/Mci/Zb9RV5unao5uJ61dfXFppnT7yoNw8c1pWSzgAAAACASql8BfKue3THh8c1mT6ty5bm2rvvVTFOVqdQnyHjYER++wkAAAAAuAVVMEDWqqZuq1ZcOq5Tv5fuWPmWxof/oHP2bgAAAACAqlChIawbte7xH2m7Z4Ea45k3dPzYdm2/f7WmX+/T6ODv7D2WRmevjHYpEehWrNDoV+RgWM2jUXXsSZZ0BwAAAIBPispUIO95SFsWCo+S9FFGV1ZIqqnVhtbHtKne3gEAAAAAsJwqU4G8r0df/OqnC4eX3h/X9HSmeP78uCaPvKaVXy1WKSdffkxv/7bYZSGhPkPBxuKxORBQd3/hrHqNoDz5w5mUog9HlCxznWQqsXdaO3f75LK0Zo5mK5GhPkNBJRToipVUKQfrw8X7WO6f5++JK9ySv2NGqYERNbc3a2RvhyJD2Vb7u5R+h6LCO6S9Mtrz3yqjVP5ebRHFd5feW5qv0goAAAAA86tMBdLisvmS0i+8rHPnLY1rtmrzo99X02JVyjL8PXEF61OKBgIKBAIKDJiWs9nwqIHcuUBAiSmfwrmFcGJd+f6mEoGAAoFuxYYi6ghElZrJBsdAILDgMFZXS1jedP7+CZl1Pu3qKS6zkw2Pk7n7BxQIDGpDe2lAXfg7lNEYlOFNF75T9Kjk2x1XpE3SUFIjMy41t5Yu9RPyeqSxNOERAAAAgGOVCZDmO5rO/Xnh9Ida/2iXPnPfdrm3FT+bNq22vNxZXZgsHCzIU++Spk4WK3793YXKnb9npzxjiZJKXmwgpUxds/xtxbbrUnL/mBJHM3I1+XMrtYYUbHHJHLBW/WLq3puSpf664HcoayalaFfxjsk9+5UqhMakIkOm5R0kKSRvY0apAeIjAAAAAOcqEyDPvKi3h9/V7BVJl2u1YqW9Q6lZ8xeaOmVvLS82kFKmMSjDyFXgLDz1rmy1zjCKH9vw1OuVmVqgWti2RW6ZSi8UBhf5DmVZw6YkKamTU5KrPjektT8t0xqSO73yzIwoaR3SCgAAAACLqEyA1KwuDX5bqchjOjY4bmk/q8nhIzKHj8gcPqR037P6TfRJpZ4/VLJH5IKGIuoIBBQYmJRvtzEnhOWHoZZ+bPMDK22R73D1YkqPFYexhrwemUOl8zIBAAAAYDEVCpDzWSd36/1a99G4aj67Q2tvH9flmbP2Ts70dysQiFqGckrmlHU4aaV45O20NTVuKF8FLfMdnAnJ2yiZactA2YGU1OSXXyF5GxevggIAAACAXRUEyFO68N6s5bhW67w7dOfqM7r0gaXZoVBfr0L2xpzk8IgytkVtpJB6+yxXjE0rI7e2lFT8bENCr9VQRINjkqfd+o4h9RZWT821LPAd/D1xGYbtfGNQcct3CvUF5bEPlR1KakTN8vd45WHxHAAAAADXoAoC5FmdPfCkfh37qUZfPaTRVw/J/OVLGo0+q+mL9r5OeBQszHHMbqtRWDV1KKKOvSmpJWyZB7lT09bFZIYiGhxz5YaOFoNacV6iURLWrlasK6DEmPUdvUrbFtFZ8DuUM5bQYH3xOwUbzTLbcySVHJV8LW4WzwEAAABwTSqzDyRKzbdXowOle1EuzN8TV7hpZM6+lAAAAADgRBVUIOFvbZZryVdF9cvf5FJmNEl4BAAAAHBNCJDLLNRnW1G1s1fhFtfSr4raGZSvztTgQkNhAQAAAGABBMhlZk4pN78y92n3yBwIqHvJVkUNqdcwZLS7ldprnxcJAAAAAM4xBxIAAAAA4AgVSAAAAACAIwRIAAAAAIAjBEgAAAAAgCMESAAAAACAIwRIAAAAAIAjBEgAAAAAgCMESAAAAACAIwRIAAAAAIAjBEgAAAAAgCPVESBr1un2zz2kDV/IftZu3WjvAQAAAACosNvcbvfH9kYnGhoaNDExYW+eY9F+q74iT9cO1Vxcr/r62kLz7IkX9eaBw7pS0hkAAAAAUCmVr0DedY/u+PC4JtOnddnSXHv3vSrGyWXS2SvD6FXI3g4AAAAAqGSArFVN3VatuHRcp34v3bHyLY0P/0Hn7N0AAAAAAFWhQgFyo9Y9/mP9h/D39addITW17pCndYc8rZ/WWkuvVTv/Vl+MxNS0848trQAAAACASqhMgLznIW3xLDJA9aOMrqyQVFOrDa2PaVO9vQMAAAAAYDlVJkC6N5ZUGi+9P67JE8eLn98e1j+/cFg1G1fnemyUa6vlgoV09so4GJG/pDGkXsNQb2f+2K/IQUPxnpAiBw0ZJeessv0MI/+JK9Jm7yPL/fzy98Qt/S3zKeeZX+nviZd5XwAAAACoPpUJkBaXzZeUfuFlnTtvaVyzVZsf/b6aFqtSXidXy06pP6BAIKDufvtZKdQXlm8qoUAg2yd6dNLepYSrJaxd2l/onxjzKJgPjf1pmfLIWxJU/fI3uZQZTSppbQYAAACAKlSZAGm+o+ncnxdOf6j1j3bpM/dtl3tb8bNp02rLy53VhYWz27UZG1RkyN6Y59eWeikzZRZaknu6F+gvaSyhjj3FKBjrSlhCY0yJoxl5vJYaZJtfzXWmBi3XAAAAAEC1qkyAPPOi3h5+V7NXJF2u1YqV9g6lZs1faOqUvfX6WcPhXElFhky5WsJlh56WM/d+pqZnJPfm7ADV5PCIMo3ewr38rc1yjaUVK7kGAAAAAKpTZQKkZnVp8NtKRR7TscFxS/tZTQ4fkTl8RObwIaX7ntVvok8q9fyhkj0il01/d27oqltB+5zGazGU1MhMviLpl79JSg0QHwEAAADcHCoUIOezTu7W+7Xuo3HVfHaH1t4+rsszZ+2dFle3QR7rcdsWua3HVym5p0OBgHU4qkNtfjXXZTQynB+imq1qeryh7DmNKLnQkFgAAAAAqCJVECBP6cJ7s5bjWq3z7tCdq8/o0geWZqdyi9Xs7Mmva+pXpNMnl63b4vyK9M2/Omqoz5izeqqrJVy60munT64ZW0jsT8ts9CrS2iyxeA4AAACAm0gVBMizOnvgSf069lONvnpIo68ekvnLlzQafVbTF+19nYipeyA/d9GQYeyS+hOyz050pN6ncGFLjqA0UH611rzM0YSm2/L9w/IppejDEVtIjCk95pGvZZLFcwAAAADcVG5zu90f2xudaGho0MTEhL15Dqf9bm5+RQ6G1TwaLVmFdT6hPkNBJRToYv4jAAAAgJtHFVQgP2lC8jZKZprwCAAAAODmQoBcZv6enfLMpJRYYCgsAAAAAFQjAuRyaYsobhgKt0wqMWdeJAAAAABUP+ZAAgAAAAAcoQIJAAAAAHCEAAkAAAAAcIQACQAAAABwhAAJAAAAAHCEAAkAAAAAcIQACQAAAABwhAAJAAAAAHCEAAkAAAAAcKQ6AmTNOt3+uYe04QvZz9qtG+09AAAAAAAVdpvb7f7Y3uhEQ0ODJiYm7M1zLNpv1Vfk6dqhmovrVV9fW2iePfGi3jxwWFdKOgMAAAAAKqXyFci77tEdHx7XZPq0Lluaa+++V8U4eQN19sow4oq02U8AAAAAABZSwQBZq5q6rVpx6bhO/V66Y+VbGh/+g87ZuwEAAAAAqkKFhrBu1LrHf6TtngVqjGfe0PFj27X9/tWafr1Po4O/s/cAAAAAACyjylQg73lIWxYKj5L0UUZXVkiqqdWG1se0qd7eAQAAAACwnCoTIN0btdZyeOn9cU2eOF78/Paw/vmFw6rZuDrXY6NcWy0XLCBebn5jZ68Mo1ch+995bRHFDUNG/tOXP+tX5KCheI/f0jmkXsPW1hZR3HLPUJ/lXoah3s5iV6tQX+5Znb2W/pb3b4ss/n0AAAAAYJlUJkBaXDZfUvqFl3XuvKVxzVZtfvT7alqsSlnGyIxLza3WwOdXpM2jzNGEYpbWgraI4rubNbI3oEAgoEAgqlR9MBcik0qOZuRq8qtwx06vPFJJm7+1Wa6ZaZmS/D1xBetTigZy9xswi88qpzEow5vOPTug6FHJtzsXGoeSZb6PFPJ6pLF0+e8DAAAAAEukMgHSfEfTuT8vnP5Q6x/t0mfu2y73tuJn06bVlpc7qwuThYMFzQl8bX4112U0Mpws7ZgTavdJR/crMpRvSSoyZEqNXoUkJYdHlKnbIE++v9ejzJhZ0uapdykzmlQy97emTqrwtP5udffnD8qYSSnaVYyCyT37lSqExuy7lHwfheRtzCg1QHwEAAAAsLwqEyDPvKi3h9/V7BVJl2u1YqW9Q6lZ8xeaOmVvLS+5Z1BmXbP8uWGf/tZmucYGLQHRyq8t9ZKrJVwy5NRoz0dDSUMnNSmPvJ35/hmNDCQ0MpNvywa6fECNDaSUaQw63yrEGjYlSUmdnJJc9bl36E+XfB91euWZGVGy7PcBAAAAgKVTmQCpWV0a/LZSkcd0bHDc0n5Wk8NHZA4fkTl8SOm+Z/Wb6JNKPX+oZI/IhcWUHstX8PzyN7lkpheu1pkD+eGr1k93bohoTOkxyeMNZauZGlFyKDu01eMNzQ10QxF1BAIKDEzKt9s2p/GaWL9PtgJqDkVsoRMAAAAAll6FAuR81snder/WfTSums/u0Nrbx3V55qy906Ji6dywzza/mutMpecdQpqt9nm8Cy9HE0ubUv0WhVqbpdxQ1eTwiDL1WxTa7C4MXy3R352dT1lmDuPCQvI2qiT0xgZSUpNffoXkbVzo+wAAAADA0qmCAHlKF96btRzXap13h+5cfUaXPrA0X43+hFJqVrC9WZpv8ZycWNqUGoOlK6W2RdRrXWW1Py2zzqdgi4pzKYdOarLOp2CLS5PvFuNjqG/+1VFDfYaMgxHLfMbsIjrWFV1DfUF5ZAuJQ0mNqFn+Hq88LJ4DAAAAoEKqIECe1dkDT+rXsZ9q9NVDGn31kMxfvqTR6LOavmjv61RSyVHJ02gJfPPp71ZgwJSn3TIHcvcGpfdYr8sOY1XJ3MNcmz3syaNgYT5lWM2jUXWU3MtmLKHB+uIczGCjqURh+Gxe9vv4WtwsngMAAACgYm5zu90f2xudaGho0MTEhL15Dqf9PolCfYaCSihgWYV1Pv6euMJNI4o+zPxHAAAAAJVRBRVILC67GFDZuZYAAAAAsEwIkDeDzqB8daYGFxoKCwAAAABLjABZ1ULqNQwZ7W6l9trnRQIAAADA8mIOJAAAAADAESqQAAAAAABHCJAAAAAAAEcIkAAAAAAARwiQAAAAAABHCJAAAAAAAEcIkAAAAAAARwiQAAAAAABHCJAAAAAAAEcIkAAAAAAAR6ojQNas0+2fe0gbvpD9rN260d4DAAAAAFBht7nd7o/tjU40NDRoYmLC3jzHov1WfUWerh2qubhe9fW1hebZEy/qzQOHdaWkMwAAAACgUipfgbzrHt3x4XFNpk/rsqW59u57VYyT1cyvyEFDRl/IfgIAAAAAbikVDJC1qqnbqhWXjuvU76U7Vr6l8eE/6Jy9GwAAAACgKlRoCOtGrXv8R9ruWaDGeOYNHT+2XdvvX63p1/s0Ovg7ew8AAAAAwDKqTAXynoe0ZaHwKEkfZXRlhaSaWm1ofUyb6u0dAAAAAADLqTIB0r1Ray2Hl94f1+SJ48XPbw/rn184rJqNq3M9Nsq11XLBAuJGXJE2S0Nnrwxbm78nbpmzmJvDaOQ/tuvbIooXzhmK94QUOWgo3uMvub54bNPZK8PoVUgh9ZbcZ7Hrs/17O23NAAAAAFAhlQmQFpfNl5R+4WWdO29pXLNVmx/9vpoWq1KWMTLjUnNrMYyFvB5J1ja//E0uZabM7Pm+sHxTCQUCAQUCAUWPThauVVtE8d0+TQ5kzwUCAQ3WB+WrK3ZxxqOg4VU6d4/A3pTUEs6FxqSSoxm5mvwqiZCdXnlkKt1vbQQAAACAyqlMgDTf0XTuzwunP9T6R7v0mfu2y72t+Nm0abXl5c7qgiXXLSQ5mpGr3pM7CsnbmJE5Zm3zaENdRiPDSUl+balXIUxKUnJPtyJDuavbfXKNJdRtCXGxrqhSM8VjZzJK7e1WLH84FNH+o8XQmNwzKLOuWX5L5TPk9ShzNFG8BgAAAAAqrDIB8syLenv4Xc1ekXS5VitW2juUmjV/oalT9tbyku9OSo1ehSSpbYvcMyNKDIwok2/r9MozM6LkkCQlFRky5WoJ54aZWmXDpZm+ERFuUidzoTQv+e6kVLdB2VgbU3rMWiXNBt9syAUAAADw/2/vjkGbCMMwAL8KIhg0VDpcCi45EG+5KWSQQI/ON+SmbC6XtRZKBpfK0TkIyZwMChYKQkoIHQINV8iiZjqE3HKBDBIdpKYgWivocOnd5dKkqUR7hffZ8vGTmz++9/9+ioaraSBxipPmM3SMJ/jQ7AfqQ3xqH8JpH8Jp12GVt/C+uI7Oy/rYG5EzVSw4ECHnASUjAbYJs2Wie+zWdFnEN9uE15pVNkbRVQFao3FOI/l/VC3Hj7HmZYi9pjcJJSIiIiIiioIraiCniUPIPEb8Zx83H67i7u0+fh0Pw4cuUIXVA4QVHcojjKZ47j1DYUXHg+XzJ3vmdg6qWvOazzOiHG4nRSxd+g7kJF0WgZ7lR1QrNXTgxlh1WVzQ5JOIiIiIiGhxItBAfsT3z6eB37cQl1dx/85XnHwJlC+hajmIpTWkcBZVdSOjsbSG1L1gnFSBUTbGl9d43HgrktrYJlS9rI1ip1OMtraOb08Voe0EvpMvQUuG47EmTBuQMgbkJJfnEBERERFR9ESggRxi+Hodb6uvYO/XYe/X4Ry8gV3cwtGP8Nk5VSw4QCiq6tbGpn4AsJxCwXteQwP2VH9pTmUD6p4DMes/vyFbf7NEx0GtteR/JyvCCX5nxGx3gXQKApfnEBERERFRBN0QBOF3uDiPRCKBwWAQLk+Y99z1ocDYKUCyi8htT0ZhJ+RLaGSBmhrYwjrNmoHdTQndFznefyQiIiIiosiJwATymllTIHnPgCyWkpEQ8zbEEhERERERRQsbyFnyJew+D96Q1FHaTCH2Tzak6tDSMTgtw4/dEhERERERRQgbyFl6R0C64N1/bDQ0iL0a1KcXhlEvRS+7/y28K07ciyQiIiIiIoqKPxkG/yVpj59BAAAAAElFTkSuQmCC;" vertex="1" parent="1">
          <mxGeometry x="320" y="430" width="912" height="677" as="geometry" />
        </mxCell>
        <mxCell id="6yK7ew2rnF_ANEhxyzKK-2" value="" style="labelPosition=right;align=left;strokeWidth=2;shape=mxgraph.mockup.markup.curlyBrace;html=1;shadow=0;dashed=0;strokeColor=#FF0000;direction=north;flipH=1;" vertex="1" parent="1">
          <mxGeometry x="530" y="460" width="20" height="320" as="geometry" />
        </mxCell>
        <mxCell id="6yK7ew2rnF_ANEhxyzKK-3" value="&lt;font color=&quot;#ffffff&quot;&gt;Each of the 4 applications has its own separate set of files that defines the logic applicable to their respective applications&lt;/font&gt;&lt;span style=&quot;color: rgb(255, 255, 255); background-color: initial;&quot;&gt;&amp;nbsp;&lt;/span&gt;" style="text;html=1;align=center;verticalAlign=middle;whiteSpace=wrap;rounded=0;fontSize=18;" vertex="1" parent="1">
          <mxGeometry x="570" y="573" width="120" height="94" as="geometry" />
        </mxCell>
        <mxCell id="6yK7ew2rnF_ANEhxyzKK-6" value="" style="endArrow=classic;html=1;rounded=0;strokeColor=#ff0000;entryX=0;entryY=0.5;entryDx=0;entryDy=0;entryPerimeter=0;" edge="1" parent="1" target="6yK7ew2rnF_ANEhxyzKK-8">
          <mxGeometry width="50" height="50" relative="1" as="geometry">
            <mxPoint x="694" y="620" as="sourcePoint" />
            <mxPoint x="790" y="475" as="targetPoint" />
          </mxGeometry>
        </mxCell>
        <mxCell id="6yK7ew2rnF_ANEhxyzKK-8" value="&lt;font style=&quot;font-size: 18px;&quot; color=&quot;#ffffff&quot;&gt;urls.py: Ties API Endpoints and Views&lt;/font&gt;" style="text;html=1;align=left;verticalAlign=middle;whiteSpace=wrap;rounded=0;" vertex="1" parent="1">
          <mxGeometry x="780" y="700" width="430" height="30" as="geometry" />
        </mxCell>
        <mxCell id="6yK7ew2rnF_ANEhxyzKK-9" value="" style="endArrow=classic;html=1;rounded=0;strokeColor=#ff0000;entryX=0;entryY=0.5;entryDx=0;entryDy=0;" edge="1" parent="1" target="6yK7ew2rnF_ANEhxyzKK-10">
          <mxGeometry width="50" height="50" relative="1" as="geometry">
            <mxPoint x="694" y="620" as="sourcePoint" />
            <mxPoint x="550" y="679" as="targetPoint" />
          </mxGeometry>
        </mxCell>
        <mxCell id="6yK7ew2rnF_ANEhxyzKK-10" value="&lt;font style=&quot;font-size: 18px;&quot; color=&quot;#ffffff&quot;&gt;authentication.py: Defines all authentication classes&lt;/font&gt;" style="text;html=1;align=left;verticalAlign=middle;whiteSpace=wrap;rounded=0;" vertex="1" parent="1">
          <mxGeometry x="780" y="560" width="430" height="30" as="geometry" />
        </mxCell>
        <mxCell id="6yK7ew2rnF_ANEhxyzKK-11" value="" style="endArrow=classic;html=1;rounded=0;strokeColor=#ff0000;" edge="1" parent="1">
          <mxGeometry width="50" height="50" relative="1" as="geometry">
            <mxPoint x="644" y="840" as="sourcePoint" />
            <mxPoint x="500" y="899" as="targetPoint" />
          </mxGeometry>
        </mxCell>
        <mxCell id="6yK7ew2rnF_ANEhxyzKK-12" value="&lt;font color=&quot;#ffffff&quot; style=&quot;font-size: 18px;&quot;&gt;Root folder of the backend&amp;nbsp;&lt;/font&gt;" style="text;html=1;align=center;verticalAlign=middle;whiteSpace=wrap;rounded=0;" vertex="1" parent="1">
          <mxGeometry x="650" y="820" width="220" height="30" as="geometry" />
        </mxCell>
        <mxCell id="6yK7ew2rnF_ANEhxyzKK-13" value="" style="endArrow=classic;html=1;rounded=0;strokeColor=#ff0000;entryX=0;entryY=0.5;entryDx=0;entryDy=0;" edge="1" parent="1" target="6yK7ew2rnF_ANEhxyzKK-14">
          <mxGeometry width="50" height="50" relative="1" as="geometry">
            <mxPoint x="694" y="620" as="sourcePoint" />
            <mxPoint x="550" y="679" as="targetPoint" />
          </mxGeometry>
        </mxCell>
        <mxCell id="6yK7ew2rnF_ANEhxyzKK-14" value="&lt;font color=&quot;#ffffff&quot;&gt;&lt;span style=&quot;font-size: 18px;&quot;&gt;views.py: Defines alll views that handles requests&lt;/span&gt;&lt;/font&gt;" style="text;html=1;align=left;verticalAlign=middle;whiteSpace=wrap;rounded=0;" vertex="1" parent="1">
          <mxGeometry x="780" y="730" width="430" height="30" as="geometry" />
        </mxCell>
        <mxCell id="6yK7ew2rnF_ANEhxyzKK-15" value="" style="endArrow=classic;html=1;rounded=0;strokeColor=#ff0000;entryX=0;entryY=0.5;entryDx=0;entryDy=0;" edge="1" parent="1" target="6yK7ew2rnF_ANEhxyzKK-16">
          <mxGeometry width="50" height="50" relative="1" as="geometry">
            <mxPoint x="694" y="620" as="sourcePoint" />
            <mxPoint x="550" y="679" as="targetPoint" />
          </mxGeometry>
        </mxCell>
        <mxCell id="6yK7ew2rnF_ANEhxyzKK-16" value="&lt;font style=&quot;font-size: 18px;&quot; color=&quot;#ffffff&quot;&gt;serializers.py: Defines serializers for the models defined in models.py&lt;/font&gt;" style="text;html=1;align=left;verticalAlign=middle;whiteSpace=wrap;rounded=0;" vertex="1" parent="1">
          <mxGeometry x="780" y="660" width="430" height="30" as="geometry" />
        </mxCell>
        <mxCell id="6yK7ew2rnF_ANEhxyzKK-17" value="" style="endArrow=classic;html=1;rounded=0;strokeColor=#ff0000;entryX=0;entryY=0.5;entryDx=0;entryDy=0;" edge="1" parent="1" target="6yK7ew2rnF_ANEhxyzKK-18">
          <mxGeometry width="50" height="50" relative="1" as="geometry">
            <mxPoint x="694" y="620" as="sourcePoint" />
            <mxPoint x="550" y="679" as="targetPoint" />
          </mxGeometry>
        </mxCell>
        <mxCell id="6yK7ew2rnF_ANEhxyzKK-18" value="&lt;font style=&quot;font-size: 18px;&quot; color=&quot;#ffffff&quot;&gt;models.py: Defines all the models (tables) for the database&lt;/font&gt;" style="text;html=1;align=left;verticalAlign=middle;whiteSpace=wrap;rounded=0;" vertex="1" parent="1">
          <mxGeometry x="780" y="610" width="430" height="30" as="geometry" />
        </mxCell>
        <mxCell id="6yK7ew2rnF_ANEhxyzKK-20" value="" style="endArrow=classic;html=1;rounded=0;strokeColor=#ff0000;entryX=0;entryY=0.5;entryDx=0;entryDy=0;" edge="1" parent="1" target="6yK7ew2rnF_ANEhxyzKK-21">
          <mxGeometry width="50" height="50" relative="1" as="geometry">
            <mxPoint x="694" y="620" as="sourcePoint" />
            <mxPoint x="550" y="679" as="targetPoint" />
          </mxGeometry>
        </mxCell>
        <mxCell id="6yK7ew2rnF_ANEhxyzKK-21" value="&lt;font style=&quot;font-size: 18px;&quot; color=&quot;#ffffff&quot;&gt;admin.py: Register and customize models in the Django admin interface&lt;/font&gt;" style="text;html=1;align=left;verticalAlign=middle;whiteSpace=wrap;rounded=0;" vertex="1" parent="1">
          <mxGeometry x="780" y="520" width="430" height="30" as="geometry" />
        </mxCell>
        <mxCell id="6yK7ew2rnF_ANEhxyzKK-22" value="" style="endArrow=classic;html=1;rounded=0;strokeColor=#ff0000;" edge="1" parent="1">
          <mxGeometry width="50" height="50" relative="1" as="geometry">
            <mxPoint x="594" y="960" as="sourcePoint" />
            <mxPoint x="450" y="1019" as="targetPoint" />
          </mxGeometry>
        </mxCell>
        <mxCell id="6yK7ew2rnF_ANEhxyzKK-23" value="&lt;font color=&quot;#ffffff&quot;&gt;&lt;span style=&quot;font-size: 18px;&quot;&gt;Defines the global settings of the application&lt;/span&gt;&lt;/font&gt;" style="text;html=1;align=left;verticalAlign=middle;whiteSpace=wrap;rounded=0;" vertex="1" parent="1">
          <mxGeometry x="600" y="940" width="430" height="30" as="geometry" />
        </mxCell>
        <mxCell id="6yK7ew2rnF_ANEhxyzKK-24" value="" style="endArrow=classic;html=1;rounded=0;strokeColor=#ff0000;exitX=0;exitY=0.5;exitDx=0;exitDy=0;" edge="1" parent="1" source="6yK7ew2rnF_ANEhxyzKK-25">
          <mxGeometry width="50" height="50" relative="1" as="geometry">
            <mxPoint x="564" y="990" as="sourcePoint" />
            <mxPoint x="420" y="1049" as="targetPoint" />
          </mxGeometry>
        </mxCell>
        <mxCell id="6yK7ew2rnF_ANEhxyzKK-25" value="&lt;font color=&quot;#ffffff&quot;&gt;&lt;span style=&quot;font-size: 18px;&quot;&gt;Registers the urls of all individual applications&lt;/span&gt;&lt;/font&gt;" style="text;html=1;align=left;verticalAlign=middle;whiteSpace=wrap;rounded=0;" vertex="1" parent="1">
          <mxGeometry x="600" y="980" width="430" height="30" as="geometry" />
        </mxCell>
      </root>
    </mxGraphModel>
  </diagram>
  <diagram id="1wby1ce4oFRoHb0MB5US" name="Frontend">
    <mxGraphModel dx="1615" dy="1008" grid="1" gridSize="10" guides="1" tooltips="1" connect="1" arrows="1" fold="1" page="1" pageScale="1" pageWidth="850" pageHeight="1100" math="0" shadow="0">
      <root>
        <mxCell id="0" />
        <mxCell id="1" parent="0" />
        <mxCell id="9_xR28aF4kL3-UmaCN62-1" value="&lt;font color=&quot;#ffffff&quot;&gt;&lt;span style=&quot;font-size: 18px;&quot;&gt;src folder contains all the developer-defined files&lt;/span&gt;&lt;/font&gt;" style="text;html=1;align=left;verticalAlign=middle;whiteSpace=wrap;rounded=0;" vertex="1" parent="1">
          <mxGeometry x="270" y="80" width="430" height="30" as="geometry" />
        </mxCell>
        <mxCell id="9_xR28aF4kL3-UmaCN62-3" value="" style="shape=image;verticalLabelPosition=bottom;labelBackgroundColor=default;verticalAlign=top;aspect=fixed;imageAspect=0;image=data:image/png,iVBORw0KGgoAAAANSUhEUgAAAwIAAAMWCAYAAABC+zE1AAAAAXNSR0IArs4c6QAAAARnQU1BAACxjwv8YQUAAAAJcEhZcwAAEnQAABJ0Ad5mH3gAAJZaSURBVHhe7P1/fFx1nff/PwttAY9NicQyIuXHjEDDfomiY77Sq+g4YnZXj2zmg2sQLvHmTvRr8drkY3ZYFd14qIvutYz1Ntldy83N6CW72yXu+pmsHBCzGEbhKnyyg7jpJamwE6GRbihhQwOjlBb4/nHmxzknk19t2k46j/vtNjc65/0+P2bCH+/nOa/3e1YFAoHXBAAAAKCunOLfAAAAAODkV3NB4Et/cZNG/uIy/2ZUc0OHRu78lL55pb8BAAAAmNvaNatrLwgAAAAAODZWrVqlC889S+9tvYggsKLdMaDWa7+lGx8obbhM37vzJn3vBm83AAAAYNWqVXrLeW/U74TepNedvnaOILApruQ3urTZ8DfMZlx1s3b85ce0yd8AAAAAoGYYZ6zVuWev15rVp0qSVlVbNcg419RNX/u0WgpDSv5Jn3YV/D0cxlUJ9d0Y0dpH+vTpW4c0RzfHlVfpx58J6pd/Myjd8HGF1xW3P3mvWj+/u9ztS39xk67WvUo9d4W637G+uHWvfnDtgP683KvY74LK+yfvuU0fuaP4pnSue8Z1yQcu17rS/jd0aOQD0g/uka7+wHlO3xceVeqT90k3fapyvuK2fygffYHzSZI26Jt/6/pcxT6jlzqfx/0ZS30vefy7et9t+13bXcrfl/uOf3FewAfk/Tzlfxc/U5H7Gr3Xf0A5/3EBAABwUgs0Nejy5nN1+to10lyThQu/tmV99naNGm1KfL36k4ElhYCy9Qp/pl264za1XnubWq+9V09e8HuzJwdf8Hv6Iw0W+3xXuRfO09XuPldepZbnvltsv02t9+zVBR/wT5pdr/CV0revvU2tnhBxnq6+9LHK+dddru47b1L3WQ95tv3RTRsqh1rwfJfpe3d+XOHn7vX0kaQ/f2yvdMGl+lLlaNKVLbpk3QH98uE5QoAkPTCqX76wXpe8y3Ud2qBvXnmeXnjkfk8okkplQvfqyWIAaL3WFwLkvrYDCn/G/30BAADgZHbKKau0Sqsq7z2tblO2rE/3VQ0DTgjYLD20lBDgePIe953o3frIPVUGyi88qm+X75Tv140P+Po8cJ8+4r6TfsdjelLr1XRhZZMkPfmA966+Y69+UL47v1v/8siBqtvWXdyi60u7LHC+62+6Qhe88KhS7rv+dww4A/E77lfuhfPU4qrbv/5dQa178qEF7sjv1/9+3HcdiwkQfldepfde4P58pWvyhwwAAACczH770iG9fPiV8vu5g4AkFYZmhQHjii4lb9wsPXS7um5bWgiQDmjqV75Nv3pOL2i9znHfnX7umSoDeJ8rr9KP77xJI3fepJE7f0+uqp2iKueaywvPacGu85zvwrPW64XHR+e4ZmdAf8GlpScaG/TfLl6vJx9zlwpV9w+3PaQn1wX134rfzeIChM+FZ2mdztPV5Wu/SSN3ekuYAAAAcPI78OJv9ex/vaBXX3NmBswfBFQJA7nT25T4ekrJmyLS/ckjCAHL50t/cZNGPhPUL//GVWLk77SMjvZ8//DwuF4oPdG4skWX6FH9i2d+wVx2a/TJ0p37xQeIWV54VKlSWZDrNef8BAAAAJx0Xn31Nf3H3ilNTb+o1157bRFBQE4Y+Opn+pRbE9DL9yeV+KtdyxYCrn9XUOteGNf/XvRd7svUcoG/xOhYWvh8v3rOV8Lj98B9uv9Jpzzo+ncFpTmfHsz254/tdY59ZYsuWbdXo4sKEC6/ek4vuJ4qAAAAoH4VfntQ//Z/9uqJvc8uMgioGAbiHeo+qhCwXuHPdFRq/a+8Sn/0jvnKaqp5RlMvSGedXalv/9JfVCsNWi4Ln88p4blc3e4JzTd0eNbz//PH9uqCS6/Sf7tYS6vxv+N+5RTUH3wwKFWbJOwx+1pLk47DN1zlCSpf+gvX3wEAAAB14+VDh/WL//jPJQSBZXFAuXue03tLteqfuVx6ZJ4lNKvarxvveFR6x8fLNe8tjy2tVGdpFnO+3fpIaQWk0mf7gLx37+94TE9ecLnCzy2xxl/79b8fly64YDEBwplYva54rU4Q2a8bP/ld5eSsjlS6vvc+t1CoAAAAwMms6u8IHBNzrYtfNy7T9+78PWnW7w8AAAAAx99xfiJQx264VBfIV+PvWYnI+/qx+3cMAAAAgGXGE4HjYhG/JAwAAAAcRzwROMauv+lTzrr9z91LCAAAAEDNOH5PBAAAAADUDJ4IAAAAAHWIIAAAAADUIYIAAAAAUIcIAgAAAEAdIggAAAAAdYggAAAAANQhggAAAABQhwgCAAAAQB0iCAAAAAB1aHmDgGHI8G8DAAAAUHOWMQhsUvxr39bffSOuTf4mAAAAADVlGYPAHqW/aWv8nJi+erKHgc6UbDuluH87AAAAsEIsYxCQtOfvlPjygMbPiemW5MdO7jAAAAAArGDLGwRUCQMTGzsIAwAAAECNWv4gIG8Y+OJXY4QBAAAAoMasCgQCr/k3LptNMd36xbjO25PUx27N+lsXFO+zFVNGZlfatTUia2dCzXuS6tiWder120OV5nFv/0jvgBKtrrWMPO1xpeyYKnsXlNveIWu4vEEqXUew9C6vzKAUa5cyZrfKZ4paGugJV1ZN8l0HAAAAUEuOzRMBH8M4279pUdKjeSnY4p2U2xlTuCGvoW1ZZ/DdHlBuuynTNGWaGeVdXeN9thKtk8qYVdqjlgbsmAIjyWKbKXNwUuEeW6lO7zFiTTklS322T6vNHTxUCgHNGitfR1K5ppjsPqYTAwAAoDYduyBQfBrQPJ3RzTcP+FsXp39UeYXU4h6Yt4Sk8VHnTnywUYYmNVG+g59Wd+kufNRSW7Cg3HbXXXtXe7w9LGM84zxVKOnvVmZcCrUUB/ClY/RbKvcattQx6I4bzrE0ssP1JCEra7hKiAEAAABqxLEJAu4Q0JXWHn/7oqWVGSlUBuaKqyVYUG6wOLTvzyg3E1LMtjXQG3Hv6ISEmTFlfWU+jog2Nkn50dmlO+nRvNS0UREtdIwS51hGa0K2bVde/qcGAAAAQA1Z/iCwbCHAkX1wTIXSnfXOFoU8A/OsrOuckp/J4kB8ViA4TvKDpbIg98v9NAIAAACoHcsbBJY5BEiShrMam3HKg+ItIRX2ZCtlOmVpdZumkiMFGZsizt388WkVGpoVifr7SlJWE1OuEiCXeEtImpqonKPKMSLnBFzv5j4WAAAAUKuWMQicrfgfx9U8beuWLxx5CIj0Dvh+tdeptw+1pNQSLE4SLulMeSb2egxbGho3FO5xHyuuVHECb3owp0Iw5n2C0JlSbFbpkaFwp+WECznzBra6VyEqT2qOea8lail1gp5OAAAAAAtZ3uVDjUY1alrTBX/D4jnLfU56l+YsLfPpX5LTv3ToTE7J61wTe2ct/emU8HT3F9/4l/xU3ndelZcrDTcU387klBxuVMK/fKj/WqoeCwAAAKgNyxsEAAAAAKwIy1gaBAAAAGClIAgAAAAAdYggAAAAANQhggAAAABQhwgCAAAAQB0iCAAAAAB1iCAAAAAA1CGCAAAAAFCHCAIAAABAHSIIAAAAAHWIIAAAAADUIYIAAAAAUIcIAgAAAEAdWt4gYBgy/NsAAAAA1JxlDAKbFP/at/V334hrk7+ppmzQ+z6Z0CejG/wNK8Zlf5hQ4g8v82+eX8tHlEh8REvcCwAAACepZQwCe5T+pq3xc2L6as2HAQAAAKC+LWMQkLTn75T48oDGz4npluTHCAMAAABAjVreIKBKGJjY2EEYAAAAAGrUqkAg8Jp/47LY9DElb+nQ2fm0br05oz3+9rkE3qdP/vegxv/+YZ31339X5xU3H/jZHfrb4f2erhuin9QNb19f2fDUj5T8p93uLsXjXa5SrwM/+5HGQ7+rYN57vMv+MKHfPb/07oAe/fu/1Y8ny81zuuwPE/pd/Ug/0u+W93euVXrfJ2/Q5cUTV7t+tXxEibbSJ5R04FHd8bc/lrfXZfpIovI96KniuVT6rBv0vk/eoLP+36S+N1rZa0P0k7ohNF45XstHlGiTfpT8nsrfkO+7mfX9+a/P3w4AAIAV69TXv/71ln/jspga1dD/+a3CZlwfunSfMg886e9R3euDekfLBbqgZa0eTv6tBnft0q4Xz1V0y1t1xvjP9KsXnW6X/WFC1zTv149KfXb9h874b9fomnecof/42a9UUGWge2Aoqb/N7NKuXbt0KHyDtpwtHfzPf9fPflUoH+t39SMl+we1a9cu7XrxLbomttlzvrmc/Tub9Zbz36K1I8VzvHiuolverc2b36pDP3Vv817/hugntXXL6Xr07/9a/zDkXNsLoWt0zQfO1Qu7flEMA04IWP+zO/TX//Cv2rVrl/4j8Ae6pvl06UBeux7bL8lQ8B1v1eue3qVfPFO5LuPCd+itb5jWv5e+i7N/R5tDUr507HLgKp2/+P2FXnCOG3ifPhl7k8bK7S/o3N+RfvGYL8wAAABgRVr+0qAqDONs/6YF7R1y3bkezerRA+sVvLS40k/gfXrX+Qf06N+7+mi/fnzXozqwPqjLAs6Wy668XOuf+pHnTvnuf7pDjx6ovHeOtVc/ct/p9p9vIe5zjGad48/a5j7eZYq8fb32DnmfOuz+px9pr85Tc4vzfkP0XTrvwKP6F9eThP3Df6sfPVXZ50hdduXl0s/+xXX+/frx/7tXOr/ZWVlow1larwPaX27fre/xNAAAAOCkceyCwKaYbv1iXM3TGd1884C/dQEH9Nx8N543nKX1B8a121+6M7lb4wfW66wNkrRBG86U9v5ygcHrhrO0XufpdxMJJcqvSknPkTrwnOv2vF9gg9Zrr8ZcAcWxW2NPSeubnMBw9lnrdSC/21cqtByc72b9229wfeaEtwxoNKtHDzjfy0peahUAAADVHZsg4A4BXenFzw84UQ48qjuSSSV9r1k1/SeZvUOzP3OyPIdgv378t0klkz/SgWJgIBAAAACcPJY/CByPELD/OU8JUFngMgXXe58mnHeJ/ye0ztZZ7rv9cx3rWJrcrwOuEqCKy9R8vnRgqvIB1ocuk3f47dzN9ys9RSg52/Mh/fZr//PVvptqdut7yaTu+NmBKtcCAACAlWp5g8DxCAGSNPljPfzUel3+392/lLtB7/vQ5Vr/1MPFuvdSzfvv6iOuAfdlf+hagUeVcqLLP/Q+zyD3sj88lr/Cu1vZnx3QeW2f1PtcAeSyP/xdnXfgUWWLJUO7H3hUB9Zfrj9w3YnfEP0DX9nSfu3OH9D6t0cq19vyEdcKSNXt/uXs70aB9+kjpXO1fMTbBgAAgJPKMi4ferbif5PWB1+xdcsXbte/OwvyLF15NRv3RFpnicz5l/xc3BKde4fu0HP/X/+xnOO7B9hVj1VFecWh8kTaatdabduRLn96hx4+64aq5yxf/1M/0h3PvWvh5UP9y4Nqb6Xd31Z1aVMAAACsVMsYBCQZjWrUtKaPNAQAAAAAOC6WNwichPxPHSpcd88BAACAFYYgAAAAANSh5Z0sDAAAAGBFIAgAAAAAdYggAAAAANQhggAAAABQhwgCAAAAQB0iCAAAAAB1iCAAAAAA1CGCAAAAAFCHCAIAAABAHSIIAAAAAHWIIAAAAADUoeUNAoYhw78NAAAAQM1ZxiCwSfGvfVt/9424NvmbAAAAANSUZQwCe5T+pq3xc2L6aq2Egc6UbDuluH+7R0TWTlsDvRHPe7tv/r0AAACAlWwZg4CkPX+nxJcHNH5OTLckP1YbYQAAAADALMsbBFQJAxMbO1ZoGMjKus6U2ZX2NwAAAAAnjeUPAvKGgS9+NbYCwwAAAABwcjs2QUClMJDW3o1xffGLpfr7RYhaGrAHZEWLtfp28eWp2XfaUp2uTZIivQOyd1qafba4UqXj2O75ANX45wwUt/YOVK5l1vUAAAAAK8uxCwIuhnG2f9MCDIV7tkr9pkzTlGlmlA/GjnDwHVLMbtGoWTzW9pzUmpg10J9PvM9WonVSmdIxzIzy/k4AAADACnLsgsCmmG79YlzN0xndfPOAv3VB+cEOWcOld2l1D+alYMsCKwBVU1Bue7fKFf/DlnaMFGRsilR5clBF1FJb0HcMpdXNHAIAAACsYMcmCLhDQFdae/ztCypoety3aXxaBQW0MerbvqBJTZQDhSO7b1JqaFTIu7m6YKOMmTFlfccAAAAAVrLlDwJHHQIAAAAAHGvLGwSOYQiIbGmedWc+cI63uCfUZHjezyXeEpLGR12lPvMYn1ahoVmRJT+JAAAAAGrXMgaBsxX/47iap23d8oWjDQGGwj2uXwSOWtraaqiwJ6usJCmr7J6CjNZYpU9nSrFg6Y1bSDH3SkLFfvnRRcUAadjS0LjvehRX6ogmLgMAAAC1YRmDwDNK/+nHFP/C7fr3gr9tqQrKDU6rrbRUZ09YGkmqY5sTAyQpu22HcjMhxUp9WkaVHKl24rwyw41KlPq1h5QfNNXd7+83t3SXqcy461x2TFpskAAAAABq0KpAIPCaf+MJFbU00NOsse3uVYMAAAAALKdlfCIAAAAAYKUgCAAAAAB1iCAAAAAA1KHamyMAAAAA4JjjiQAAAABQhwgCAAAAQB0iCAAAAAB1iCAAAAAA1CGCAAAAAFCHCAIAAABAHSIIAAAAAHWIIAAAAADUIYIAAAAAUIcIAgAAAEAdIggAAAAAdWbtmtUEAQAAAKBerFq1Sheee5be23oRQQAAAACoB6tWrdJbznujfif0Jr3u9LVHGQQ2xZX8Rpc2G/6G2YyrbtaOv/yYNvkbAAAAABxzxhlrde7Z67Vm9amSpFWBQOA1f6fFMs41ddPXPq2WwpCSf9KnXQV/D4dxVUJ9N0a09pE+ffrWIc3RrexLf3GTrr6g8v7Je27TR+6QdOVV+vFngvrlPeO65AOXa5326gfXDujPJemGDo184LzKTi88qtQn79M/VLYAAAAAdSvQ1KDLm8/V6WvXSEc7Wbjwa1vWZ2/XqNGmxNerPxlYagi4/qZP6eqzHlXq2tvUeu1tar1nr6/HeoWvlL597W1qLYaA62/6lEY+sF65vynuc+13lXvOtxsAAABQx045ZZVWaVXlvaf1SEzZsj7dVzUMOCFgs/TQ4kKAJF141nrpuWcqd/LvGHCeBrg8+YD7Tv9l+oN3rNeT93xLNz5Q2rZfN36epwEAAABAyW9fOqSXD79Sfn/0QUCSCkOzwoBxRZeSN26WHrpdXbctLgRI0p/f/aheuOD3NHLnp/TNK/2tknRAU79yvb3ybJ2lvRr1hQUAAAAAFQde/K2e/a8X9OprzsyA5QkCqoSB3OltSnw9peRNEen+5JJCgCTpgfv0vmtvU+s9BxT+zE3zBAIAAAAAi/Xqq6/pP/ZOaWr6Rb322mvLGATkhIGvfqZPuTUBvXx/Uom/2rW0EOB2x4BT6//Cel3yrg3+1ooHntFzOk8tN/gbAAAAALgVfntQ//Z/9uqJvc8ucxBQMQzEO9R9hCHgS3/RoS/5N85rt/7lkQO64APuJwcb9M2/uErXezsCAAAAde/lQ4f1i//4z6NbPvRY8C8d+sIj39X7btvvvCktH/o37onBjutv+pS637G+/N6zHwAAAACPmgsCAAAAAI695S8NAgAAAFDzCAIAAABAHSIIAAAAAHWIIAAAAADUIYIAAAAAUIcIAgAAAEAdIggAAAAAdWiVPv9/+B0BAAAAoM6sWn3FDQQBAAAAoM5QGgQAAADUIYIAAAAAUIcIAgAAAEAdIggAAAAAdYggAAAAANQhggAAAABQhwgCAAAAQB0iCAAAAAB16PgEgS1/pH/7+z/W1nP9DbNdcP3ntPvbH9Pv+xtqyRe/pkO7vqZv+bcDAAAAK8RxCQIX/OaApt8Q1l9unz8MXHB9jx745KU6c2ZKY/5GAAAAAMtm1eorbnjNv/GY2HS1hrZfoytezOlPe/5KO37tbXZCwFuln9+pK//vH+pJb3NVn/3rHfrLt7+u/P75n92pN/6PH1Y6fPFrOvTBcyrvn/qJ1nz02wu36Y+0e9d7tKnU9uJj+tO2/6lvSPrWP35Xnzi/spu0T9/Z/AV9qkrbnrs/rstudfcFAAAAasNxeSIgSdrzA7V96k499PrZTwZKTwI0svgQIP2R/uisf9OazR93Xn2PSW+/Vru/WGy+9nN69oNn6v6+Yvvmn2hPadf52oohQHeX2j6u7zx3qf5y6HP6rKRPffTjWnP3vmIA+LjWFEPAZ/96hz5x1mP609L13L2vfEQAAACg1hy/ICBJv/7hrDBwwf/1x/rXT14qjXxfV/7pYkOAJH1bl5Xv4Eu6c1SPvigF3lScXRA6U2fqeT15Z5X+87R99q/fqU1P/cRzJ/9T//KYnn/9Bfr9ayvb/JrPep303LP6RmnDrV/gaQAAAABq1vENAnKFgTPC+svtX9O/dr1VevDOJYaAkj/S7l3f1aFd39WhXdfqva93Nd36U93/4jn6xK7v6tm/9k09nqet+azXSee/p3jM4qvrUp3p6TXbp/7lMT1//nt0aNcODc0TGAAAAIBacPyDgIphYOudemjtmXrpwTv1/i/dt+QQ8Nm/3qFDnhKeO3X/i+4eP1Rbm1P2M/n2a3XIM+ifr82Za1AuOSq/tqqt/AShijv/p964+eNac/fzem/XdwkEAAAAqGknJgioGAbat+qyIwgBkvT7F79Oz//szkWU33xbl23+uP70Z7/RmRe36LMLtI09V63fEtz6hWIoeZ0u31LTi6ACAACgjp24IHCUnnxOOvOsN5Xff/avr/aWBn3xa5WJw37ztH3jwSf1/Osv1c2ekqE/0u5//KPK2/zzel5n6gLXHf9v/SO/KwAAAICV4/gtH7rsvEt8Pv+zn+jRi9+jyx8vLiHqXx7UtQTovG0qrirkmRfwG93f5y0NqiwV6iwfKt/SobOWMgUAAABqyAoOAgAAAACO1IotDQIAAABw5AgCAAAAQB0iCAAAAAB1iCAAAAAA1CGCAAAAAFCHVunz/4dVgwAAAIA6syoQCBzXIBCJRJTNZv2bAQAAABxHlAYBAAAAdYggAAAAANQhggAAAABQhwgCAAAAQB0iCAAAAAB1iCAAAAAA1KETv3xow8364tVv1zp3pzm88O8p3br7Af9mAAAAAEtUM0HghYdv0T8/7e452+FD49p/uODffEzE+2zFmnJKXmfpmP3qQdTSQE9Yk4Omuvv9jQAAAMCxUzOlQYcP7ta+l1/0b/ZYvSaoc864rPi6WOtW+XtUE1fKtpXq9G8HAAAA6lfNBAFJ0jkfVbTBv3EOb/6oPriYeqIjlO4yZS7n04DOlGw7pbh727ClDpOnAQAAADj+aisISDr8293aV+116EJdcUVCn7giqnUv7da+g4f8uwIAAABYpJqZIzD9kw/rm7pZ1x74qu6cce9RtPE2/cV7LpQk7V2or0dcKTsmlevwI7J2JtS8J6mhpoRiwWK3Ge98gHifrZgyMrvS5SNFegeUaDXK7/OzavudY4ddTzXyg6ZGW+zKeZytypjdSkctDfQ0a2x7h6zhUlv1Y7jPU7q25FSb63qKx6x0c6l85h3aOvc+nSnZ7VJm+7TaesIq95r1OZ3vNFR6O55RRrFZ3xcAAABqV809EShbZWi1+/0zP9Mvnzuk3z63W4/+p7vhyBitCbWMmjJNU6aZUb4hrK29EX+3skjvgBKbxpQ0i/tszynQ7p57EFfKTig8lSke05Q5mJdKZUaD+eLA25Q554C9yjGK5xnwX1swpq3aUeyXVG4mpFifp/BoFqM14drHVGY8pJi/XEkhxTqlHcU+yZGCQu3uPk4ICIwky8dJTrX5gg4AAABqXY0GgYsV3dIv68ob9IbSppf/Ud/54Ud1yw9v0UOHvb2PyHjGdZc7rcxIQcamiKpHgbhirVKu3zVnYNjS0LgUanGGyJHeNoVmckq674j3dy+p/r/qMYYt7ah2bTM57dhWupqsrOG8FGzxDep9xjPqKO8jpbsyyiukFs9E6oLnc2a3DXn6lK6xcm4pu61DmfHyWwAAAKwAJz4IzHxVt/79h/XNidIGQ5dc9qdqO3+NVp9/tf74XR8th4HVZ16jd66t7Ho0ClPO3fpFiW5UQIbCPbZsu/Jy3wUPNRkq7Mke1eTiuY6RfXBMhYbGSimOJE1NzOq3kNmfOa/pGSlwjjtiTGqiXKY021zXCAAAgJXlxAcBvzd9UR9765nlt2e85Rptvex9OuPMm/W5D35U13zoNkWXKQwsTamsx/eiJh4AAAArUI0FgUa9LXyxd26ApHVv3aovf/Dtzu8GnHGh2t5/sy451dfpWBqe0OSsEhqv/FSV8p0lmusYkS3NMmam5b+ff9SiETU3FDT24NLu78++xog2Nnk2AAAAoMbVWBCQNNePhLm3N75dH3vnua4Nx1pao+PyTZqVIr0pWVHn39ltQ8o3hJVwT9jtTFUmE49Pq6CANhb7V1P1GFFLW1sN5YeX8psGzo+o+ScYG60J1+TmiKzOsIyZMWXnKQXySw/mVPBNrI70bvWscgQAAIDaV1tBYOImff7vP7yo15f+6cZFLB26fNJdpVV2KnMEEk2jrmU/0+o2M8oHY5V5BO3SaGmy8LClofHSPAP/Sj0lVY7R06yx7f7lO49MYSSj6Wjp+hMKy7tk6qIMW+rYnpNaE+Vr3KodTBYGAABYYU787wjUqHifrbappGeVnZWr8jsCx+rzVPvdBQAAANSu2noiUDOoeV+auFqCUn6UEAAAALBSEASq6Ywp3JDX0DG6e76iRS0NeH64LCJrZ0yhmZwyy1C+BAAAgOODIOAS6R0o1vYHlNs+16//1rnhCU265zAc6VwDAAAAnFDMEQAAAADqEE8EAAAAgDpEEAAAAADqEEEAAAAAqEMEAQAAAKAOEQQAAACAOkQQAAAAAOoQQQAAAACoQwQBAAAAoA4RBAAAAIA6RBAAAAAA6tCqQCDwmn/jsRSJRJTNZisbGm7WF69+u9a5O83hhX9P6dbdD/g3AwAAAFiimgkCLzx8i/75aXfP2Q4fGtf+wwX/5vlFLQ30NGtse4esYX8jAAAAUJ9qpjTo8MHd2vfyi/7NHqvXBHXOGZcVXxdr3Sp/DwAAAACLUTNBQJJ0zkcVbfBvnMObP6oPLqaeCAAAAMAstRUEJB3+7W7tq/Y6dKGuuCKhT1wR1bqXdmvfwUP+XQEAAAAsUs0FgTm96Uq98xxD6865Uu8719+4VBFZO23ZduWV6vT3kSK9A64+A7I6LQ3YA7Kinl6LOlZZtHQM3359cU+3eJ+zzXsNKXl7lY5XOc5Ab1zWTlsDvRF/TwAAAKCsdoPAKkOr3e+f+Zl++dwh/fa53Xr0P90NSxVXyk4oPJWRaZrOa3tOgXbv4DnSO6BE66QypT7mkBrbwzKO4FizGQr3bJX6S8fOKB+MzQoDCsa0VTuKfZLKzYQUc/eJWhroCWtysHQcU0NNMYUXW14FAACAulWjQeBiRbf0y7ryBr2htOnlf9R3fvhR3fLDW/TQYW/vpYj0tik0k1OyK13ZOGxpx0hBxqaInOF7XLFWQ/nBblV6pdW9PSf3mkWLO1Z1+UH3KkZpdQ/mpWCL947/TE47tpVWWMrKGvb2ibeHZYxn1N1f2SXdlVRupvIeAAAAqObEB4GZr+rWv/+wvjlR2mDoksv+VG3nr9Hq86/WH7/ro+UwsPrMa/TOtZVdj0SoyVBhT1auBUwlSdkHx1RoaFRIkqIbFVBeo64BdjWLOlZVBU2P+zaNT6uggDa6y46mJmYduyKijU1SftQVQgAAAIBFOvFBwO9NX9TH3npm+e0Zb7lGWy97n84482Z97oMf1TUfuk3RowwDAAAAQL2rsSDQqLeFL/bODZC07q1b9eUPvt353YAzLlTb+2/WJaf6Oi1Sfqp62U5kS7OMmWnly1tCavFP+g02euYILP5YC3P2GVN2iT96FmrxTx8OqZE5AgAAAFhAjQUBSXP9SJh7e+Pb9bF3HtnSQdltQ8o3hJXwTbrd2mooP2w5pTjDlobGpVC7e5WeuFLt3mKfRR1LcaVs/+RhQ+Ee17GL+1QrM5pbac5AzLNKUbwvNk9JEgAAAOBYFQgEXvNvPJYikYiy2cUPd49a1NJAT7PGtrsn58aVst0D5oJynnZHvM9WLFh6l1dm+7Talnwspz0wklTHtmzlegbH1OxahahQai/t1WcrpoxM90TkzpTsdiljuiYxd6ZkuwJKfjCp6WhCzXu8xwMAAADcTv4gsJyqhoolWo5jzCsiaydBAAAAAPOrvdKgGnakdfzHVTSi5oaCxh4kBAAAAGBuBIE5xPt8vyDcmVLCU/tfAzpTvrkHcaV6wjLGh47R0wYAAACcLAgCc8hPSeEeW7ZdfLWHlB80PT/edcKNT0utico12jGFxn3zCgAAAIAqmCMAAAAA1CGeCAAAAAB1iCAAAAAA1CGCAAAAAFCHCAIAAABAHSIIAAAAAHWIIAAAAADUIYIAAAAAUIcIAgAAAEAdIggAAAAAdejE/7Jww8364tVv1zp3pzm88O8p3br7Af9mAAAAAEtUM0HghYdv0T8/7e452+FD49p/uODffPSilgZ6mjW2vUPWsL8RAAAAOPnUTGnQ4YO7te/lF/2bPVavCeqcMy4rvi7WulX+HtXElbJt2b5XqtPfDwAAAKgfNRMEJEnnfFTRBv/GObz5o/rgYuqJivKDpkyz+BrMK9ROGAAAAED9qq0gIOnwb3drX7XXoQt1xRUJfeKKqNa9tFv7Dh7y77p4/d3KjEuhlri/BQAAAKgLNRcE5vSmK/XOcwytO+dKve9cf+PS5acKUtNGRTxbvWVEA73eVkUtDbhLjHZanv3jfbbsvrjz3/L+EVk7bQ30xmXt9Jcmec836wnFAueTJHWmvGVPOy1FopYG7AFZ0Wp9U5odf0rXGFGkd8B1PF/f8nEX+J785Vil76Rv9pkBAABwYtRuEFhlaLX7/TM/0y+fO6TfPrdbj/6nu+HIhJoMaWpClWnLhsI9LRp1lQ8ZrVs9g+l4e6OGSu1mUjmFlfAPboMxtYw6fTq2uY7e2ib1O9uTIwWF2m3Zdpumt7u3eQfeC50v0jsguz2gXPEYpplUbkrScFZjM4aat/hiTktIGh9V2rO1wmhNaKt2lEuoMuMhxfxhYMHvKa6UHVNgJFk+TnKqTbGg5yAAAAA4wWo0CFys6JZ+WVfeoDeUNr38j/rODz+qW354ix467O29VJHeAcWCBeUGvUPi/GB3ZZDcn1HON5hOd7nalVV2T5WnCjM5ZfrdGxyFkR3lFYmy24aUr7otpBbXU4H5zxdXrNVQftC90lFWVpelrLKyhvMyNkVc1xZXS5XP7DGe8YSXdFdm1jVpge8p0tum0ExOO1zHyW7rUGa8/BYAAAA14MQHgZmv6ta//7C+OVHaYOiSy/5Ubeev0erzr9Yfv+uj5TCw+sxr9M61lV2XwrkD77wSrZPKmP6lQguaXsRgtVT24xzH8Df7njLMb3Lfwj3nPF90owLKa7RK6JAk9Y8q39CsSOlOfWeLQjNjys6zPGphKu/bktf0jBQ4xx115v+eQk2GCnuyi/4OAAAAcGKc+CDg96Yv6mNvPbP89oy3XKOtl71PZ5x5sz73wY/qmg/dpugRhAHPqkGm+077IhXr9WPKVEpeRo7BbxqUHPX50hodr9ypj7eElB+2GKADAABAqr0g0Ki3hS/2zg2QtO6tW/XlD77d+d2AMy5U2/tv1iWn+jodY5EtzTJmckp2LTlCHJEFzzc8ockqZTtu6cGctCmiiOJqCc7z9GAu0YiaGwoae3Bp8cFbkiRJEW1s8mwAAADACVZjQUDSXD8S5t7e+HZ97J3LsHTQEmT3TUoNjQqVNkQtba1WGrRMFj5fWpmRgkLt7tWBIrL6XCsLDWc1pmZFelsU8k0SjvfNXoXIaE24Vi6KyOoMy1ignMgvPZhToSGsra6VhCK9WxVe7O9DAAAA4LiorSAwcZM+//cfXtTrS/90o+6c8R/gGOrvLq6iU6zZ75SGllSqs0SLOF92W4eSI1K4pzSPIKHmKXd9flbZPVK4NTD/JOGiwkhG09HKscLKKXndEsuJhi11bM9JrYny3Iat2sFkYQAAgBqzKhAIvObfeCxFIhFls0saWuIoRHoHlNg0tsCAPiJrZ0LNe5KeVYOWU7yvON9hrlInAAAAHFe19UQAyyyiyKZaWMUnrpaglB8lBAAAANQKgsDJrDOmcENeQ8foLn9VUUsDnh9Zi8jaGVNojt9XAAAAwIlBEDgpxZWy7eKvDh/BUqlHY3hCk8FYeX7AEc81AAAAwDHFHAEAAACgDvFEAAAAAKhDBAEAAACgDhEEAAAAgDpEEAAAAADqEEEAAAAAqEMEAQAAAKAOEQQAAACAOkQQAAAAAOpQzQWB1asv1htO9W8FAAAAsJxq5peF37DhZv33LW/XOa9z3v923890z4Nf1b+97O8JAAAA4GjVxBOB1W/6qnraKiFAks445+265kNf1RWr3D0BAAAALIcaCAJv1x+87WKt9m+WpDMuVtvlv+ffCgAAAOAo1UAQ+P/o7LNcb1/cr/z4r8qvfS8ZOsPVDAAAAODo1UAQkOSepfDcw/rbXTdVXo99X791NQMAAAA4ejUwWdjQ297xTV3bbDhvn/qBPv/AL/UH7/u/9bb1rm6z/EpD/8/Nesi/GQAAAMCCauCJQEE//9kdeuiZQ65ta3WGsUZnvG6Bl2uPuQzYA7Kivo2dKdl2SnFJkd4B2X1xb3vUqrJfXCnbll167bQUcTf7xPtcfW1bqc65juu9HqnUr7LvQG9c1k5bA73znREAAABYvBoIApJe+7H+5V+36m937Vb+mf3+1qMyNmOoeYt7AB2RFQ2pMJJR2rV1fnGl7Jg0aMo0nVdmKqzEHGEg0jugWFNOyWJfczDvNAxnF76eqKWBnrAmXecaaoop3ODaBQAAADhKtREEJEnPKz9+i/728Xv9DUclu6cgY1OkMmCPRtTcUNDYg7N/y2Aukd42hcYz6u6vbEsP5lRoaFbEf3dfUqjJkKYmVD5Df3dx3+yC1xNvD8vwn6srqdxM5T0AAABwtGooCBwb2W1DyrsG7JEtzTLGh2QN+3vOLdRkSMGYp9TH7gmrOKthlvRgToVgTHaVMqD5ryeijU1SfnTxzyoAAACAI3HSBwEprdHxUjlORJFNxhENtAsjyXKpTuXVUT1QDFvqME2Zg5MK99i+QLA81wMAAAAcjToIAlJ6NO+U40Qjam7Ia9RVdiNJatrorfUPNnru9uenfOU8i9XfLdNMKuebF7DQ9YRafJOXFVIjcwQAAACwjOoiCKg/o5yaFWtvlnyThLMPjqnQEFass7QlrlR7yNWj0merZ9WeuFLl1YacFYVKq/rE+1wrAFUz5/VkZQ3npWDMWWWoKN4Xk/eKAAAAgKNTH0FAWWX3SKGgZk8SHra0Y6SgUHup/r9Fo9tzKvj6dGzPSa0J1zyBNk0PzlXSE1Ks3C+h5j1JdWxzn3ee6+nvljmYd12PrZZRJgsDAABgedXAD4pVY2jdaUGtmzemvKjp3/6qTn51OCJrZ7VAAQAAAByZeYfaJ05BLxzcrX2/ne9VLyFg9hKjAAAAwNGq0SBQxzpTvl8QjivVE17ykqcAAADAfGq0NKiOFX9Z2PMbBeMZmV1zzUcAAAAAlo4gAAAAANQhSoMAAACAOkQQAAAAAOrQcS8NAgAAAHDi8UQAAAAAqEMEAQAAAKAOEQQAAACAOkQQAAAAAOoQQQAAAACoQwQBAAAAoA4RBAAAAIA6RBAAAAAA6hBBAAAAAKhDBIG6EpG109ZAb8TfAAAAgDpzfILApriS3+jSZsPfMJtx1c3a8Zcf0yZ/AwAAAIBlsyoQCLzm37jcjHNN3fS1T6ulMKTkn/RpV8Hfw2FclVDfjRGtfaRPn751SHN0c4nI2plQuKGyJT9oqru/+KYzJbs9VGmcySl5naVs6X3U0kBPs8YGx9TcHpaTU/LKmN1Ke/YtbvPvt32H1Ok6/3hGZle5l2Ox17B9SI09MZV6FkaS6thW7iVJivfZigVL7wrKbe+QNVx825mS3S5ltk+rraf0WVzfR9TSgGu73Ofwt/mvEQAAACed4/JEoPBrW9Znb9eo0abE16s/GVh6CIgrZScUnsrINE3nNZgvt0Z6B2S3B5TbXmwzTWWmwkrYKcU9xzEUjko7TFOmmVRuJqSYbcuOTivp3tbn3UsyFO7ZKvWXjp9RPhiT7eq3pGvoadGo63MYrVtlRSs94n22YnJ/1kmFewY8faSQYp2lz2IqOVJQqL14rmFLHWZSuRknAJimWQwacaV6wpocLF1jUrkp9zEBAABwMjouQUCSNGXL+nRf1TDghIDN0kOLDQFSpLdNoZmcku478P3dxacBccVaDeUHXXfMJaW7MsorpJbOyjapoFx/6e53VtZwvvq2YItv8C7f8dPqHnT3W8o1SPlB1xOH/oxyM4aatxRr+aOW2oJ5ZTyf1ddH8l23lN02VPVcHtGNCqig6fHShqysLp4GAAAAnOyOXxCQpMLQrDBgXNGl5I2bpYduV9dtiwsBkhRqMlTYk60+YI1uVEB5jZZKhMrSGh2XAucsNFl2UhOuwXt17sFz0fi0CgpoY3Sp11DlWG7BRhkqPqkov7wlUY7FXLfPsKWhcUPhHtvzNAMAAAAnt+MbBFQJA7nT25T4ekrJmyLS/cklhYC6NJMrlip5X/55BEci3VUsCWqKOSGDQAAAAHDSO/5BQE4Y+Opn+pRbE9DL9yeV+KtdSw4B+amCjE0RVb23PzyhyaolMXG1BKXJfUc/eK4msqVZxsyYssPLfA3j0yo0NCvimQ+w3LKyrivOs6hSBgUAAICTy4kJAiqGgXiHuo8gBKhU/94QVsJ997ozpVSnJKWVGSko1O6dTBvviyk0k1NmVrnOkTAU7nFN+o1a2trqLldaxmsYzmpsxlC40/IEn3iff9LxQrKamJKMJtcqRlFLKX5XAAAAoO6cuCBw1NLqLq3UU6qbb1e5Jj+7rUPJETm178X2mDIyl21ZzIJyg9NqK527Jyz5lvxcvmvIyrouqZzCSrjmCbRNZSoTjBcpPZhTofidlX5YLNCa8HyHnqVSAQAAcFI6Lr8jcNIpr/3vXREIAAAAWClW8BMBAAAAAEeKIAAAAADUIYIAAAAAUIeYIwAAAADUIZ4IAAAAAHWIIAAAAADUIYIAAAAAUIcIAgAAAEAdIggAAAAAdYggAAAAANQhggAAAABQhwgCAAAAQB0iCAAAAAB1qHZ+WfjdZ+nj8YDWS1LhWd3741MUufosnT75tNKfe14FSTIMmakLFDzlgB74Xy/q4vibdbYkvfSc7v3ypB6f9B8UAAAAQDW180Tgp9P62eSpOu30tTrtrDdpy5uf16PPr9ZpF5yrq65xumz4zJvVvG6tXtozpZd+/1ydd/panXb6ar34i+cIAQAAAMAS1E4Q0Kva3b9X+yRJp+is1g06/ON9OqA1uviDAZ33O2fq/e8wpEP79cCeM/Xe4Bpnt8Izui99yHso1IGIrJ22Bnoj/gYAAAAsQu2UBhVt+NOL9fF3GJKkg088Lvvl83TN76zVwUOv6bQ1q7Tvx7/U3pZL9K43niLpkB7/3v/Rv3zff5TqIr0DSrQ6xy4pjCTVsS3r2baSxPtsxYK+jeMZmV1p38aTTUTWzoSa96zsvx8AAMCJUkNPBBz7/+ZpPV68wX/aRW9W8OdPa++hU3TamlOlZ/fqAQWKIUDS5K9136JCQFwp21aiaUimaVZe23NSU8jf+YhFegdk77R03O9Rj2dcnyujfDAmuy/u7wUAAACU1VwQUKGge4ee1WFJkqHL207VQz+dlvSSdg+9rMvf3VjqqH/7fnES8bwisnbGFBhJzr5LPmypw79txUurezAvBVtEFAAAAMBcaq40yLFGV/71pcU7/69o791PaF9gtZ4+9U265m1OaU/hF2P65raX/DvO1pmS3S5lzG7NO+TvTMmOTit5naVKoUlcKTsmDZrq7nf1a3c9RRjPyOzKy9qZULihslkzOdexnONU9ioot71D1nDpfanMJaOxTbHycfKDprr7vfs620r7FUuD5CsFiloa6GnWWPEc/vKhqseYo71qm2Z/p07Z1aRnW7zPVtuUq3TH/915viPXdQ+Oqbk9LEP5yvGilgZ6wioVdhVGnO+qamnQHH/zSO+AEpvGlLwuq8jOhBqHvd9Dpd1/TZXz1kfZFQAAqAe190RAknRID3xvnw5Ikk7VeW1v0DM/Xa1IMQTo0LN64DuLCAGS4i0haXx0/hCwWFFLA+0B5ba7ynAkSVlZ15lKjhScwa1pyiwNJqOWBuziE4lS+c7gpMI9tlKd3sMbrW1Sv9MnOVJQqN2Wbbdpung+Z1tq4Tv9wUYZmtTEsHP+lin3ufMKtQ/IijpdI70DijUVr7nYXjJnW/+o8gqppXz9EUU2GZJnW1wtQWlynzOkjvQOyPZ8d6YyU2ElbP/nMRSOSjtMU6YvBEwOVvYdaqoEpllmXZ8kxRVrNZQfdge9BZQDVem8SeWaKLsCAAAnhxoNApJ++qyyTxQnC6zZoA/+j406S5L0qvb99D+1e8LbfT6Fqcrg9qi4B9iSU4azwN3heHtYxnjGe9e6v1uZcSnU4h1QFkZ2lJ8SZLcNKV91m3+A6xO1NNAeUmEk4wyihy11e849qrwMNRbv8oeaDGlqojI47u8u3yWfuy2t0XEpcE5xNkQ0ouaGvPKebRsVUF6j/aoMwgfdT0GkdFem6ufxD9ZL36H77n26K6ncjKuTh3N9nu+3s0Wh8vUsTrw9LLm+fykra5iyKwAAcHKo3SAg6fHv7tXeYhZYveZU5x8v7NO/fusVT7+FGMs1Ibg/o9xMSDF7sctWRrSxScqPzg4L6dG81LRxwYnFpTvq8wrGZNu28yreOfcEj6ilgVK7p0RJSg/mVAjGZNuVpwSLactPFWRsijjXH2yUMT6q7tF8eVtkS7OM0pMYTyhw8wUKSVJB0+Out/N8h/Nxrr0yYI+3uMLRojjnNVoTle/Wtr2lTQAAACtYTQcBPTGj+0bct30P6fEfPqv9ri0LyU8VFjXgXhynBMg0M5osDhAXFwiOMc+qQbPr/21PeUupnKlo2FKHq1zJM+ifpy374JgKDc2KRJ1Bdn407TxtaGhWJOqUCi118L6shrMamyk9bYirJVjQ2IOLCFU+eVc5UuW1wHwTAACAFaC2g4Ck59JPa3dxaaDDTz6lexe1XGiFM2ANKzZfOU1JQ6PnbrlzJ7uatLqLNfvlu+JVZTUxNbsESKW5C+6ym2PCqdP3l+RU1d/t1MDPGGre4vtE1dqGsxqbMdQYjKslWLrbn9bouKHGYEiNDa4nAMMTmqxSAuSfRzCf2d9hSI1zzRGQJGWV3VNw9utsUWhmTFnfd+B9ElEshSqb+28HAABwMqj5IKDCS7r37v06qBnlvveCDvrbFzJsqWMwr1B7lbv3UUsDpYmfxQmmbeU+EVmdrtVi5KxG45/g65bdNzkrTJTKazzn7kwpFiwoN3is7yvnNT3jHfDG+7ylQfE+/2TdivnaygPt9phCrsnY+anitplp15OHtDIjBc8kZZWuZSanzKySIbdSXX7M8937P0ep/MndJ7ttSPlgi1ItId+8A+fajdZY5fN1pmb9MFt6dPZ5FbWU8v9/BAAAsALVfhCQpO/v172DE3rgEX/DIvV3e8p5KvX0zRorD8ad9fcrNeFbpX5fGY1UXMnHec1aatI1h6D8w2LDljq25yT3uduljLmIu/RHLSur33vullH/Zyper23Ltv2/1DtfW/Fpi7z1+6VthT1Zz9OO7LYOJUdULDFyXjFlKqsrzae/u7jaUWXfltH5JguXpDU6HlKo/MSiIrttR+VvZduyW0adVZ/cqpzX7mnUqH+5UgAAgBWoRn9HAAAAAMCxtDKeCAAAAABYVgQBAAAAoA4RBAAAAIA6RBAAAAAA6hBBAAAAAKhDBAEAAACgDhEEAAAAgDpEEAAAAADqEEEAAAAAqEMEAQAAAKAOEQQAAACAOkQQAAAAAOrQqkAg8Jp/4wnx7rP08XhA6yWp8Kzu/fEpilx9lk6ffFrpzz2vgiQZhszUBQqeckAP/K8XdXH8zTpbkl56Tvd+eVKPT/oPCgAAAKCa2nki8NNp/WzyVJ12+lqddtabtOXNz+vR51frtAvO1VXXOF02fObNal63Vi/tmdJLv3+uzjt9rU47fbVe/MVzhAAAAABgCWonCOhV7e7fq32SpFN0VusGHf7xPh3QGl38wYDO+50z9f53GNKh/Xpgz5l6b3CNs1vhGd2XPuQ91LEUtTRgD8iKzvG+pkVk7bQ10BvxN3jE+2zZfXH/ZgAAAJxEaigISHrief3rIwXn32vO0pWtv9F9v3hJMs5W+xfO0zl6Vft++pya2s6WIUk6pMfvntTe4i7VxZWybaU6/dtVHhhXbzt24n227J2WZg3Ho5YGql6rc50MzgEAALBcaisISNr/N0/r8eIN/tMuerOCP39aew+dotPWnCo9u1cPKKB3vbF42ZO/1n3f9+y+IqRH81JDo0K+7ZEtzTIkhVr8A/6QGhuk/Gjatx0AAAA4MjUXBFQo6N6hZ3VYkmTo8rZT9dBPpyW9pN1DL+vydzeWOurfvl+cRLzS9I8qr5BaPHf+I4psMlSYKUjBFnmiQGeLQsprtN+9EQAAADhytRcEJB284xnlnn3VefPGjbripWf08CO/1uO/82ZdXJoa8Iu9yv7Us9uyifQOyLbt8mt2qc5CiqU8cx4jr+kZ/53/kBobChobHlNBAW10zTmIt4Sk8VFVngcsdPxKnX+8z2mfe16AUzpVPta85UdzzTFwlV91pqqUPVUvzypdm/NaKfMsAAAATg41GQSkQ3rge/t0QJJ0qs5re4Oe+elqRd7mzAzQoWf1wHde8u6yTCK9A0psGlPSNGWapsztOQXaZw9i5xZXyk4oPJVx9ncdozKAziq7pyA1bawMmDtbFJoZU7Y/q7EZQ81bSi0RbWySClP54vvFHL8oGFPLqNOnY1vW2yYVjxVTYCRZPlZyqk2xoL9fiXPdxqaIZ6Af6W1TaCanzBKeWMT7bMXk+gyDkwr3EAYAAACOlxoNApJ++qyyTxQnC6zZoA/+j406S5L0qvb99D+1e8LbfSGhdu8ddOeVULjB3SuuWKuU67dUHjYPWxoa99+9n1tpUJzsctXzD1vaMeIdQGcfHFOhoVmR4sA33hKSpiaU9Q+2oxE1NxQ09qBzRYs9viRpgcF56Vg7XCEhu61DmXFPNw//dZdLmvZkK9/ZQqKW2oJ5ZdyfoT+jnCcAAQAA4Fiq3SAg6fHv7tXeYhZYveZU5x8v7NO/fusVT7/FyA8W7zx7XknlZlydohsVkKFwjzcwzH2HfLZQU/VBsTOAdk0QHnbf+Y+rJViZDOzuG9nSLGNmTNlhZ7dFH18qBou5zXWseQ1bGhp3DdijETU35DVU9YnDHIKNMhRSbN5QBgAAgGOppoOAnpjRfSPukfohPf7DZ7XftWX55ZWZFRhMme6718vCdec/ulEB92Tg4QlNFicTh5qMBQf0x1t6NF9++hDZ0izDM39hkWZylfIr16t6CRMAAACWW20HAUnPpZ/W7uLSQIeffEr3HsvlQl0D8COVn6pSolO+sz+tUqW/JGX3TUoNjVUG02mNjkuhlpTnSYGWePzFmH0sZ07CvPpHlW9oViTqlAXNWtbU/2QiulEB9/vxaV95EQAAAI63mg8CKryke+/er4OaUe57L+igv31ZFQfg7SnP8p2R3tSiJ7Fmtw0p3xBWwr36TtTS1lZD+WHX3AOVlhENqHmT4ZoM7EiP5qVgaNayoUs6/gLSgzkVGsLa6ppkHOndOqtEZ/YPoKWVGZGa22Nqlm8eQnFp1LbyMSOyOsPFH4ArKpZFhTu9qwvF+7zfOwAAAI6d2g8CkvT9/bp3cEIPPOJvWH7pLlOZcW/9eqJpVFaxRn9haXWbGeWDsUr9e0+zxrab6p41cTet0XFDhmsycNn4tPMbCbPKbpZy/AUMW+rYnpNaE+VjbdWOeScLl2QfHJOCIWnWHIO0ugfzMsrH3Cr1Z3xPKrKyrksqp7ASru+5bSqz9BIjAAAAHJFVgUDgNf9GAAAAACe3lfFEAAAAAMCyIggAAAAAdYggAAAAANQhggAAAABQhwgCAAAAQB0iCAAAAAB1iCAAAAAA1CGCAAAAAFCHCAIAAABAHSIIAAAAAHWIIAAAAADUIYIAAAAAUIcIAgAAAEAdIggAAAAAdYggAAAAANQhggAAAABQhwgCAAAAQB06PkFgU1zJb3Rps+FvmM246mbt+MuPaZO/4QSI9A7I3mkp4m8AAAAAVrjjEgSMF5/Ri01tSnx9/jBgXJVQ342b9foDz2jC3wgAAABg2awKBAKv+TceE02mrG98Wi2FISX/pE+7Ct5mJwREtPaRPn361iH5mmeLWhroadbY4Jia28MylFfG7FZakhRXyo4pVO5cUG57h6zh0vu4Unabpj3bpHifrZgyMrvysnYmFG6otGkmp+R1lrIqnTuscqYZz8jscs4sRWTtTKh5T0Zjm2IKN0j5QVPd/eUjAQAAACfccXkiIEmasmV9uk+jxuwnA6UnAXpokSGgzFA4Ku0wTZmlEBC1NGDHFBhJyjRN5zU4qXCPrVSnf/+5ZGVdZyo5UnACgGnK9ISAZo1tLx7bTCrXFJPdF/ccwWhtk/qdPoQAAAAA1JrjFwQkqTA0KwwYV3QpeeNm6aHb1XXbUkKAIz9cHKAXxdvDMsYz6tjm2trfrcy4FGrxDtaPRLw9LI3scD1JyMoazkvBFnmOPj7kedoAAAAA1JLjGwRUCQO509uU+HpKyZsi0v3JIwoBUkHT4+73EW1skvKjpTKdivRoXmraeJQTf53jG60J2bZdebVXipBKClN5/yYAAACgZhz/ICAnDHz1M33KrQno5fuTSvzVriMIASdOfrBUFuR+leYnAAAAALXvxAQBFcNAvEPdyxoCspqYql4CFG8JSVMTrjIiQ41Bdw/nbv/85j4+AAAAsJKcuCBwjKQHcyoEYxrodRUBdaYUCxaUGyzds09rdFwKRSu/ERDp3epdJUhSdt+k1NDoWn2oWGIUjHknHkctpdznAwAAAGrcSRcENGypY3tOctfxt0sZ07tUaLoro3xDWIlin63aoYxnvoGk/oxyMyHFbLvyw2L93TIH8wq1u+YI9DRq1D05GQAAAKhxx+93BAAAAADUjJPviQAAAACABREEAAAAgDpEEAAAAADqEEEAAAAAqEMEAQAAAKAOEQQAAACAOkQQAAAAAOoQQQAAAACoQwQBAAAAoA4RBAAAAIA6RBAAAAAA6hBBAAAAAKhDBAEAAACgDhEEAAAAgDpUc0Gg5RNvUGp7QF/+xKnlbY3vNvTl/xlQantAqe1NSvzhahmeveYRtTRg20p1+huOQGdKtp1S3L99WURk7bRl9x2bowMAAABuNRcEGs9tUPCiRjWf61zaps6A+m86T+FLGxW8qFHBi96o92w5zb8bAAAAgCWouSDgtUYd723UWr2iiXse17UfGtMNPeO6/a7fqODvOpdhSx2mqe5+f0Otycq6zpTZlfY3AAAAAMuuxoNAySl6/blrFDKk6ScO6u77XvN3AAAAALAENR4EDunuB2f0slapseVC3foPQX3zz05Xy6InCJTmCAzIivrfx5WybdnF10BvxLejFO+rtM85N6A4B6Hcz1Xj7+zv3S/eZ8veaWn22Zw5Au7r8J5/meY5AAAAALUfBKTcjqd1y7ee1vj0YenU07Sx9ULdmlynTf6OS2Io3NOiUdOUaZoyB/MyWrdWwkJxEB5ryilZ6rN9Wm3tIfdBnBDQ06yx7cU+ZlK5plg5DKS7ksrNhNRWGtx3phQL5pW5zlLWe6RZIr0D3vMP5v1dAAAAgCNW80FAkkbvmlH3DU/ohh3POHMDzj1T5tv8vZYmP9itcjV+f0a5GUPNW4oD9qiltmBBuX7XgH3YUodvMB5vD0sjO2QNl7ZkZQ3npWBL8SmA895ojSmuuFLtIe955xFqMqSpicr5+7tXwDwHAAAArBQ1EwQamyQ1rdHmC06XJL340quSpPdcb+j9FxU7PfOqXpQkvaqD0+Vdj0BB0+P+bS7BRhkzY8qWB/jVRLSxSTJaE57yHdv/1KC/W5nxkGJ2TKHxzKIH8+nBnArBmGx3WRMAAACwTGokCBiyvtOsu77zFm3esEp6eVq7vveKpNPU1n6eurY36667mnWH9Sadrdc0PbJf337Kf4wTIz9YKgtyv7x3/fNTi17jqKK42pE5OKlwj00gAAAAwLKqjSBw/mFNPDat8SemNf7zp3X7LZPFgf5BDX3/aeVKbY9N6u5vPaGtXzm0+OVDj1RDsyK+gXfknIDrXVYTU1KopeoU4oqopa2tk8qYGeWDsaVP+O3vduYeuEuXAAAAgKNUG0HgqYNKfm5S3T2T6v6zGd09Wmn6yZ0zuqXU9rlp3X7XK8c+BBTnDIQ7Xav7RC1tbfUuV5QezUv+wX3UUqq88k9cqZ6wNJJRWmllRgoKtVdWEZp7BSEp3jfHKkUAAADAMqiNIFBzsrKuSyqnsBKl2v9OaYd/5Z7+bpmDeYXaXXMEeho1ui1bXA40ptBMTju2OVN+s9t2KDcTUmyOwb9XSLHy3IOEmvck1VE8DgAAAHC0VgUCAX6dqyZEZO1MqHF4JfwKMgAAAFY6ngjUjJAaG/zbAAAAgGODIFAjIr1tCs3klOFpAAAAAI4DSoNOsHifrVhQkvLK+JYdBQAAAI4VggAAAABQhygNAgAAAOoQQQAAAACoQwQBAAAAoA4RBAAAAIA6RBAAAAAA6hBBAAAAAKhDBAEAAACgDhEEAAAAgDpEEAAAAADqEEEAAAAAqEMEAQAAAKAOEQQAAACAOkQQAAAAAOrQ8QkCm+JKfqNLmw1/w2zGVTdrx19+TJv8DUsSkbXT1kBvxN8AAAAA4HgFAePFZ/RiU5sSX58/DBhXJdR342a9/sAzmvA3AgAAAFg2qwKBwGv+jcdEkynrG59WS2FIyT/p066Ct9kJARGtfaRPn751SL7mquJ9tmLByvv8oKnucUsDPWG580ZhJKmObVnnTWdKdnuo0jiTU/I6S8VWKWppoKdZY4Njam4Py1BeGbNbaUmR3gElWitHzg+a6u4vvwUAAABWjOPyRECSNGXL+nSfRo3ZTwZKTwL00OJDQKR3QLGmnJKmKdM0ZQ7mnYZhSx1mUrkZJwCYplkOAZHeAdntAeW2F/cxTWWmwkrYKcU9RzcUjko7TFOmOwRsGqucb3tOgXZbqU7PjgAAAMCKcPyCgCQVhmaFAeOKLiVv3Cw9dLu6bltcCJCkUJMhTU1U7uT3dy9wdz6uWKuh/GCHrOHK1nRXRnmF1OIb0OeHXU8JFFesVcr1u7YNWxoal0It3ggBAAAArATHNwioEgZyp7cp8fWUkjdFpPuTSwoBkpQezKkQjMm2B2RF/a1VRDcqoLxGZ4WFtEbHpcA57onFBU2Pu95GNyogQ+EeW7ZdebnLkgAAAICV5PgHATlh4Kuf6VNuTUAv359U4q92LSkESKUSIFPm4GRxgL7IQHDE8sqUyoLcr660vyMAAABQ805MEFAxDMQ71H0kIcCtv1ummVRuxlDzlnmWCx2e0GSVEiAprpagNLmvUgg0y5z7AgAAACvTiQsCRyne55/g65bVxJRkNLlWB1JamZGCQu3eJwfxvphCMzllZpUMuTnlQ6F27zkjvalj/BQCAAAAODaO3/Khy8y/dKhniVCVlgF1lhF1t/mXANV4xlveU1o+dLt3UrGqnHPWvgAAAMAKsWKDAAAAAIAjt2JLgwAAAAAcOYIAAAAAUIcIAgAAAEAdIggAAAAAdYggAAAAANQhggAAAABQhwgCAAAAQB0iCAAAAAB1iCAAAAAA1CGCAAAAAFCHCAIAAABAHSIIAAAAAHWIIAAAAADUIYIAAAAAUIdWBQKB1/wbT6SWT7xB8cvW6r92P6tbvvOKJKnx3Ya6PrhOb1gjSYc18dDz2vFPh1Xw73zcRGTtTCg8lZHZlfY3Hie1cA0AAABYqWruiUDjuQ0KXtSo5nOdS9vUGVD/TecpfGmjghc1KnjRG/WeLaf5dwMAAACwBDX3ROA9f3aBEq1nqDDyH7r2K9KX/+EtCje8ool78rppxytae9Fp2nz+y7r7vuN12XGl7Jg0aKq7398GAAAArEw190SgulP0+nPXKGRI008cPI4hAAAAADg51fgTgUMKb32zvvCBBq2VpFcOauKRfbp9+0saXcIEgUjvgBKtRvl9YSSpjm3ZeftoPCNztEV2e8jdTflBU939Tn1+8x7vcaoew12/35mS3S5ltk+rrSesUk/nmJVu8T5bsWDlvb/dUeUaOlPe6/WfHwAAACiq+ScCuR1P65ZvPa3x6cPSqadpY+uFujW5Tpv8HecUV6xpSKZpOq/tOak1oVSnq0efrUTrpDKlPmZGeUnq7y7/Oz/otM0ekDtmHyOpXFNM9k5LEU/PkGKd0o5iv+RIQaH2lOLF1kjvgGJNOSVLxxnMe/aeU9TSQHtAue2+zwAAAABUUfNBQJJG75pR9w1P6IYdzzgrBZ17psy3+XvNJa1u913x4azGZqTAOcXhedRSW7Cg3PZuVXr59llI1WNkZfXnVGhoViTq7lxQrt9S6TlCdtuQ8gqppRhMQk2GNDVRbld/95zhwyPYKEOTmhgubVjiZwAAAEBdqZkg0NgkqWmNNl9wuiTpxZdelSS953pD77+o2OmZV/WiJOlVHZwu77oIcaVsW7Zty7YTCje4moKNMmbGlC0PoI/AXMcYzmpsxlCjq8xHnsH6bOnBnArBmGx7QJYnQCygP6PcTEgx29ZAr/cZBAAAAOBXI0HAkPWdZt31nbdo84ZV0svT2vW9VySdprb289S1vVl33dWsO6w36Wy9pumR/fr2U/5jVBfpHZBdXPWnXLIz4+9VQ4YtdZimzMFJhXvsJQSCrKzrnJKgydaEbAIBAAAA5lEbQeD8w5p4bFrjT0xr/OdP6/ZbJosD/YMa+v7TypXaHpvU3d96Qlu/cmjRPyYW2WSoMJKcu7xmfLpK+c4SzXWMaETNDQVNj/u2L0Z/dzG0GGrespQBfVrdxbkHxqaIb34CAAAA4KiNIPDUQSU/N6nunkl1/9mM7h6tNP3kzhndUmr73LRuv+uVRYcASZqYkoymyko6kd6t3tKgYUtD44bCPZUJu1Jcqb7Su7ym3XMKqql6jIiszrCM8SFZ85QC+cX73MfwivfZVSYfF3WmPBOgAQAAgPnURhA4htJdGeWDseL8AFtbNTSrNCjdZSoz7tTXO/1i0mhpom1W1nBeRrHcZq7B9uxjOEt7Ln35ztnH8C91OpdQe2k/W4lNY0peV5mUDAAAALjV3O8IYLGc3xFoHJ57SVMAAABgLif9E4GTV0iN7hInAAAAYAkIAitUpLdNoZmcMjwNAAAAwBGgNGiFiffZigUlKa+M6f4BMwAAAGDxCAIAAABAHaI0CAAAAKhDBAEAAACgDhEEAAAAgDpEEAAAAADqEEEAAAAAqEMEAQAAAKAOEQQAAACAOkQQAAAAAOoQQQAAAACoQwQBAAAAoA4RBAAAAIA6tCoQCLzm33gitXziDYpftlb/tftZ3fKdVyRJje821PXBdXrDGkk6rImHnteOfzqsgn/netKZkt0eUG57h6xhfyMAAAAwv5p7ItB4boOCFzWq+Vzn0jZ1BtR/03kKX9qo4EWNCl70Rr1ny2n+3QAAAAAsQc0FAa816nhvo9bqFU3c87iu/dCYbugZ1+13/eYEPA2IyNppa6A34t3cmZJtpxT3bj32+rtlmjwNAAAAwJGp8SBQcopef+4ahQxp+omDuvu+mqpmAgAAAFacmpsj8J4/u0CJ1jNUGPkPXfuVQwpvfbO+8IEGrZWkVw5q4pF9un37Sxpd0iOBuFJ2TKHS2/GMMooppozMrnS5V6R3QIlWo/w+P2iqu19S1NJAT1iVFqkwktRQU0KxoGuj8sqY3XKO6DvnTE7J6yxli2/jfbZiKl5H0Dlex7Zssfa/vJc07r3Gss6U7HZVzue/Rt/5AAAAALeafyKQ2/G0bvnW0xqfPiydepo2tl6oW5PrtMnfcU7OgDwwkpRpmjJNU8mpNt8AvhgCNo0pWexjbs8p0G4r1Slp2FKHmVRuxhmwm6apjm1ZpbtMmYP5YgAwZfpCgAaLxzJNZabCSuy05CksCsbUMuq0d2zLOoP59oBy20v7ZZR3959TXKmesCbL50sqN+XvAwAAAFTUfBCQpNG7ZtR9wxO6YcczztyAc8+U+TZ/r+oivW0KzeS0Y1vl3nh2W4cy4+5eccVapVy/6w76sKWhcSnUsvTq/0hvm0LjGedpQlF6MKdCQ7MiUVfHmZwyrj4KNsrQpCbKdf9pdVd7GuAX3aiACpouf6asrC6eBgAAAGBuNRMEGpskNa3R5gtOlyS9+NKrkqT3XG/o/RcVOz3zql6UJL2qg9PlXecVajJU2JOdf1Ac3aiADIV7bNl25eV/arBYoSZDCsY8x7J9pUWSpKkJ73X1Z5SbCSlmV5mUPJ9hS0PjxevvW3pwAQAAQP2pkSBgyPpOs+76zlu0ecMq6eVp7freK5JOU1v7eera3qy77mrWHdabdLZe0/TIfn37Kf8xjlapvMf3Wswd+SpKJUTe10Kr/GRlXeeUBE22JmQvIRCku4olQU3FAEIgAAAAwDxqIwicf1gTj01r/Ilpjf/8ad1+y2RxoH9QQ99/WrlS22OTuvtbT2jrVw4taflQY1PEW5uviDY2ud4OT2hSIbV0urYdhfxUoco5lyKtbtNUcmSpxykGicG8FGw5/kuaAgAAYMWojSDw1EElPzep7p5Jdf/ZjO4erTT95M4Z3VJq+9y0br/rlSWFAKc2P6ytrjvrkd6tCjd4eml0XAq1e38PINKbklWu6c9qYkoymlwr+kjS+LQKCmijq/Y/++DYrHNKcaUWukvfmXImJ1cR6R2Y+/cKopZSi3xyAAAAAKhmgsCxNGypY3tOKpba2LatrdrhmyzslNZkxp36/FK/RNOop5QnPZhToVj7Xy7ZcdfnlwbqVc5p222aHly4zCjU7jr/prFFLwEacJ/LvawoAAAAUEXN/Y7A8VJax/9I5wCccJ0p2dHpRQcFAAAAwO3kfyJQVVwtQSk/ukJDgKTIOQH/JgAAAGDRTv4gELU04KnNj8jaGVPIv4b/ihJXrNVQfpinAQAAADgydVAa5PzKr2eK70xuZZbURC0NFH+PoDCSdH6NGAAAADgCdRAEAAAAAPid/KVBAAAAAGYhCAAAAAB1iCAAAAAA1CGCAAAAAFCHCAIAAABAHSIIAAAAAHWIIAAAAADUIYIAAAAAUIcIAgAAAEAdIggAAAAAdajmgkDLJ96g1PaAvvyJU8vbGt9t6Mv/M6DU9oBS25uU+MPVMjx7zSNqacC2ler0NxyBzpRsO6W4f/uyiMjaacvuOzZHBwAAANxqLgg0ntug4EWNaj7XubRNnQH133Sewpc2KnhRo4IXvVHv2XKafzcAAAAAS1BzQcBrjTre26i1ekUT9zyuaz80pht6xnX7Xb9Rwd91LsOWOkxT3f3+hlqTlXWdKbMr7W8AAAAAll2NB4GSU/T6c9coZEjTTxzU3fe95u8AAAAAYAlqPAgc0t0PzuhlrVJjy4W69R+C+uafna6WRU8QKM0RGJAV9b+PK2Xbsouvgd6Ib0cp3ldpn3NuQHEOQrmfq8bf2d+7X7zPlr3T0uyzOXME3NfhPf8yzXMAAAAAaj8ISLkdT+uWbz2t8enD0qmnaWPrhbo1uU6b/B2XxFC4p0WjpinTNGUO5mW0bq2EheIgPNaUU7LUZ/u02tpD7oM4IaCnWWPbi33MpHJNsXIYSHcllZsJqa00uO9MKRbMK3Odpaz3SLNEege85x/M+7sAAAAAR6zmg4Akjd41o+4bntANO55x5gace6bMt/l7LU1+sFvlavz+jHIzhpq3FAfsUUttwYJy/a4B+7ClDt9gPN4elkZ2yBoubcnKGs5LwZbiUwDnvdEaU1xxpdpD3vPOI9RkSFMTlfP3d6+AeQ4AAABYKWomCDQ2SWpao80XnC5JevGlVyVJ77ne0PsvKnZ65lW9KEl6VQeny7segYKmx/3bXIKNMmbGlC0P8KuJaGOTZLQmPOU7tv+pQX+3MuMhxeyYQuOZRQ/m04M5FYIx2e6yJgAAAGCZ1EgQMGR9p1l3fect2rxhlfTytHZ97xVJp6mt/Tx1bW/WXXc16w7rTTpbr2l6ZL++/ZT/GCdGfrBUFuR+ee/656cWvcZRRXG1I3NwUuEem0AAAACAZVUbQeD8w5p4bFrjT0xr/OdP6/ZbJosD/YMa+v7TypXaHpvU3d96Qlu/cmjxy4ceqYZmRXwD78g5Ade7rCampFBL1SnEFVFLW1snlTEzygdjS5/w29/tzD1wly4BAAAAR6k2gsBTB5X83KS6eybV/Wczunu00vSTO2d0S6ntc9O6/a5Xjn0IKM4ZCHe6VveJWtra6l2uKD2al/yD+6ilVHnln7hSPWFpJKO00sqMFBRqr6wiNPcKQlK8b45VigAAAIBlUBtBoOZkZV2XVE5hJUq1/53SDv/KPf3dMgfzCrW75gj0NGp0W7a4HGhMoZmcdmxzpvxmt+1Qbiak2ByDf6+QYuW5Bwk170mqo3gcAAAA4GitCgQC/DpXTYjI2plQ4/BK+BVkAAAArHQ8EagZITU2+LcBAAAAxwZBoEZEetsUmskpw9MAAAAAHAeUBp1g8T5bsaAk5ZXxLTsKAAAAHCsEAQAAAKAOURoEAAAA1CGCAAAAAFCHCAIAAABAHSIIAAAAAHWIIAAAAADUIYIAAAAAUIcIAgAAAEAdIggAAAAAdYggAAAAANQhggAAAABQhwgCAAAAQB1aFQgEXvNvPJFaPvEGxS9bq//a/axu+c4rkqTGdxvq+uA6vWGNJB3WxEPPa8c/HVbBv/MKF++zFWvKKXmdpay/8TiphWsAAADAsVdzTwQaz21Q8KJGNZ/rXNqmzoD6bzpP4UsbFbyoUcGL3qj3bDnNvxsAAACAJai5JwLv+bMLlGg9Q4WR/9C1X5G+/A9vUbjhFU3ck9dNO17R2otO0+bzX9bd99XGZUd6B5TYNLbEO+gRWTsTat6TVMe2xe8FAAAALJeaeyJQ3Sl6/blrFDKk6ScO1kwIAAAAAFaqGn8icEjhrW/WFz7QoLWS9MpBTTyyT7dvf0mji50gELU00NOsscExNbeHZUiS8sqY3Up3pmS3h4odi9tK+3WmZEenfXf640rZMWnQVHe/c1c/3FBulGYqtfXxPluxYKUpP2iqu790PaXrcBRGnCcD8T5bMWVkdpWvwrmO8jV6zyG5Pt/2ITX2xFTqWTpmmf84477zFM26Bv/1+s8PAACAFanmnwjkdjytW771tManD0unnqaNrRfq1uQ6bfJ3nJehcFTaYZoyzaRyMyHFbNsZ6Lu39cX9O84jK+s6U8mRgjM4Nk2ZpQFy1FLLVFKmaTqvwbxC7QOyopKGLXWYSeVmnMG6aZpzlgdFegdktweU2148jmkqMxVWwk7Je6WGwj0tGnWdz2jd6pxPxcG85zgZ5T37zyWuVE9Yk4Ol/ZLKTfn7AAAAYCWq+SAgSaN3zaj7hid0w45nnJWCzj1T5tv8veZTUK6/dBc7K2s4X31bsMU3wD5Cw5a63YP7/lHlZajR9YRgYXHFWg3lBztkDVe2prsyyiuklk53Xyk/6Hqa0Z9RbsZQ85aI8z7YKEOTmigfJ63uKk8DZoluVEAFTY+XNmRldfE0AAAA4GRQM0GgsUlS0xptvuB0SdKLL70qSXrP9Ybef1Gx0zOv6kVJ0qs6OF3e9Qi5B8bHQNTSgG3Ltm3ZdqVkZ9GiGxVQXqP9/oa0RselwDnFQb4keQbrVfRnyk9BBnrd+y1g2NLQuKFwjy17SU9LAAAAUOtqJAgYsr7TrLu+8xZt3rBKenlau773iqTT1NZ+nrq2N+uuu5p1h/Umna3XND2yX99+yn+M2hHvs2X3NGtsyaU4x4pTxmSaGU22JmQvIRCku4olQU0xJ9QQCAAAAE4KtREEzj+sicemNf7EtMZ//rRuv2WyONA/qKHvP61cqe2xSd39rSe09SuHjs+PiTU0eu/kRzcq4H5fVVwtQc0q6Vmy4QlNVikBKh1/ct+RFOik1W068xqMTREtLgqoEiQGl7F8CgAAACdUbQSBpw4q+blJdfdMqvvPZnT3aKXpJ3fO6JZS2+emdftdrxyfENA/qrxCaivfOY/I6vSu9iNJ2X2TvsCQ1/SMt3Qn3ucvDcpqYkoymuYrGEorM1KoTDIuivfFFJrJKTOrZGgenSmlZgUKR6R3QPasycdFUUupRT45AAAAwMpSG0GgJqXVPZiXUSylse2tUn+VEh9X/b2901JEWVn9Oam8n62W0dn7pQdzKgSdcpu5ynSy2zqUHJFTo188VkyZyupESxBqrxxjKT+AFnB9Drtd3iVWAQAAsGLV3O8I4MSK99lqm+IXjwEAAE52PBGAS0Qbm/zbAAAAcDIiCKCiM6ZwQ15DPA0AAAA46VEaBEV6B5RoNZwfWdt+lKsdAQAAYEUgCAAAAAB1iNIgAAAAoA4RBAAAAIA6RBAAAAAA6hBBAAAAAKhDBAEAAACgDhEEAAAAgDpEEAAAAADqEEEAAAAAqEMEAQAAAKAOEQQAAACAOkQQKIvI2mlroDfibwAAAABOOgQBAAAAoA6dpEGAu/sAAADAfI5PENgUV/IbXdps+BtmM666WTv+8mPa5G8AAAAAsGyOSxAwXnxGLza1KfH1+cOAcVVCfTdu1usPPKMJf2MV8T5btl15pTolRS0N2AmFGySjNSHbdp4MxPts2X1x3xEWfnLgPceArKi71dl/7nYAAACgNh2XIFD4tS3rs7dr1Jg7DDghIKK1j/Tp07cOqeDv4BPpHVCsKaekaco0TZmDeadh2FKHmVRuRiqMJGWapjq2ZZUezUvBFnmiQDSi5oaCxh7MureWxftsxZRxjm+aMgcnFe6pDPbjfQmFpyrtyZFJ/yEAAACAmnRcgoAkacqW9em+qmGg9CRADy0uBEhSqMmQpiZUHsL3d6u739vHoz+j3ExILZ2VTZEtzTLGh2QNuzsWRS21BfPKdKUr2/ozys0Yat4SkRTRxiapMFUMIJKy27qrHwsAAACoMccvCEhSYWhWGDCu6FLyxs3SQ7er67bFhQBJSg/mVAjGllCOk1V2T0GhltIzgYgimwzlR10DfbdgowyFFHOVHtnFkiNHVtZwvlh+lPI+aQAAAABq3PENAqqEgdzpbUp8PaXkTRHp/uSSQoBUKgEqlessrj4/++CYCqXyoGhEzcopM99ThBlX6ZHr1bGt+Byiv7tYEhQoBgYCAQAAAFaG4x8E5ISBr36mT7k1Ab18f1KJv9q1tBDg1t8t00y6SnbmMWxpaNwpD4psaZb2ZCulRX7j0yo0NCuyQLiQpOy2DplmRnl5S48AAACAWnVigoCKYSDeoe4jDAHxvvnuvmc1MSUZTSF/g9KjeYVaLEU2ac5JwpKk4azGZgyFOy2540XlvBFZfd42AAAAYKVYFQgEXvNvXAnifbZiwcr7wkiyUrKj4jKiPWEZs9riStkxhcYzMt0TgRWRtTOh5j3uvs62yrwA97Fmt+UHzfknLAMAAAA1YsUGgSPnBAExaAcAAEAdO3GlQSdKZ4tCymuUEAAAAIA6VmdBICIrGlJhJKM5Fg0FAAAA6kLdlAZFegeUaDWkWXMDAAAAgPpTN0EAAAAAQEWdlQYBAAAAEEEAAAAAqE8EAQAAAKAOEQQAAACAOkQQAAAAAOoQQQAAAACoQwQBAAAAoA4RBAAAAIA6RBAAAAAA6hBBAAAAAKhDNRoEzpfxrg+r8V1X6bS1krRep731w2p814dlvMHfFwAAAMBS1WYQ2HCVLvzA1dp0VVhrX5akdyrwoau16QPv0brV/s7HW0TWTlsDvRF/AwAAALBi1GYQuOACrZOkZ55SQZI2nK91ayW9/LQK+/2dAQAAACxVDQWB87X+Dz6vC6//vEKbz5EkHV53qc6//vO68MPvdIKB3qwN139eF0bCvn2PFHf3AQAAUJ9qKAgYOiN0qQKXXKoNb1gjSVp95vkKXHKpAoHXOV3WrteGSy5V4HwnKAAAAAA4MqsCgcBr/o0n1ClXK2R9WBv0rJ7Y/ieaev5SBXo+rwvPlCb/Ja5fPXLIv8eC4n22YsHK+/ygqe5xSwM9YRmufoWRpIaaEoopI7Mr7WqJyNqZUPOepDq2yfXvbLmH9xwF5bZ3yBr27h9umKvdzd+3eL39kqK+a57JKXmdpawWaAMAAAB8aueJwOnnaPWZ52v1JRc4g9nfPKXC85JOeYuMMyXpWR38r3O0+sw3+vecV6R3QLGmnJKmKdM0ZQ7mnYZhSx1mUrkZJwCYpqmObVmlR/NSsEVx90GiETU3FDT2YPVhdbzPdsJD+RyTCvcMyIqW2hMKT1XakyOT/kMUxZWyvX3L16u4Uj1hTQ4Wt5tJ5aZc+83ZBgAAAMxWM0HgtOgX9M6er+idHy3e1X5dWG/bdoeusD6sDZKkN+r8T3xF7+zZqvX+necRajKkqYnKnfH+bufu+lz6M8rNhNTSWdkU2dIsY3yo+h38qKW2YF4Z9xOE/oxyM4aat0QkRbSxSSpMlQb0UnZbd9VjRXrbFJrJKek5VvF6oxsVUEHT46WGrKyu0tOAedoAAACAKmomCBzafY/23PMDPV28k30w/xPtuecHeuKXB5wN+/9de+75gfbc86/6jWfP+aUHcyoEY7Ltyh36+WWV3VNQqKX0TCCiyCZD+VF3qZBLsFGGQorZtuzyy13ak5U1nJfRmpBtp7xPGnxCTYYKe7LVB/DDlobGDYV7bNl9vqPM1wYAAABUUTNB4NWJH2r64Sd0eK3zfvrnaU0//M86eNiZKFx48j5NP/zPmn74IS1plsCwpY5yuY69qECQfXBMhVJ5UDSiZuWUme8pwoyr9Mj1Ks8h6O8ulgQFioFh/kAwl3RXseynKeYEDtegf742AAAAwK9mgoAk6fRLZTRI0rN64SlJulTGm5wVhF6Y+Hdf5yXq73YGyuWSnXkMWxoad8qDIluapbnu0kvS+LQKDc2KLBAuJCm7rUOmmVFe3tKjkvxUQcamiOa/uqys64pzB/xzGeZtAwAAACpqLAg8qal7fqA99/yzDjwvSQW98PAPtOeef9S+X/o7L068b76771lNTElGU8jfoPRoXqEWS5FNmnOSsCRpOKuxGUPhTsszgK+cNyKrz9tWEVfKrvyOQXbbkPINYSXcd/M7U0p1OnMRUnP93sF8bQAAAEAVtbd86DLzLx1aGPEu++ledtPbFlfKjik0Pt9SoqW+s5f8rBxrdlt5OdDiOQLVzlvprYzZrbR/edDSdlVZOtTdBgAAAFRx0geBI+cMyFUetAMAAAAnj9oqDaolnS0KKa9RQgAAAABOQgSBqiKyoiEVRjKU1wAAAOCkRGmQT6R3QIlWQ5o1NwAAAAA4eRAEAAAAgDpEaRAAAABQhwgCAAAAQB0iCAAAAAB1iCAAAAAA1CGCAAAAAFCHCAIAAABAHSIIAAAAAHWIIAAAAADUIYIAAAAAUIdqNAicL+NdH1bju67SaWslab1Oe+uH1fiuD8t4g78vAAAAgKWqzSCw4Spd+IGrtemqsNa+LEnvVOBDV2vTB96jdav9nY+RzpRse0BW1P0+pbiv22LF+2zZOy1F/A1LFbU04L4uAAAA4AjUZhC44AKtk6RnnlJBkjacr3VrJb38tAr7/Z0BAAAALFUNBYHztf4PPq8Lr/+8QpvPkSQdXnepzr/+87rww+90goHerA3Xf14XRsK+fecTkbXT1kDvEu/F93fLNDtkDfsbjky6y5R5naWsvwEAAAA4AWooCBg6I3SpApdcqg1vWCNJWn3m+QpccqkCgdc5Xdau14ZLLlXgfCcoAAAAADgyqwKBwGv+jSfUKVcrZH1YG/Ssntj+J5p6/lIFej6vC8+UJv8lrl89csi/x7wGbFuG631hJKmObVlJcaXsmELllrwyZrfSpbedKdntqmxzv/e3SYr0DijROunZFu+z1TblnC/eZyumjMyudPEpRULNe5IaakooFizuMJNT0vfUwDlu6RMUlBscU3N7s8a2z/O0ojMlu73yydzHjffZlfNJyg+a6u53/j1fGwAAAE4utfNE4PRztPrM87X6kgucgftvnlLheUmnvEXGmZL0rA7+1zlafeYb/XvOq8NMKjfjBADTNIshQIr0tmh6uynTdF6Z8ZBii53M2z+qvEJq6SxtiCiyyZA82+JqCUqT++YuBjJaE2oZLV1DRvmGsLa6Spgq4aLUZ0iN7WFPsPGL9A7Ibg8oV/5sSeWmKm2xppySpeMN5j37zdUGAACAk0/NBIHTol/QO3u+ond+tDjQfV1Yb9t2h66wPqwNkqQ36vxPfEXv7Nmq9f6dj0B2W7fnjnp6NC81NLqeEMwnrdFxKXBOcdAejai5Ia+8Z9tGBZTX6Hx31MczrjvuaWVGCjI2RYphJK5Yq6H8oOsphdLq3p5zJlBXVdrH/bQgK6vLeRoQajKkqYnKE4f+7vL552sDAADAyadmgsCh3fdozz0/0NPFu9cH8z/Rnnt+oCd+ecDZsP/fteeeH2jPPf+q33j2PHKR3gHZtu283KU0i5Cfcg3ag40yxkfVPZovb4tsaZYxPuoaxM9WmJrnrvtigoTfAvukB3MqBGPeZVEX0QYAAICTT80EgVcnfqjph5/Q4bXO++mfpzX98D/r4GFnonDhyfs0/fA/a/rhh7S0WQLVxJWybSU2jR1xKUz2wTEVGpoViUrxlpDyo2mnZKihWZGoUyqUH50vBpwAw5Y6TFPm4KTCPbZ30D9fGwAAAE46NRMEJEmnXyqjQZKe1QtPSdKlMt7krCD0wsS/+zofhc4WhZRX5miW8xzOamzGUGMwrpZg6S58WqPjhhqDITU2zH1nfvHccw6Kgo1zzxEYntBktX38+ruduQMzhpq3+GZFzNcGAACAk0aNBYEnNXXPD7Tnnn/WgeclqaAXHv6B9tzzj9r3S3/nxcpqYkoymlylP+PTKiigjeU73nGlllgaJGWV3VNQqD2mkKsEKD9V3DYzraU9Y/AZtjQ0LoXa3b9mPPs6nfKmUh9nnkGo3X03PyKrz5kEHe+b+5eR52sDAADAyae2gsDzD/nKf55S4eF/1vTDP9TBl/ydF69S/178YbFhSztGVCyBsWXbLRpdYmmQSuVBkqcEqLStsCd75E8bitJdxdWMSvMY7BaNzjtZWMpu61DS89kSap4qXYv7WM7ypaVVlOZvAwAAwMmm9n5HAAAAAMAxV1tPBAAAAAAcFwQBAAAAoA4RBAAAAIA6RBAAAAAA6hBBAAAAAKhDBAEAAACgDhEEAAAAgDpEEAAAAADqEEEAAAAAqEMEAQAAAKAOEQQAAACAOkQQAAAAAOoQQQAAAACoQwQBAAAAoA4RBAAAAIA6dPIGgc6UbHtAVtTfAAAAAODkDQIAAAAA5rQqEAi85t+47DbFlfz/Gfp/vtSnXQV/o5dx1c1Ktk0o9ad/pz3+RgAAAADL4rg8ETBefEYvNrUp8fUubTb8rRXGVQn13bhZrz/wjCb8jQAAAACWzXEJAoVf27I+e7tGjbnDgBMCIlr7SJ8+feuQFnhwoIFq9f+dKdl2SnH/v0uilgZsW3bp1VdqjcjaaWugN+LqHFfK9m2LWhpwHTPe5zqWbSvVWekKAAAA1LLjEgQkSVO2rE/3VQ0DpScBemhxIUCSxmYMNW9xD9wjsqIhFUYySru2lkUtDfQ0a2y7KdM0ZZpJ5ZpixTCQVXZPQcamiMpH7GxRSPJsi2xpljEzrbykSO+AYk05Jc3i8QbzlXMBAAAANe74BQFJKgzNCgPGFV1K3rhZeuh2dd22uBAgafbAPRpRc0NBYw9mvR2L4u1haWSHrOHSlqys4bwUbFFcUvbBMRUaGhUq9W8JqTCe92wLNRkq7MkqW/y3piZUPlt/t7r7S28AAACA2nZ8g4AqYSB3epsSX08peVNEuj+5pBAgSdltQ8o3NCtSLA+KbGmWMT7kGui7RbSxSTJaE55SHru9NMSXNDyhSYXU0lnqX9DYYEZjM6VtcbUEK0EjPZhTIRhjiVIAAACsSMc/CMgJA1/9TJ9yawJ6+f6kEn+1a0khwJHW6HipPCiiyCZD+dGqRUFl+cFSWZD71V0sJUprdFwKtcSdpwsaU3bYKRkKtcSdUqGZMWVLQWPYUodpyhycVLjHJhAAAABgRTkxQUDFMBDvUPcRhQBHejTvlAdFI2puyGt0ztKcrCamioP8eaRH81LTRsW3NEvFEqDsg2MqNG1U/JxAuSzIo7/bmW8wa84CAAAAULtOXBBYDv0Z5dSsWHuzNNck4aL0aF4Kxrwr+0QtpdyrAvWPKt8QVqxVlbkGwxOabAgr1mpocl8lBsT7fCsSAQAAACvIyg4Cyiq7RwoFXQP3ufR3yxzMK9TumiPQ06jRbe79nPIguUuAStvkf+IQUqw83yCh5j1JdXiOBQAAANSu4/PLwgAAAABqygp/IgAAAADgSBAEAAAAgDpEEAAAAADqEEEAAAAAqEMEAQAAAKAOEQQAAACAOkQQAAAAAOoQQQAAAACoQwQBAAAAoA4RBAAAAIA6RBAAAAAA6hBBAAAAAKhDBAEAAACgDhEEAAAAgDpEEFhI1NKAPSAr6m9YoqilAdtWqtPfMJ+IrJ227L64v+EkVo+fGQAA4PirryBQHIwP9Eb8LTiWFgpBnSnZyxG2AAAAsGh1FQTi7WFppiBjU0THPQoMW+owTXX3+xvmk5V1nSmzK+1vqMK5k75sIaczJdtOaVnuyw9nNTYjhVqqHy3eEpLGh2QNa4mfGQAAAEeqtoLApriS3+jSZsPfMJtx1c3a8Zcf0yZ/w5ziagkWNNY/pHxDWLG57k7jGMgqu6cgBVuqBIu4WoJSfpSBPwAAwPG0KhAIvObfeKIY55q66WufVkthSMk/6dOugr+Hw7gqob4bI1r7SJ8+feuQ5ujm1ZmSHZ1W8jpL6h1Qommo6l3nSO+AEq2lJFJQbnBMze3NGtve4dyxjloa6GnW2OCYmtvDcnrmlTG7le5MyW4PFfctbisduLSf/zjbh9TYE1Npr8JIUh3bssV3EVk7E2reU9kW77MVC5YOKuUHTXWPWxroKV2Lo3SceJ+tmDLKKKZY0HX8qG+fmZyS11nKVjmH97M41xRucLUOep90VD9nSCk7Jvn6qjMlu12zju/+zOVjlq+poFzpe5y1f+lvOOnZFu+z1Ta18GcHAACoFzX1RKDwa1vWZ2/XqNGmxNerPxk4ohCgiKxoSIU9WWUlZR8cUyHYNqsmvTKANGWapkxzSI3lwb6boXBU2mGaMs2kcjMhxWzbCRrubQtOeDUU7mnRaOl8g3kZrVtnXVdJpHdAsaZc8RxOf6lUdpRUbsYZdJum6RlEKxhTy6izTzlQtDdqqPw5k8oprETxetNdpWPni99FaUAdV8pOKDyVKe5nytyeU6C9SknSrHOmNTo+uzzIKQsarQSmKkrBonzOwUmFe4pzCvpHlVdILeUnPBFFNhmSZ5vz1GFyX9b5DD1hTQ66PvtU+VQAAAB1o6aCgCRpypb16b6qYcAJAZulh5YSAiRFI2puKGjsweLgeDirsRlDzVvcg9e4Yq2G8oOuu/hKq3t7rsp5Csr1l+4gZ2UN56tvq1oK4+U5X39GuVnXVRFqMqSpicqd6/7uxc05mMkp4+uX7nJ/zmLpTtPGeedORHrbFJrJKel+kjJsacdIlXkX1c456v9OnHKt3OA8MSBqqS2YV8Z9Ts/35ASMwDnFs0cjam7IK+/ZtlEB5TXaX/p3QdPjpYNlZXXxNAAAANSf2gsCklQYmhUGjCu6lLxxs/TQ7eq6bQkhQFJkS7OMmTFlh0tbnIGvZ/DqHiwekUlNlI+/WO4B6cLSgzkVgrGlr7DjDg8u8T5btu28KuVQcws1GeWnKm7ZB8dUaGgslzdJc5zTf/e+s0Uhz9+limCjDBWfuJRfvtKkKdffMtgoY3xU3aP58rbIlmYZpacOw5aGxg2Fe1iiFAAA1LfaDAKqhIHc6W1KfD2l5E0R6f7kkkNA6U6/GsJKuAaTieK2FTVpuLjykFMaYy89EJQUl/N0l9skR5b2rR4Zb3lQvKVSrjWvGVc5lOtVKnNygkizIlHnmPnRtBM6GpoViTqlQu7JyOmuYklQU8z5/4FAAAAA6lDtBgE5YeCrn+lTbk1AL9+fVOKvdi0xBBTvOpdr3d0vp6beW7PurisvCjZWmSNwgvV3F69/7jKi+ThPSHwlPovgufPu4hxvWsUZC/Nynmq0KF5axalUrjWX8enyIH9OxVKvxmBcLcHSU520RscNNQZDamyo9qSnuEzpoL9cCQAAoD7UdhBQMQzEO9R9JCFg3smovjr+YUtD41Ko3b12flyp8ipAJ168b751/bOamJKMpoWvN7tvUnKX8kQtbfWXBo1Pq6CANroG4NltztKrpUnFUmXf/PAi6+yHsxqbCamlr0Wh8m8HzKM4yA93Wp4A4v0unFKvUHtMIdffOj9V3OYOKVFLKf/EZgAAgDpU+0HgKLXNt0Z9sWa9rTgwTHeZyoy769FbNFp1svCJ4r622UtsVuYQVFnFx62/2/s5O6Uhf2mQu5a+/MNiaXWbGeWL57BtW3ZPs8a2L+WH0oqD9mCxhGdBWVnXFVc1cpV2tU1lPOEu++CYCvL+rUvb/OVHgdZE5fp9S48CAADUi5r6HQEAAAAAx8dJ/0QAAAAAwGwEAQAAAKAOEQQAAACAOkQQAAAAAOoQQQAAAACoQwQBAAAAoA4RBAAAAIA6RBAAAAAA6hBBAAAAAKhDBAEAAACgDhEEAAAAgDpEEAAAAADqEEEAAAAAqEOrAoHAa/6NNe3dZ+nj8YDWS1LhWd3741MUufosnT75tNKfe14FSTIMmakLFDzlgB74Xy/q4vibdbYkvfSc7v3ypB6f9B8UAAAAqC8r74nAT6f1s8lTddrpa3XaWW/Sljc/r0efX63TLjhXV13jdNnwmTered1avbRnSi/9/rk67/S1Ou301XrxF88RAgAAAIAVGQT0qnb379U+SdIpOqt1gw7/eJ8OaI0u/mBA5/3OmXr/Owzp0H49sOdMvTe4xtmt8IzuSx/yHmo5RS0N2AOyov4Gr3ifLbsv7t98hCKydh7l8TpTshdx3SuC/28QtTRg20p1+vrNId5ny95pKeJvAAAAOAmtwCAg6Ynn9a+PFJx/rzlLV7b+Rvf94iXJOFvtXzhP5+hV7fvpc2pqO1uGJOmQHr97UnuLuyyoOIAc6D32Q8JI74Bs2/a9To6BebzP+TzzDsSL3/VRhRkAAAAs2coMApL2/83Terx4g/+0i96s4M+f1t5Dp+i0NadKz+7VAwroXW8sfrzJX+u+73t2n1e8PSzNFGRsihyfu8MzOSVNU2b51SFr2N+pmqys60yZXWl/Q1WR3oHZd7z7u5dwvqUrzBQUapl7kB/Z0lwMa8fAsKUO01R3v7+hunSXKfM6S1l/AwAAwEloxQYBFQq6d+hZHZYkGbq87VQ99NNpSS9p99DLuvzdjaWO+rfvFycRL0pcLcGCxvqHlG8IKzbf3WwsyJBUCLbN8YQjrlirlB9f/F8HAAAAy2PlBgFJB+94RrlnX3XevHGjrnjpGT38yK/1+O+8WReXpgb8Yq+yP/XsNr/OFoVmxpQdTiszMvfdbG9Jz4CsoL+HJMWVcpf8LLX8pVqJkqfu3Zkj4GnvTHnLjPri5X6JVkNqCCthu2rhO1Oy7ZRKV1aaw+D9fJX2slJJT/E10BuffS2SNDWkoXFDzVuqPFspftejU/4Gzf7u/E8yFvM38M8ZkCrzKlzHLpUueedvVL7bUonT4q5j7lKo6vND3H/DuFKzrrf6fos9JwAAwFxWdBCQDumB7+3TAUnSqTqv7Q165qerFXlbsdjk0LN64DsveXeZV0RWNKTCnqyykrIPjlW9mx3pHVCidVKZcinPkBrbw74Sl7hSdkyBkWS55Cc51aaYf7A6n2FLHYN5Ga2x4kA8IqszLI0kq5e7RC0NtAeU2166rozyUrmEKDlSqJQhzVcCE4xpq3YUj5FUbiakmHsgGrU00BPW5GClnGmoKaZwg/sgFenBnFT+DCXOd50ftorX6OZ8d3IdPzMVVsI1CF/c38AvrpSdUHgqUynDGpx9djejNaGWUdf32RDWVlfYifQOKLFprFLatT2nQHv1gXl6NC8FW7zfQ2dM4Ya8hrbN+deYZSnnBAAAmMsKDwKSfvqssk8UJwus2aAP/o+NOkuS9Kr2/fQ/tXvC231e0YiaGwoae7A4KBvOamzGfzc7rlirofxgtyqV+Wl1b895yo8ivW0KzeS0wzXAy27rUGbc1amkdJe+2l3n/oxyMyG19UYU6d2qsLzH9Ag2ytCkJsr1/ml1L3L+gIfnurOyhr0D2Hh7WMZ4xhNG0l1J5WYq7z2GsxqbCanFPVCNRtSsnDJVAk2kt00h//EHcyo0NCsS1aL/Bn6lv0nS/Z30d1cPVSWe63CeElXmjjilTbl+V6gatjQ0rupPkvpHlZf3e4i3hKTxUdfnWMgSzwkAADCHlR8EJD3+3b3aW8wCq9ec6vzjhX3612+94um3kMiWZhkzY8qWB9JZZff4Jg1HNyqgvEbnGzxKCjUZ5ScLC/JPFvbcrc/K6s9JrQkl/ANAv2JoiPnLiZZqamLucyiijU1SfnTxQ9dSmAhFKwEn3h6W5vh+Qk2GFIx5Sl/sHtfd/kX+DfyW9DcpKkzN88QgulEBGQr3eEuN5n7q4y83c+aj5AaX8F0u+ZwAAADVnRRBQE/M6L4R9+3oQ3r8h89qv2vLwpy7zP6786W6+hM6aXh4Qov7HbTiKkJmRpOtCdlHGwiWU39GOVXu6LcE5y+HKbhKqiqvY7e60ZHLu8qTXK85nsQ45WbFpyvl+Sj+XgtZ2jkBAACqOTmCgKTn0k9rd7Eu5PCTT+neJSwXKhUHZVUHWE7Ji7fswlfmolJZjtfs5Uedu+lLFe9z5hokR6Rw5+zJqrOl1W06cwJmX8PymF2GElLjHHMEHFlZw5MKt8cV6W1TYCQzZzlMfmox1724v4Hb4o67BMMTmqx2HfNxlUnFWyrzUSoMNXru7vv+nzmScwIAAFRx0gQBFV7SvXfv10HNKPe9F3TQ376AuWu1fTXypXrsdvdKOnGl2kPunYo17f6JpVvnnFA7l0jvgGLFu+fZbc6Spu5jenSm5p0wmt03KTU0ynulS1X6PmKec8X7Ygsft39U+WCbtm6anPdpQPbBsVnfnRRXqjRheZF/A7/S95dwT3xe4DubX1qjs65DivSmyhPMndV93O3FMqmWVJWnIsXjuUqoZv8/s/A5AQAAFuPkCQKS9P39undwQg884m9YWFtwnrr34iTPtuLANN1lKjPu1OI7JUQtGvVPVB221LHdqe0vlRlt1Y7FTRYulfR0ppTwTIpNq3swL6M1MefgNdT+/2/v/kLbuu8+jr/zx3FAzKtnN9WaOhSJ5YkomJUKs0FWzsRmGBXDohfm6U0v5JuwEUMwz9iNd8i1CcgwAsNify7y4EKQH1CZcVMh7MCGp25DeYL9OMhsTuMpsYMTtRpOnaXPhY7kc45kS8rStLI+LxBYv/Pn9zsnufh9z/l+f7KlNZ1ZYsJeb2CrIai1DGbDpkYJz+QcffVn9ykWroiTWATPZq2Ay6bGvUsmB9my5dI39G9QJc5oOEHOXn8wRNO1BnbV40gy1pvdP4VpKkvO58dfI/CMny+tTFT+/1Dr/8xT9SkiIiLicsjr9X7ubhRpnoF5ZYzA8gTD+zztFxEREZGvhoP1RkC+PO6lV0VERETkK02BgDRvJOZajShK7EIQz+qc0lNEREREWoRSg6R51i8LO1boWU1o+UoRERGRFqJAQERERESkDSk1SERERESkDSkQEBERERFpQwoERERERETakAIBEREREZE2pEBARERERKQNKRAQEREREWlDCgRERERERNqQAgERERERkTbUej8o9mYP70a9fB2guMHsh4cxftzD8fwd4j97QBHA4yEcexXf4Ycs/OZTTkdP8hLA9n1mf5FnJe8+qYiIiIhIe2m9NwLzW/w5f4TO48fo7PkmZ08+4C8PjtL56iv84O3SLid+cpLA146xvbzJ9o9e4dTxY3QeP8qnN+8rCBARERERaclAgCfcmFpjHYDD9Ayc4PGH6zykg9NveTn12gv88A0P7NxjYfkFvu/rKB1WvMu1+I7zVM9SyGQ6OY0Zcm9wik4mSU5G3c1P7VmfT0RERETaQwsGAsCtB3zwUbH0d0cP3xv4J9duboPnJYZ+foqXecL6/H16B1/CA8AOK+/nWbMOqStkMp1MMj1uuLc8c8b4NMkrJl9YT9a1JPf6KIgQERERaUutGQgA9355hxXrAX/nt07i++sd1nYO09lxBDbWWMDLd160Li//MdeuOg7fV3QoCIUinjPGFzdBf15SJsPhMOFwmHA4QQ7IzZS/hwmfj7uPaM5IjGQyhsIJERERkdbSsoEAxSKzcxs8BsDD64NH+MP8FrDNjbnPeP3N7vKO/OmqVUTckCj9viJLU3PkuoJERtzbRURERERaX+sGAsCj390ls/Gk9OXFPr67fZc/fvQxK6+d5HS5NODmGul5x2H7G+nHX1ginYqTWCzi76/9rNsYn7al2Exj+tx7AESJ/btpOO7Unr3SiEZizvHUqVVwco3T3cceY4hOJkkO+QE/kWTS8WYgOulMQYpVBVQG5pVa6VelscRGrGtyj8W+3d7q6K/Z6xcRERFpPy0dCMAOC++t8xCAI5wa/AZ3549ifLtUGcDOBgu/3nYesi8DM+SnuJwmDaSvL1H0DVZNKo3xacYG8iQqKTdzdA8FrXqEsiixZATv4kQlDWdic5BIzYBhb9GhbuYq/UyQIciYO6DwRUj2Z3f7WYTghUYnw6VxYksXSmwGGatMwKPELgTJV7ZPkNksHRk/HyY8kwNy1r0YJW7dn0hvhonyuGdyzi4BSJNerk6/MsYH8RcyJKZsjXVEJ5NESOymO83km7h+ERERkfbU4oEAML9B+pZVLNBxgrd+2kcPAE9Yn/8HN247d99XyCDQVWTperr0PZVmqeAhcNY+VY0SGfCQmylNekvijF7KONKPyhPayxetcwHpi8MkVm07NSB+3t5PafJMb5/zKXkhw4Qt1z998TKZqnHXZowP4l9NMGqbeMdnMhS7AhghINSHlyJblXGnMc+b7F5VNX+vBzZv7+4zNeo4f1n6+tJuPwAYGGc8lUCsISGTQV+OhL3WYSrR8PWLiIiItKvWDwSAld+usWbFAkc7jpT++GSdD371L8d+9RhnA3gKS6RT5ZYaT61DfXjJka0xsbXz9zY5od2HPe1lbMD53gFwTroBSHN7Ezy9fkdrLf5eT+mNgj3154Lt7UbKZG7VQ/BC46lN8ZkMRV+kfoqOde7KhD1kEOjKMWcLnurydeOppCaVP2MEu9w7ioiIiIjdgQgEuFXg2mLB1rDDyu83uGdrqa/0pJ+uIGO2SeWY1falFA1bufn2tJeJxcbLnhtVtKUv7X6GMa2AKH7eSgnqtQKGegFBeaWimXwpgNgnIIhnc5VAyzgbwLOatb0BaVDBloZk+ww3E1CIiIiItJmDEQgA9+N3uGHNkR//7e/MNrFcKFhFwpVcd/tngkwBV9Gwn353YODrdtUIUJX/DgZ9vY6GfZXeUDjTfhoTpd8HuWz943Kb1Xn6taUx37Hy/X39jS0XOjVq3b990nSmsuS6AhihUlpQ1Zi7unG81wj14bV/X91ypReJiIiISCMOTCBAcZvZ9+/xiAKZ9z7hkXt7HdF+P9R8Gp3GTNkmvymTuVXwD9nXzo8SG3Km4ZTy7IOcs62KY4yfayplJb2ed06EQybnaqUG+SKO1XeikxH8DaQvUcnTd44TosTKT/1DJrGqlX1sVrco4qXPNhGPTu79uwLRSfeqRHESixAYihDAVSQ8lSWHn8FK/wbmiKso26rjCI44VxfabwwiIiIiAoe8Xu/n7sbW1cHp/zzEyn9/5t5Q13QySX4mXLOo1b4CUDndJDqZtK0AlCNxaYvBCwGWLu2m1BAymbbl2xcXJ5jrHSul+lhP+UsrEFVP7nPWWBz9FDIklgNEziwx8U6pYLe8Yk6CiHM81go+TrsrBDmu0zVOKJIpX0fVtupz746xtA3HvSldt+O+9WYq44fdPrDtVzESs5YoxRrXHN0X3NdgYF5x1gXY+xQRERGRagcsEBARERERkUYcnNQgERERERFpmAIBEREREZE2pEBARERERKQNKRAQEREREWlDCgRERERERNqQAgERERERkTakQEBEREREpA0pEBARERERaUMKBERERERE2pACARERERGRNqRAQERERESkDSkQEBERERFpQwoERERERETa0CGv1/u5u/Er7c0e3o16+TpAcYPZDw9j/LiH4/k7xH/2gCKAx0M49iq+ww9Z+M2nnI6e5CWA7fvM/iLPSt59UhERERGR9tJ6bwTmt/hz/gidx4/R2fNNzp58wF8eHKXz1Vf4wdulXU785CSBrx1je3mT7R+9wqnjx+g8fpRPb95XECAiIiIi0pKBAE+4MbXGOgCH6Rk4weMP13lIB6ff8nLqtRf44Rse2LnHwvILfN/XUTqseJdr8R3nqZ6lkMl0choz5N7gFJ1MkpyMupvbStU9GImRbODeQfk+J4mNuDeIiIiISDNaMBAAbj3gg4+Kpb87evjewD+5dnMbPC8x9PNTvMwT1ufv0zv4Eh4Adlh5P8+adUhd1mRzetxwb3nmjPFpknv2ZWBe2WvbsxIllkySTMbYLzwpj1MTcBEREZGDoTUDAeDeL++wYj3g7/zWSXx/vcPazmE6O47AxhoLePnOi9bl5T/m2lXH4fuKDgWhUMRzxuCLnILbeQbONfZE/AtRpFjw07/nJN/AOFMKqb4QU6OEw8OYKfeGGlImw+Ewo1PuDSIiIiLSjJYNBCgWmZ3b4DEAHl4fPMIf5reAbW7Mfcbrb3aXd+RPV60i4oZE6fcVWZqaI9cVJLLn5PgZKmTIrHoIjpjPLfBw8gBF/KE9+h+JECRHruDeICIiIiKtqnUDAeDR7+6S2XhS+vJiH9/dvssfP/qYlddOcrpcGnBzjfS847D9jfTjLyyRTsVJLBbx99dOmCmnypQ+05g+9x7Y0m6szz61AenzCXJdQc41kgZkpS5Vn7dWKlFpDI62kMm0KxUon5oj1xXAqPFWItrvp7icZcu9oeo+1EodauAejMSqU5NGYo7zJq9YQYq7FqPy3dlPrXSq6KTtfHvWJNS6h1SuIzZija08nlrb7a0N9SkiIiLy/LV0IAA7LLy3zkMAjnBq8BvcnT+K8W0rjWVng4VfbzsP2ZeBGfJTXE6TBtLXlyj6Bqsmb8b4NGMDeRLhMOFwmHB4ju6hoFWPUBYllozgXZyw9gkzsTlIpGbAABBndCZXP0UoZDJ9IcDSpXLfE2R6I9YEO0162ZXSNNKPHxxtxtkAnsIWud2zAnESixAcck3UQyaDvhxzF517U74PZ5aYKN+HSxm8Q/bJcLP3oMQYnyY55CVjv8ZN9152HoIX+smWx1HjPkYnk0RIVMYRnskTvFBrYl7jHgLG+CD+QoZEEylJjfcpIiIi8vy1eCAAzG+QvmUVC3Sc4K2f9tEDwBPW5//BjdvO3fcVMgh0FVm6ni59T6VZKngInHU+YY8MeMjNjBKvtMUZvZRxpB+VJ46XL1rnAtIXh0ms2nZymxolUSdFKDoUhMXLtnz6NGYqB75+ouXgpasbf3n/fj/F1Zyjzd/rqQQ7dqXAp3SeMuNsABYTtmstixIZgMyUuXuelMncKpW3KE91Dyr3114zkMY8b+unBse/x1SCjP3fzQpmEudtV+Hex6Z0D+1vR0o1ErXu2Z6a7FNERETkeWv9QABY+e0aa1YscLTjSOmPT9b54Ff/cuxXT+lJ+RJp2wS06ulwqA8vObJ1ngzvNdmuJ75vipBBXy94BsacaTND5Sk+kLpNnnLhr0Ffb5GlmQRLlWJgqwaiHOzYpUzmVv0MVvouTfZr7hvqw4uH4AV76kvS8bT/qe5Bg/fXqcjWfsGFrxsPfiL2e5YcI9jl3tGSMplbtQcSBoGuHHO2gKauZvsUERERec4ORCDArQLXFu2VrDus/H6De7aW+kpPoukKMmabvI1Zbc+laBgaShHKzZRTZuyf8hPxONnyU/mQQYAl0qlSQOPvj9pqINxnLYnPZKAc+Iz041+d22c1n5wtPcr2sT8F/6ooZHZTmGyf4T0m9/FsrhIAGmcDeFazNd6K1NFknyIiIiLP08EIBID78TvcsHJzHv/t78w2sVwolHPpa01sJ8gUdtNdSmostenrdtUIOPPyS0pP9OuqpAgZ4MiNT3N70z2WavFsDnr7iJ4NgL3eobeP6Mve/Z/Sp0zmNoNERgzMkJfMzB7TX8ebh701fQ8aPG9TVrdcqT4NmMpaxdOltKBc1nUfbKlWUH6TYfM0fYqIiIg8RwcmEKC4zez793hEgcx7n/DIvb2OaL8faj71debgV/Lgh+yr3ESJ2dNzrCfrRVeKjzF+ruHUkHKKUNBVWBvP5sAXca5OEzKJ2VOJprKlpU/taT2p2+S7gkQGPOTX9wwDwOrDHzpHYHO/twHWmwfHfQBjPFZ5k/F098BarWnIXlRrYE7uXTdRl1Xr4a69iE7ujj06aVuZCCrF04GhCAFcRcJTWXLYU6gMzBFXsXgDfYqIiIh8mQ5OIABw9R6zM7dZ+Mi9ob5BH9VPfctcE7/4+TCJVXv+dz9ZV7EwKZPhSxmw5fOf43KdQlm7UopQlalRwjM5/EO23PML3WQd6SalSTqOFCCrrZH8+6kEGTzk97oflur7kGSsN7sbPDzlPUhfHGZiEVv9wRiBzX3eYtSVxnxnggzOtK/BzVpF0LvS15fA56+8VdlVTt8qX9c5mEq4VmF6uj5FREREnpdDXq/3c3ejiIiIiIgcbAfrjYCIiIiIiDREgYCIiIiISBtSICAiIiIi0oYUCIiIiIiItCEFAiIiIiIibUiBgIiIiIhIG1IgICIiIiLShhQIiIiIiIi0IQUCIiIiIiJtSIGAiIiIiEgbUiAgIiIiItKGFAiIiIiIiLShQ16v93N341famz28G/XydYDiBrMfHsb4cQ/H83eI/+wBRQCPh3DsVXyHH7Lwm085HT3JSwDb95n9RZ6VvPukIiIiIiLtpfXeCMxv8ef8ETqPH6Oz55ucPfmAvzw4Suerr/CDt0u7nPjJSQJfO8b28ibbP3qFU8eP0Xn8KJ/evK8gQERERESkJQMBnnBjao11AA7TM3CCxx+u85AOTr/l5dRrL/DDNzywc4+F5Rf4vq+jdFjxLtfiO85TiYiIiIi0qdZLDbKc+K/TvPuGB4BHt1ZIfnaKt187xqOdz+nsOMT6h//HWv9/8J0XDwM7rLz3v/zPVfdZ7KLEkhGYCTM65d5mYF4ZoztVa9uXwxifZmygdP0VhQwT75ikna0iIiIiIlVa8I1Ayb1f3mHFesDf+a2T+P56h7Wdw3R2HIGNNRbwWkEAkP+Ya/sGAS2qkGEiHCYcDhMOT5AhyNgVE8O9n4iIiIiIS8sGAhSLzM5t8BgAD68PHuEP81vANjfmPuP1N7vLO/Knq1YR8YGWxpzKUOwKYITc20REREREnFo3EAAe/e4umY0npS8v9vHd7bv88aOPWXntJKfLpQE310jPOw57dkZiJJPJ3Y/7aXzIZDo5jTliMl3ZL0a06lirzSFKbL9z15K6TR4P3b7SV2N82jG+6fHqM0QnbX0kY0RHYjXG0+BYytfrDkRs5zTGp0lOuq625nEN9ikiIiIiT6WlAwHYYeG9dR4CcIRTg9/g7vxRjG9bufM7Gyz8ett5yDNijE+THPKSuVROzQmT2AwyVjWJ9hAMweVy+k7BTySZJBnastJ6rDbH5Hi3XsFx7nqT4VAfXopsrQJEifTOVY4PX8rAwBixkd3do5NJIr229KJLWwwO+W0npLmxpNIsFTwEztq3GJghP8XFBHFb6/6a6FNEREREnkqLBwLA/AbpW1axQMcJ3vppHz0APGF9/h/cuO3cvR7/kP0JefkzRrDLvleUyICH3MwwZmq3NX4+QQ4//bbJNhTJTJULeNOYqVztNl9/JYAwxgfxryYchcnxmXppP1FiF4J4VuesMcUZPW+beqfSLBXA+7I1lQ6ZDPrs4wBSJsMzud1jmh5LmvRyEc8ZY3fCHjIIdBVZut54CXNzfYqIiIjI02j9QABY+e0aa1YscLTjSOmPT9b54Ff/cuzXiJztKfTuZ4JMwbZTqA8vObJVKwjFya7aJtt7ynPbFkC4+Xs94Is4g5ELQVxrBEFXkLHKPhG8ixOE7ZN/R3qNK5jxdeMpLJHeZxw0MxZL+uIcOduE3TgbsAUnjWm2TxERERFp3oEIBLhV4Nqifaa+w8rvN7hna2k1xcWJGgGJ8w2Ec9WgMMMXd5+6l+oD7Ok1rmCmCQ2NpSJOdrWcHmRgnPGQyzaeFFTWXJ8iIiIi0qyDEQgA9+N3uGEtDfT4b39n9otcLjR1m3xVChBAlH4f5NcbT4OpJbfpSq9pWmkCXlyc2P93D2qk2hgvex3fn2Ys8WyudEzIINBV481Jb5/zfL5ux9P+p+lTRERERJpzYAIBitvMvn+PRxTIvPcJj9zbn6k4icUi/iHnSjfRyQj+QoaEe+LbpPT1JYpdQc45VvmJEnOvtrOnNLc3wdO7W/hrjJ9zpgZNJcgUPARHbAW4IZNzrh8pqz+WUvqRY0WiqQQZAkSGAuAqEi6fL1IJoqLEXAXK9fsUERERkX/XwQkEAK7eY3bmNgsfuTc8e+mLw0wsQvDCbh57hAThZ/HLvimTYWuVn908+UG2ZhpPsYmfT5Cz5dmfY86VGpTGfMf6EbJyHyNw2VUs/HRjSZNeBr+P6iLhlMnlxaKtKLuf7KWM83cenqpPEREREWnGIa/X+7m7UdrYSIzkECTCo00s9ykiIiIireZgvRGQf1u03w+rWQUBIiIiIgecAoG2ZWBecf74mTE+TcRXJKMUHBEREZEDT6lBbSw6mSTis7cUyVzSEp0iIiIi7UCBgIiIiIhIG1JqkIiIiIhIG/p/L/3siKK8qZgAAAAASUVORK5CYII=;" vertex="1" parent="1">
          <mxGeometry x="20" y="200" width="770" height="790" as="geometry" />
        </mxCell>
        <mxCell id="9_xR28aF4kL3-UmaCN62-4" value="" style="endArrow=classic;html=1;rounded=0;strokeColor=#ff0000;exitX=0;exitY=0.5;exitDx=0;exitDy=0;" edge="1" parent="1" source="EZ-af1H3O7F07ni0FzXC-1">
          <mxGeometry width="50" height="50" relative="1" as="geometry">
            <mxPoint x="224" y="260" as="sourcePoint" />
            <mxPoint x="80" y="319" as="targetPoint" />
          </mxGeometry>
        </mxCell>
        <mxCell id="EZ-af1H3O7F07ni0FzXC-1" value="&lt;font style=&quot;font-size: 18px;&quot; color=&quot;#ffffff&quot;&gt;src folder contains all the developer-defined files&lt;/font&gt;" style="text;html=1;align=left;verticalAlign=middle;whiteSpace=wrap;rounded=0;" vertex="1" parent="1">
          <mxGeometry x="260" y="250" width="430" height="30" as="geometry" />
        </mxCell>
        <mxCell id="EZ-af1H3O7F07ni0FzXC-2" value="" style="endArrow=classic;html=1;rounded=0;strokeColor=#ff0000;exitX=0;exitY=0.5;exitDx=0;exitDy=0;" edge="1" parent="1" source="EZ-af1H3O7F07ni0FzXC-3">
          <mxGeometry width="50" height="50" relative="1" as="geometry">
            <mxPoint x="290" y="310" as="sourcePoint" />
            <mxPoint x="110" y="344" as="targetPoint" />
          </mxGeometry>
        </mxCell>
        <mxCell id="EZ-af1H3O7F07ni0FzXC-3" value="&lt;font style=&quot;font-size: 18px;&quot; color=&quot;#ffffff&quot;&gt;assets folder contains all the static assets of the application&lt;/font&gt;" style="text;html=1;align=left;verticalAlign=middle;whiteSpace=wrap;rounded=0;" vertex="1" parent="1">
          <mxGeometry x="270" y="280" width="480" height="30" as="geometry" />
        </mxCell>
        <mxCell id="EZ-af1H3O7F07ni0FzXC-4" value="" style="endArrow=classic;html=1;rounded=0;strokeColor=#ff0000;exitX=0;exitY=0.5;exitDx=0;exitDy=0;" edge="1" parent="1" source="EZ-af1H3O7F07ni0FzXC-5">
          <mxGeometry width="50" height="50" relative="1" as="geometry">
            <mxPoint x="335" y="450" as="sourcePoint" />
            <mxPoint x="155" y="484" as="targetPoint" />
          </mxGeometry>
        </mxCell>
        <mxCell id="EZ-af1H3O7F07ni0FzXC-5" value="&lt;font style=&quot;font-size: 18px;&quot; color=&quot;#ffffff&quot;&gt;components folder contains all the custom widgets and modules defined by the devloper&lt;/font&gt;" style="text;html=1;align=left;verticalAlign=middle;whiteSpace=wrap;rounded=0;" vertex="1" parent="1">
          <mxGeometry x="315" y="420" width="455" height="30" as="geometry" />
        </mxCell>
        <mxCell id="EZ-af1H3O7F07ni0FzXC-6" value="" style="endArrow=classic;html=1;rounded=0;strokeColor=#ff0000;exitX=0;exitY=0.5;exitDx=0;exitDy=0;" edge="1" parent="1" source="EZ-af1H3O7F07ni0FzXC-7">
          <mxGeometry width="50" height="50" relative="1" as="geometry">
            <mxPoint x="264" y="510" as="sourcePoint" />
            <mxPoint x="120" y="569" as="targetPoint" />
          </mxGeometry>
        </mxCell>
        <mxCell id="EZ-af1H3O7F07ni0FzXC-7" value="&lt;font style=&quot;font-size: 18px;&quot; color=&quot;#ffffff&quot;&gt;router folder defines the router that handles the URLs and redirects for the application&lt;/font&gt;" style="text;html=1;align=left;verticalAlign=middle;whiteSpace=wrap;rounded=0;" vertex="1" parent="1">
          <mxGeometry x="270" y="510" width="455" height="30" as="geometry" />
        </mxCell>
        <mxCell id="EZ-af1H3O7F07ni0FzXC-8" value="" style="endArrow=classic;html=1;rounded=0;strokeColor=#ff0000;exitX=0;exitY=0.5;exitDx=0;exitDy=0;" edge="1" parent="1" source="EZ-af1H3O7F07ni0FzXC-9">
          <mxGeometry width="50" height="50" relative="1" as="geometry">
            <mxPoint x="246.5" y="565.5" as="sourcePoint" />
            <mxPoint x="102.5" y="624.5" as="targetPoint" />
          </mxGeometry>
        </mxCell>
        <mxCell id="EZ-af1H3O7F07ni0FzXC-9" value="&lt;font style=&quot;font-size: 18px;&quot; color=&quot;#ffffff&quot;&gt;store folder defines the Vuex store, the container that defines the application state, such as whether the user has signed in or not, and so forth&lt;/font&gt;" style="text;html=1;align=left;verticalAlign=middle;whiteSpace=wrap;rounded=0;" vertex="1" parent="1">
          <mxGeometry x="252.5" y="572.75" width="455" height="44.5" as="geometry" />
        </mxCell>
        <mxCell id="EZ-af1H3O7F07ni0FzXC-10" value="" style="endArrow=classic;html=1;rounded=0;strokeColor=#ff0000;exitX=0;exitY=0.5;exitDx=0;exitDy=0;" edge="1" parent="1" source="EZ-af1H3O7F07ni0FzXC-11">
          <mxGeometry width="50" height="50" relative="1" as="geometry">
            <mxPoint x="254" y="700" as="sourcePoint" />
            <mxPoint x="110" y="759" as="targetPoint" />
          </mxGeometry>
        </mxCell>
        <mxCell id="EZ-af1H3O7F07ni0FzXC-11" value="&lt;font style=&quot;font-size: 18px;&quot; color=&quot;#ffffff&quot;&gt;styles folder defines all CSS and tailwind styling for the components&lt;/font&gt;" style="text;html=1;align=left;verticalAlign=middle;whiteSpace=wrap;rounded=0;" vertex="1" parent="1">
          <mxGeometry x="260" y="690" width="455" height="44.5" as="geometry" />
        </mxCell>
        <mxCell id="EZ-af1H3O7F07ni0FzXC-12" value="" style="endArrow=classic;html=1;rounded=0;strokeColor=#ff0000;exitX=0;exitY=0.5;exitDx=0;exitDy=0;" edge="1" parent="1" source="EZ-af1H3O7F07ni0FzXC-13">
          <mxGeometry width="50" height="50" relative="1" as="geometry">
            <mxPoint x="254" y="780" as="sourcePoint" />
            <mxPoint x="110" y="839" as="targetPoint" />
          </mxGeometry>
        </mxCell>
        <mxCell id="EZ-af1H3O7F07ni0FzXC-13" value="&lt;font color=&quot;#ffffff&quot; style=&quot;font-size: 18px;&quot;&gt;The &lt;span data-end=&quot;13&quot; data-start=&quot;4&quot;&gt;views&lt;/span&gt; folder contains Vue files that manage the logic and UI for specific actions&lt;/font&gt;" style="text;html=1;align=left;verticalAlign=middle;whiteSpace=wrap;rounded=0;" vertex="1" parent="1">
          <mxGeometry x="260" y="770" width="455" height="70" as="geometry" />
        </mxCell>
        <mxCell id="7MoDBoAqsYJ9vDob6UXg-1" value="" style="shape=image;verticalLabelPosition=bottom;labelBackgroundColor=default;verticalAlign=top;aspect=fixed;imageAspect=0;image=data:image/png,iVBORw0KGgoAAAANSUhEUgAAAR0AAAKoCAYAAABKhSsgAAAAAXNSR0IArs4c6QAAAARnQU1BAACxjwv8YQUAAAAJcEhZcwAAEnQAABJ0Ad5mH3gAAGGPSURBVHhe7d1/dGPlYSf8L/MTUMYzYsSMGDAzSCEZk0RJNorb0gkIlfqkRAFr264ptOQk0nZft91xjlc0YUuMGNIm3fp4I58m5s1aZEOXacyWlQFBeR3iKMAmWVdsgmjwwETihzMTD+OJZgwi85v3j3uv9Nwfkq5s6VqSv59zfA6Wrq6uPOjr53mufL8XOJ3OdyG77LLL8Mtf/lL5tizrtluDD/3tB/HJXWsBnMex//0yXnS/Hz7nObzy8L/i0UeAbX/5PnzmYzaceH4Wz9rfi4BrvbztS3hg9Ix2h0S0wtZob2gu5/Hi+Bs4DABYg63d23D2e4dxAuvxvk85ceUHtuB3P2YDzryJZw9swQ2u9dLDCkfwdNyiwPFHMZGcQNSvvYOIjDR56AA4eBzffb4g/ff6rfhE9zt4+mcnAdt29N51JXbgPA4/cwyOnu2wAQDO4JUn5vGG/BBjIcSSScTC2tuJqNGaP3QAvPn1Q3hFHrhsvPpyuH56CG+cWYON69cCR9/As3DiNy+VX8r8L/D0I6qHE1ETaYnQQaGAp6aO4iwAwIaP9qzFj57JAziJF6dO46PX2ZUN8S+PHEfFQQ4RrajWCB0Apx48gvTR89I3l3bit04ewY+f/wVe+cDleJ+ylPOzN5B6RvUwk3yI7k9iYsiH0GgSyaT8tT8Kn3bLoYnS/ckJRF2aDYDi9M1oP9Lj1WtA0m0xhEo3AYB0LKPaW0vHKj2Pfj3J6HHq4+bUklZOy4QOcAbPPnwYJwAAa3FlzyU48sw6+D4ireTgzFE8+62T6ofUyNYdgScTQCAQQCCQQLbDi/6hUuz4hiYQ6Z5HIqBsMwV7r1deS1KEEEsGgUllmwASC15E5OBJ7etDImeDt1cOBX8U/d1AemQAcdV+gHgmC7g86jAKB+HtyGJqX0q8tSLf0AQiu2cxrBz3SBrOXgYPrYwWCh0AzxxF6qC8uLN+Gz71F53YCgA4j8PP/BIvzqk3r1kugYFx5Zs4EjMF2Hb75FFKCMFuG7KTYjjEMTCSVk3nfEM9cKv2A8Qn0yh0dMEnj0jik2kUXD2I+n2Ihr3AzBii06Xti8YzyMINjxAOIY8byGV0AVVeCMFuID0eRTGmpqOYygFuj3YURdR4rRU6AF759ht4Q86ddevXSv/x1mF895vnVNstRWEhq72pxN8JJ7LICGFixO2wAa6gaiqTHNSMhqajGJsBvIMReJHGWNlRixR8pXAIweMqID1pPnKk47bBOygcTzKJoOG0kKjxWi50cHART88sCjecwSv/fBRvCrestMLMcHFqVfrqU41mUofnxYeUlXpuFgVlihX2wL04i5TRqKiirDAlFL721hBeRHXSeqED4Fj8EF6U5zRnX3sdT1l2ilw91QEAuOyqUUx2QZySlRNCrNeJ9Mgw0lCvG+lMpzC7KD1vyONG4UCqNE0CANhgV41afOh0CN9Oz2He6LiJVkhLhg4KJ/HUE2/iFBaRfvgtnNLe3wjKOkiveJYphFivW7VZ6rlZFDQL0EAIseLZJB+i+4Nw56YQnU4hOp2Frbu/eAZKfyZL2sbticHj0i4gx5HJAW6/eHasH94OYRNlG9VxA76hmO6sF5EVWjN0AOCRN/HU5ByefV57R+PE9waQyLkRLK6NeJDRLCRjOoq+kTTQHRHWUHqQl9dhQqMReDuySChTm/EB6WzWoP6UedF4BlmXG26DBeT4XuksW0R+rn6MIZHTbqM97iQijozx4jVRg13Q3H/wSUTtpnVHOkTUkhg6RGQphg4RWYqhQ0SWYugQkaUYOkRkKYYOEVmKoUNElmLoEJGlGDpEZCmGDhFZiqFDRJZq7j/4vG4rPhNyYjMAFI7iqe+tge/mrbhw/hDiX5BbH2w2BGK74FpzAs/+97fxvtDl2A4AJ4/hqXvm8Yq5a2URkUWae6TzTB7/d34tNl64ARu3XoY9lx/HT46vw8ZdV+DG35c22fbnl6Nr0wacPLCAk793Ba68cAM2XrgOb//sGAOHqAk1d+i0Qq1wNeGYrnKGaDVr8tBhrTBRu2n+0Gn1WuHxAd1F2YlWs5YIHdYKE7WP1gidhtcKG9FUA5dZl1HVECdjCIVj6gurl/veH8WEsP9yUz2jiuClVgurj1X/GCIrtEzoWFErXOSPYiIZhFPsr5qch3dQHQ6h0SSCjrRQ15tHj6YdwpgbwTAwJj9ueKaga2tQ1KtaODSaRBAJzeth8JD1Wih0LKgVloV6vbDlEugT39TjA0iIVbz+KHpcBV1db99khZbQIvXjUvumdPXBRfWoFvZH0eMSGigAYDyB9KINXXsqdG4RNUBrhU6Da4UlUlldNqN/S8czWcDRKXVMueywLaltEwDmMWf6cXWoFnbZYYO6giaZjGj6sYis0XKh0wq1wvVWl2rhRWEaKHypRnNEFmi90Gl4rXAKcwvCNEoQ8riBhbnSdKqjCz7Nmohvh1N9Qz0st1o4l0fB4FiJVkJLhk6ja4Xjk2kUXEH57JAsHENQnNbIayLecKnSF/4o+rvFZvOlCY0mkdwv7He51cLTKcxqjxVAaNR48ZqokVozdFCfWmF3r7jGIbzRjaqBe4GE6kN+KURvG0YapUrfZBgYM7WQvATLqhY2ONZkEj0LCd2+iBqtuf/KvBWFY3JADfANTWSgdUc6Tarm09lEqwxDZ8l8iO5Xr4n4hibU6z5EpMPQWbIU5hbUn32JdAPpEf5xJ1ElXNMhIktxpENElmLoEJGlGDpEZCmGDhFZiqFDRJZi6BCRpRg6RGQphg4RWYqhQ0SWau5PJLPLnKjtNPdIh13mRG2nuUOnJbvMpU4qbeeU1HfVIn1T2q4uojpq8tBpTJf5RIVyO+kNV+dg8Ecx0etEeiRgsmJYW/Qnf2mDjKgFNX/oNKDLfHbR+MLrKF6Ea8pEMJSTQvS2AAJix5TLDltNtTOS7KSmvUHcJ1GLaonQqXeXeepAQd+aCcidUsadV0RUH60ROnXuMi/bqBn2wI0sMuPKDZppjqqhodQXrnSES+0RYs+4vE2vW6oSTiaR3D+KUeF+YW+IVZr2qSjPEZLWj+Tjkx6rPmb1/krH5huaEKZuZtZvtFM+cQqqfs0l+tdUtU9d0/Gum1IW18bK3C/8u6iJxyj9t/Zn7Rua0P0bq39O+sdQ7VomdOrbZS7XtmimWOrrG4cQSwYBYYqTWPAiovmfEq4gPJnyxXXxvQEEJrMAskgEAgjcthf/60ABtt0+9X50gVedrbsHGBf70JNIJnuQH6nckW7rjqAfY6XXlXMjWCl4qna7p5Ay8Zqq9qn7o5gY7MKsfPyBwDDSjmApQFRrYwEEAgkYdW/Uq//dNzSByO5Zoas+DWcvg2e5Wih06ttlrv8fU13X6xvqgTuXwIAQAvHJtL60bjGNRA1BAWWkpdlPyONGYUZdCaOtyNH+z16YGSuuPUmjN6PbDEZ0mp72+N6E8XYyM93uVV+TiT71UK8XEI5f6fsq/jvp1sbiGDBa56pH/ztCCHZD11U/ZfDLimrTWqFTzy5z7f+Ymrpet8MGuILqofygVz5DJhAbP02LI5MrvdmUwJt9Tr0n7UKyGIDlzB+ufjSFBe34IIv8IuDcoZ0eodgWarTOpep2r/aaqvapS89jE7vGksrUVDaeQHpR2od+KieqQ/+7vxNO2OAdVAd/UNWkSkvRcqFTvy5z9RTLqK63IE4nil9mTnlXF89kS9ORsAfuZZ0xaw5VX5OJPnVt0EpfSoeYfGYwkMC8HE7lwqcu/e/KlFj7ZTS6ItNaL3Tq2GUu1Qd7ENL+VgaQXTBYo6in8QTSkKYjIY/bcCRhGb8PXR36kZakhm73Sq+pap96+efRi2NAXrMq+29Utf9dP7JzO4Rx7PQc5itMOWnpWjJ06tZlrvyPOar/rZx6bhaFDi/6Vb9JQ4jpzoosVQqpA0DXnig8rtoWkJfL1h0R1od8iIa9sFUYCZjqdgcqvyYTferSOltQvXbljyKmPG84plvXUkhnmcTF8Er97/LCd3ewtH04ppk6ySNhzUK8byimP+NGNWnN0EF9usyV//ncLoORhlGfebIH+VrWBapIPTcLdHvh1CwgK7QLyeZObVdXmEkg7xfWVZDG8G3CgqmW0c9C1+0uKf+aTPSpjw8gMJlVv+5BOzJCYIj3RXbPVj7uCv3vqX1jxfWhZDKJpCeD4Rn1J7zie5Uze8JzOjK610y1ae6/Mm93xVPE+jdvY/gQ3R9B14Fhw9P7dWH5a6JW07ojnTbg29NVcVrTitrxNVF9MXRWTAjBbhuy0xWmBy2nHV8T1RtDZwVIfwogfcLXzGdvWkE7viZqDK7pEJGlONIhIksxdIjIUgwdIrIUQ4eILMXQISJLMXSIyFIMHSKyFEOHiCzV3B8OZK0wUdtp7pEOa4WJ2k5zh85K1wrLdSjlLhzV8vxRTBjVwBA1UJOHTpvUCleg7oFSvupzsS6iZtT8obOStcLTUfSZbGFYlpzQBaW6EDlR+2mJ0GGtMFH7aI3QWalaYcM1j/JVw/o6W6m+Vn1bCDHdPsvTVhcnNfXF6tv0j1PX8Jp5XvV+k0a1wLqL0+trha2oD5a20U9FS/XA5uuDqx4P1U3LhI71tcJGKlcN61pD/T50dUB9W9gDt6ql0gShujgwmZUL6SKwT4u39evf2K4gkp5M8ViHZ6Cu8dUJIZaMwLsgTPfkKl0lUHSvEfoKG6vqg3WFiQCWdPXCasdDddVCoWNtrbCRqlXD4xlk4USn/Oby7emCLZdV37bDqQ82bZOo9n928TnHE0gvGt0mtmvKFtMYForhpAYEg+1kvqEeuDWPwXQUY2K/lNyyKb7Rpdcpr4NZWR9s9MtDO1o1oerxUF21VuhYWCtspHrVcBZ54c3ldtiQzQwIdbs++Hbb9GtG2oVkwzeYmr4a2ICu8lgqtLM5hKpegdthMyylkzrA7JAeJdf2FN/omtdkaX2wWJgoMeqEr8zE8VBdtVzoWFkrbKRy1bBc4rbbBx9CxcK5Yt2u34eujtp+CzcjVWWv34cupJEQX5OF9cFik6euP70GlY+H6qn1QseiWmEjZqqGi6OCsKdU8jaeQbbDDrfLDpt2amWpymfnyr0+qVYmX1pXmY5iKie90X17ugAxrK2uDxZHXmVGqxXrg2s6HqqHlgwdK2qFjZiqGpb3GewVW0OzyMu3mZoW1YumCjg0Gqy43pHaN4VshxcR8fX4o+g3WJiNZ7Jwe6Lw7YY6rBtcH2z0KfHUvilkXR7EPG7NcZqpDzZxPFRXrRk6sKBW2IhRva6ualjaJ1RvbuW2MqMp7TpRpU9M1yKXwJSjdKxBVxaJilOGOAYCCWTF45HP6ug+IDmeQdblhXdBG9YrUB+MODI5N9za/nSYqw82czxUP839V+a0ZMXT1iYWpZem9PEBXSARVdC6Ix1aWUs4NU0Ehg4tjQ9Rf62npokkDB2qiW9oQvrczUJCdQqcyCyu6RCRpTjSISJLMXSIyFIMHSKyFEOHiCzF0CEiSzF0iMhSDB0ishRDh4gsxdAhIks19yeS2WVO1Haae6TDLnOittPcocMu8yr0fVNEza7JQ2eVdJlrK2fqSVtap/liYJHVmj90VkOXeSOND5TaDUbSKKAglNipGxpqx5EW1a4lQodd5kTtozVCZxV3mUsXzao+HVJvp+/3rqhaj7d2ijYakh8jlegpRXXFY9PuT9sbXtzG4Ocg9JP7hib0x2L4uPL/JtR8WiZ0VmeXeQhBx5RqeoTuiG49ytYdQT/GSseUcyNoNniq9XiX6xWfjqIvMIz0YqmAUJqqhRAb9GK++DMaRnpB85woVdWoK46XchnUyv8m1HxaKHTauMu8LE2H93QKs4v68jjk1JcOje9NGI/kDFTt8TbdKy7zd8KJAvI55YYUonuN6mPENlSZ34eujjI1PWVU/TehptNaodOuXeYViVMHsRO8RF/gl0XeKJx0TPR419ArDijtnzZ4Bw2maRpSuV8pHKSQ1vZoVVb934SaTcuFzmrqMpfWacSpgzSdqbfKPd419IrL4nvlY3XIYVA2fOLLDGRJ5X8TajatFzqrpstcehMWZoZrP2VveppSS4+3mV5xkRxWk9pprFrVQHZ0qp/LZVeNYsz8m1BzacnQWR1d5lIg2BylqY5vqN9wemVTLS77EA17YasyVVRU7fGu1CtucIyVO8ClqaJqpDSeQBpdCPZ2AZoFZOXnHSw+fwgxcepn9t+Emkprhg7avctcOiUc36vuFe/HlOH0qjCTQN4vrPsgXaX7W2Cix7tSr7g0WpSOUQkTp/jz6UWV/vQUUgcAtwv6n810FGMzBeH5PciMpNWfwzL1b0LNpLn/ypyI2k7rjnSIqCUxdIjIUgwdIrIUQ4eILMXQISJLMXSIyFIMHSKyFEOHiCzF0CEiSzF0iMhSDB0ishRDh4gs1dx/8MlaYaK209wjHdYKE7Wd5g4d1grXn1DxAtT6Go0qdYhq0+Shs0pqhSsdD4QeKb7ZqQ00f+isglrhwmKh7PFAaUnQ3lgvNb1G+brHlSpoiKpoidBp91phG4CCq6fM6CqEYDeQzVV7VUStoTVCp91rhRemMFWsYtGQ+7gyRi2Z2vpeg+mXMn2TvgxaP828xuL90uspXVi99L3qeQzaNbX1yNrppPo49fcXt9G9RvGYDH62ZR5X7XiocVomdNq9Vjg+mQa6g5pQkGp2s9NRqcpXVK0OWH6zBR1pDCtdUCN59GjaFHT8UUwkg3AKXVLDM5VPA9q6I/BklONIIKtpZ/ANTUgXdC8eRxrO3tIb3Tc0oT7OSd2rBYx+vgAQDsLbkcWUcCH5aqodDzVWC4VOm9cKK3U4qioYH7qQRsJgvaVqHbA/ih5XAelxoRViOoq+Mm9oRajXC5umpji1b6ByPY/qZxJHQtWNJU0PtccxJYS+22EDFuZK948PGK8xaVtZTf2i0Kp+PNRYrRU6bV0rLIWG2y9M13q9gGHrqIk6YJfddPdVibRf4+Mrr2KXl78TTsg1w8KxBl2lTUo1NvqpkZoUaKVwqP6LQsfE8VBjtVzotHWtsFw8J3V7S4+vNG2oXAfcTLJI6I5TOAsmn0ELTM7LYVA+fFLPzcqtrOZ+URircjzUUK0XOm1dK5xCdHoe3t4QfEM9cGoaL0tM1gEr0z6Bb4dTfYOKyf3WYnoO80aL9kbGB+S+9jKL6lBPQ41/UdhgV41apNFbUS3HQw3RkqHT1rXC4xlkXT3o3z1fcZRTtQ54PIH0og3esHAmyR9Ff3flT/woUx2x+tc3FCs78qhOHlH2qs+cifsMjRqcVZNJZ5nE++VpqCdmMBKUn0uYouqrmKsfDzVWa4YO2qxWWCWOxAxgW6g0IjJTB5xC9LZhpOFFRLk/DIxVWUg2eo2R3fklTGFK4nsDSOTcCAprKBFHRgh58b4Iug4MqxaydcYzyLrcpZGkIL5XOnumvOZ+jCGR025T7XiokZr7r8yJqO207kiHiFoSQ4eILMXQISJLMXSIyFIMHSKyFEOHiCzF0CEiSzF0iMhSDB0ishRDh4gsxdAhIksxdIjIUgwdIrJUc/+VObvMidpOc4902GVO1HaaO3TYZW6Z0KhxX1VZmk70mh+/FBZXPlNjNHnotH+XOZQ3rHAVO8NSPKI20fyh09Zd5lI7ZRAJVSuB9vKaVojvDSBwm9AFVaPlPl7LNzShHzmNDwjNG9SqWiJ02rbLXK6kSWiqT+J7m7FGhqg+mvvslcp6fOLvr5FHNOfwxhMHcdi5DofWXobfl6uFCz+bxTf2makWLtUDq0Yx4RiSvUBC6Y4qVveKv12lxxZr7RbTGJZ/w4dG5VFLMUR8iO6PwLsg3hZCLNmD/EgfoohiYtCLee1xiIrHMAaEI6Vmg5y4T4lvaAIRoe0hq9uvfDxCO4Kyjf7YNa8T2dLPBfqflerx4Zi6+E8h/Ky0x1qYUS7Grj/G4uO0/z5QjkN4LuE5APHnNwX7YOn1lJ5Ppt2Pwc9X+5oVxZri21Lw7Y/APq3+uZfu1x6XUNRo9HxtqjVGOkB7dplPRzE2U4C7N6mqfNGzwTvYD4wrz5tA1qXuLa/ezx1CLCkHoLJNhWYI35AH+WJPutyeoJ3ulDM+oC6xm8xKoVV804UQdEyV7pfbJ6RjTSF6WwDDMwUpQALlp22+oQkke51Ii8e54EVEtyZmg3fQg4xwPLbu/tK6nT+KCdV+EvrueBi0wgLSa+m2ITttfIyGTPTQt7MWCp327DJP7esrvumSyfLhk50UR1txDEyKx1+9n9s31AP3YhrD4m/Tcp3h0PeXxzNZoMMujHxM8kcx0etGdlIcHcQxIB7HdAqzi4Bzh/FrNya/2VU/F7mCRhcMUD+/3AlWLPRz2WFTfhEA+uMrMvhlFfbAraobqq5qD32ba63Qadcuc6VWVwkf3YiigLx2cTmXR0EJMxP93G6HzaANszKp6E7en9F0qSofomEvbJqgloQQE7qu1IV4Jvg74TR8s0vBoA4wg5+faDyB9KLUg1Uu9BWlVlhJyONGoWwTqxETPfRtruVCp627zKej6AtIZXHBcqf0y6pnP7cUCKrpWoWpWDm+oX54oRldFcNMnKYOIy3+k1pOmtIFAgnMVxlxirXGyui4eoGiXuv00Ndf64VOW3eZQx4taX9T6/n2dMGmjMxM9HObOfYiecpQWoNZAn8U/dopH1Ac7RVmhg1GPzUo+5qlM5Dzh5dy5HEMBKT1pPI/K7kV1hMqOzrW/tu5HWKVcwP64ltMS4ZO23SZi93jinAQ3g5tANrgHRQWR+VO8tLIrHo/d2rflFS3Kx5rOGb8IUlx6gZIr7Gm4X8IsUHtuoVCetPZHKX96fvGgdTh+SprSHEkZgpw96o/yBkaDcK9mEailkAr93OA8afSU/umkHV5EPO4NQvI8ki3OyicOIipprkoridW6KFvc60ZOmifLnOnbm4PJHQfgCsgPZlHj7COBM0p3+r93HEMKGe9hOcynOpNRzE2A2GNyINMDdOr0Kh0alq3bqGc5durPo5+TOmnV8I6i36NS5La14dh1XHKp+2XMEITO+F1p7d14sjk3HDL02dRat9Y6biTSSQ9GelMnKhqD317a6HP6axShp8VImpdrTvSIaKWxNAhIksxdIjIUgydZjcdRZ9uYZmodTF0iMhSDB0islRThA5PlxOtHk0ROkS0ejB0iMhSDB0ishRDh4gsxdAhIksxdIjIUs0TOjabcNlPImpXTRI6uxH6ygP4h/8awm7tXVSGVNS3WhoEqH00SegcQPwbSeR2BPE3ywoe8WLf4pe1NcFLZnCVOpUVqDwmqrcmCR0AB/4BkXsmkNsRxL3Df7KM4DG46PXkvHR1uUaMCsKx+nWPy1Us5a6fq6o8Vi4mvqQLrxOtnOYJHZSCZ66zb9nBozI+gMBIGgXtdWmbjnxZU8P+I4srj4kapLlCB+rg+au/CdYveDTlc0XhmOF1fNXk9RNhu1hYqtKV+oqUa+KKIx7jx4hCo9LoKzQq3T8x5JMu+m3UcqArdZP2r61KUfalm1YajMikKhj1baFRYZ/an00jRoq06jRf6EAJnjje6Azhr/5KHwFLlV0oAI7OYqiYq6UtX8cb3ytU5qp6iwweI9f8akMCriA8GWkb6ULrBi2SxalV5fqaYp+4alopB4+2XFCugoHqNqG+xWzVLlGNmjN0BDbbdu1NS5Y6PC98Z66WttY6XpR7jNxbrutTMqhLWUrlMfxR9LiySKiOU6zP1TRfysV/WdVtQmum6apdoto0Z+jsDuKv/yqErnwC//k/T2jvXTLfDmfpG5O1tEup4y33mGIRn3jjwpxuO92opEypm4rLDltxmqd8qet6VYV7cvHfgNI+qhT4FQsCzVftEtWi+UJHDJy9cRzQ3r8M5cKg+Syt8hiL6VINsPCl9GNJodcFn1/aZzYTl9tHu+Dza3vWa6jaJapBc4VOAwNHalrMYkopNDNZS1tTHa+s3GOkKuC8qbWRWiuPkcsXA6Ws6RRmF22wu0o961LA2WB3uWE37Fk3U7VLZF7zhE4DA0c6y+REekQsqDdXS1u1jldXwVvmMXIVsLqGtoIaK4+VQPGG1WffQqPiorjcaNobLPWsyyHp7g3CLQZipapdomVoioZPYDtCX4/jU+eSuPeu+/GCpoXVvBBiSanSViWXKPshOt/QBCLdwl99GW6r3W8WieKZKvmskUt7u/YxBaQ1LZ3Fs02655Mox5adDBgsXPsQ3R9B1wGxXli6TVzHKWjqh6XGUC/mxX3Kt6mqisMx+eMAssV0lapdInOaJHQA2OywI4/8kgOHiFpB80yvCgwcotWgeUKHiFYFhg4RWYqhQ0SWYugQkaUYOkRkKYYOEVmKoUNElmLoEJGlGDpEZCmGDhFZiqFDRJZi6BCRpZondFgrTLQqNEnosFaYaLVoktCpV60wKV1ay8YKY2qQJgmdetUKl+kyr8ebcDnkjnLdcdWrjtisKkFiVL5HVG/NEzqoX62wrsu8zOVAG8E3NFGmJbSgKvULBAIYnnFaW/EynkEWSg+WltQGUZhJyBU0AwgE1JdXJaqH5godNLBWuAml9vUhMJmFrbu/7OijvqRqG8NWB78PXR0mWieIlqn5QgeNqxWWpjkTiIaV6Y4wldD2dmtHK8pj/eopXGmUInWLR7ptQIcXEaN9GFG1cJaU7SQHis9V/v4SacpUOs74ZNqwqkaqxxEK/Qy6z3XTxOK01ahXXfo5qW7zRzEh7FP9GvVd79SemjN0BPWsFZbY4PUDY0L3uLlOc/mxgx5kil3h4ihFKqcbnimUSu9MtSekMLcA2Byl5oWKneQAQqPqnvThGbEuWRCOIdINpEdKhXtKVY065OSpVaVCP38UE4NdmC3+jIaRdgTl4JGqbVQjqLAHbqhHVWLvl29oAkGHUA4o98NT+2vO0FlmrbC7t/JvUHX3lLlOc0V2UujOKjNKqVV2QbgifdVOch86HUBhofQmTe0b0K+9yBUy2tdlGBByr3mxiNBAqNcLzIwJ+0ohOl3qXNdWJoc8bhRyWdVtYsOq22FTVypX6Yen9tF8oVOH0j3tQrL6f+YC8jnhW5Od5hLNY+vE7RA+Flm1k1x6s9u6I/rpj8LRg4led5m+LHW9MJQRiFC+pycFnfScwnGJvViqxlQfOh0FzE4mpMLAMCA1p5bWjKQG02DFqSG1p+YKnToETuuR3tClDvHqneTSmaXS2a9y4aMOTIFqiqXtMC9PG+bSlzLyE/rX/T50YRapablR1BOSplvimtF0FH3FqWPldSlqL80TOisVOCY7zRvFN9QPL0o1xqY6yWWpfX0IBAymgQtT6BtJA92RMqfj5dHSbh988tRKP9ITSetObo9RtJXEM1nA0YnQni5AnkalnptFwdGJ0A6n8ZrR+IC0PlSHaSq1hiYJne0I/ccQuvJJ3HuXhYEDmO40Nyt1eB4Q1jHKU852zSMhLjhX7ST3ITpq4qzYdLRy8IxnkO3oQrC3C1A+m1NBPJMFXEH1+pg/ipi47/EMsh1eBLtROvU+PYf5Di+C3TZVgKs71mk1aZLQOYL4X/4JQsvqMV+61L4+DM9AHuZLX0EkTJ590hhPIL0or8moTpnbVPtPJqUe8tL0RJFC9LZhpCGfdpe/ehaEYHCI9wWBMms3mI6ib1Je/9Gdvo8jk7PB7RICopLxAQQms+pF+kE7MqrFZ2mKBXEapdymWzcT1620nezUzpqny5yIVoUmGekQ0WrB0CEiSzF0iMhSDB0ishRDh4gsxdAhIksxdIjIUgwdIrIUQ4eILMXQISJLMXSIyFIMHSKyFEOHiCzVPKHDLnOiVaFJQsfCLvNilYz2DlIqZrQXsieqpyYJnXp1mRvXCq/qNxGrhKnJNEno1KvLXKK6gLh8tbtVGzy1VAnLF0s3vAohUZ00T+igfl3mKuMDSCgtBasSq4SpuTRX6KAxXebZhQLg6NS86crVA8u0FbqaawyHRqVaXaUaV3q8Uq8bUtX+SqMs9fPpRl5Vng8oU31cbo1KqAU2XSVsuC/NlLV4XKwSpqVpvtBB/bvMdW2SFeuBJaFeO6aK3U7yhdKL3d0yVxCejKaTCoCtuwcYl24fninIFzPvQV6u5JVuU6+jVHs+ffXxMNIL2g4rYX8eN6AU6BluY6JKGCHE5Au/K9PVxIIXkf1R+IyaQlklTCY0Z+gIlttl7huaQNBVQHpS3blQrR44vldsaZDeYLrRUpmKmoJQv5vaN4Ws4W3qrqrKz2dUfZxCdG8UKbHDqvh4qU2z9JoNAsJElbBvqAfuXEK1xiOOmlglTEvRnKFTxy7zSPc8EgFtn7e5emBxKhDpNvgUkWr0VJmZ0r6yz1e2+lgmd1gVp0/aNs0lVQnLIeEKqqd0g97S56lYJUxL0HyhU4emT3X9rbZXygR5fSWIRHE/wzMNLORa9vNJHVbKSC3kcSM7rensWmKVcGFmWPhZKl9KiLNKmGrXXKFTh8CpB2kdIo3hvdXflPVQ9fnKVh+XxCfTwG4ffAjB4zIaFdVaJSwtwBue9RKwSphq1Tyh0ySBA6NqYH8U/UbTqzqp/nxG1ceaeuHpFGbRBd+QB+5y06Yaq4SlKZkX/dozVOKCOquEqUZNEjor2WVuYHwAiZxQexsGpmqa7tTIxPPpq48j6FoQRxEppA4A3m6nbtG8pMYqYaEPvbSu04O8av+sEqbaNE+tsM0OO/LIN/C93e58QxOI7J7F8FI62Iks0iQjHQAFBs7ymPncDdHKa57QoeUJB+Gt8rkbombA0Gl58p8p9DqRHlnCxwOILNY8azpEtCpwpENElmLoEJGlGDpEZCmGDhFZiqFDRJZi6BCRpRg6RGQphg4RWYqhQ0SWWplPJF+3FZ8JObEZAApH8dT31sB381ZcOH8I8S8cRwFSzXAgtguuNSfw7H9/G+8LXY7tAHDyGJ66Zx6vzGt3SkStYGVGOs/k8X/n12LjhRuwcetl2HP5cfzk+Dps3HUFbvx9aZNtf345ujZtwMkDCzj5e1fgygs3YOOF6/D2z44xcIha2MqEDs7jxfE3cBgAsAZbu7fh7PcO4wTW432fcuLKD2zB737MBpx5E88e2IIbXOulhxWO4On4GfWuVoMq1cBErWSFQgfAweP47vPyBXTWb8Unut/B0z87Cdi2o/euK7ED53H4mWNw9GyX2wfO4JUn5vFGxWvuSH9xbVzgJpXDGd9nvdBomUI9oHisSW3PFlEbWLnQAfDm1w/hFXngsvHqy+H66SG8cWYNNq5fCxx9A8/Cid+8VD7E+V/g6UdUD29p8UwWMGjdBEp1v8XLjo4PCA0MRK1tRUMHhQKemjqKswAAGz7asxY/eiYP4CRenDqNj15nVzbEvzwiLzC3i/EMsjBuQ9DV/RK1kZUNHQCnHjyC9NHz0jeXduK3Th7Bj5//BV75wOV4n7KU87M3kHpG9bD6MeoHF+9X+r3DYte43GqgeqxR00G5HnAUGx70FS8Glx0VesmLWw1NqI67OG006iM3WBPyDU0YTN+M+smhmbaGENPuX5kuavan7i3XP4ZWpxUPHeAMnn34ME4AANbiyp5LcOSZdfB9RK5gOXMUz37rpPohdaLvB5e7unUBYoPXD4wpHeKLcquBPy/3csu3qd50lXrAJdrWTaA0tarU1lC8ALtSfjeShrNXDgWD3vKQxw2oRlVysC1ou8QN6och1wuXqVAuJzSqLg+UCvYYPNQUoQPgmaNIHZQXd9Zvw6f+ohNbAQDncfiZX+LFOfXm1Yi1wqWvCLwd4lZG/eBAfG9C1zMOFJAeVxoWpNI6w9tcnmJYVesBB4wDQqr7naqwfhNCsBvCc0tVMVNK06YSHI5iwzg8rgKyOfE2N+xlgk0fhAYjr2r8UfS4skiI5YEGffG0OjVH6AB45dtv4A05d9atXyv9x1uH8d1vnlNtZ4a6Vlj5GkZ6UdiobD+41Nnk3FHtzTGPubLBYKIHHDAYWZio+/V3wgmb0H8lfQVdpU1Sh+dLAejvhHNxFonJWRSU27R1v6LpKKaEimJp5FXjBd9ddthUHVdGoU+rVdOEDg4u4ukZMRXO4JV/Poo3hVtaTeUecIlqZGGy7hfIIqHbbwABZWQxnimO1nxK3e90CrOL0m0hj7viyCWekeuHiyOvMo2hlSymS9M/4YvletQ8oQPgWPwQXpRPUZ197XU81chT5GX7wUPwuKCqw10KMz3ggHpkYeoNXva4RcpoLQTfbqXNUxpVOXeE0OkwnloVyfXDPn+5kZcNdmFkBfjQ6RC+zeX1a1VEsqYKHRRO4qkn3sQpLCL98Fs4pb2/roz6wYHQaLDmRVMjpnrAZdLIIojgblSoBFZIgeLu1Z7NiqleRzyTha07CC9K06jU4Xnptg711FD/QcU4EjNAV28QXdD+LOTn95e29w31q6dO8lqVN6w+E8guc0LThQ4APPImnpqcw7PPa++oP30/uHzGpR61vKZ6wGXjGWQ73HALAVFJfG9A3X2eTCLiyKgXn8czyALqaZR8G6qNpuTQhMstTc0098X3JpDt8CIiP3c/xpDIiVukEL1tGGmUtkkmk+hZSFR9Xmp/K/NX5kS0ajXfSIeI2hpDh4gsxdAhIksxdIjIUgwdIrIUQ4eILMXQISJLMXSIyFIMHSKyFEOHiCzF0CEiSzF0iMhSK/MHn6wVJlq1Vmakw1pholVrZUKHtcJEq9YKhc5K1AoTUTNYudBZ5bXCKgZlekTtakVDZ1XXChOtUisbOitSK6yp+i1Td6uuxI0hZDgaqbav6hW8odEkkr1uoNgTpX0O48pedQVw9edRlK0jJrLIioeOpbXC/igmkkE4xT6qyXl4B9VvvtBoEkGH0Ns0kkdPr9KOKTO5r2riewMITGaFLqsB3cXL4xl1eygAIByEt8YSvIp1xEQWaYLQqX+tcDmhXi9suYS68G18AIliJa9SiStWBsvNDpPq3m9T+6oXoTxPEfK4TbU6lFSrIyayRnOETp1rhY1JhXD64jh5JOHolDqaXHbYylXuFpncV93IHV3FcJD6yat3ZAlM1BETWaFpQqcda4XrKfWcyS7yiqrUERNZoHlCp+G1winMLRhPJUIeN7AwV5p2GFTi+nY4he9q2Fe1Cl6zqnaRV3keU3XERI3XVKHT6Frh+GQaBVdQPuMjC8cQFKcq4wmktZW4/ij6u+WFbZmpfZmp4IXc/Q0nOoWgk84yiWeyUohOZ+H2xOBxaReQzTyPuTpiokZbmT/4rGg93vdHF+CVfzytvcOEEGLJIDTnmYDFNIaVqmB/FBODXvlTzpCnHNozRj5E90dKb9rFNIan7Yj0Qr2tqX2pj6kwM4wpR0SqLxamNaFRZX1F2kd2aAKR7nnN/uR95dSPVd0nf1f9eWSG+yJqnCYMnSYVjiGpDR0iqllzTa+aWO2nqInICENHx4fofu26x4RmrYaIlorTKwO6dQ8UkB7pQ7TmU9REpMXQISJLcXpFRJZi6BCRpRg6RGSphoYO13OISKuhoUNEpMXQISJLMXSIyFIMHSKyFEOHiCxV308ks6OciKqo70iHHeVEVEV9Q4cd5URURZ1Dp1Ed5QJ/FBNJpWSOiFpN/UOnwR3loV4vsFiAbbevzjUvRGSFhoRO4zrKpb6n2fEpZDu8CLLZgKjlNCZ0GtVRXux70pbPlRT7u8Ox8h3j/igmkhOI+qU+8OJ2ur5wWXF7ze1iv3k4huR+oUECkC+Wrq3t1fSf6x5D1N4aFjr17yj3Ieov9T1J5XM9+iAAAFcQSU+mWCY3PAN4B7WhYYN3sB8YV0rnEsi6gsbBM53C7KINXXvEeJCPZyZRw3WTpcYGTJaK7hILXkQYPLSKNDB06txR7vehq6OA2efkvifDIJAtpjEs1Kqk9o0hbbBtdlK8BGkcA5NZQGnRVEkhdUCzjqQ9HhN8Qz1w5xIYGC/dFp9Mo2BQ7kfUrhobOnXsKPft6dJ0jBsEgULVsIliI6fNITZiFZDPCd/CuPROkdo3hawQDr49XbDlpmq6brLbYZNGYeL0StWbRdT+Gh469ekoDyHYbQM6vIgIb9iIfJs1C8pxZHLKaMkH324bshnzEytFYWZY3yUe4EXfafVofOjUo6M87IEbWSR0b9ZhpBeNO8XVQvC4UDUk9KMptXgmK42s/D50dWSREaZJAIAOu7pd1N8JsQE9u1BmZEa0ilgSOsvtKC9fdCf1e+vWYTQd46HRINzQhoQN3kGh30ruK1cWqpWzTKoPIY4nkEYXgr1dgHYBeTyDLNzoKW7vQzSsnjqlnptFocOLftUHG0OIGS1eE7Upa0IHAB55E09NzuHZ57V3VNdTaZSie7NL/dxTjkhxGhZ0GXWMF5CezKNHWFvBzDD69lVaGE4hdQBwu2CwgCwtRNu6leftB8YTyIqbTEfRN5IGitskkUz2IM8SP1pF6vtX5k0gNJpEEAkEhLNXOv4oJga7MMsCPSLLWTfSISJi6BCR1Rg6RGSptlvTIaLmxpEOEVmKoUNElmLoEJGlGDpEZCmGDhFZiqFDRJZi6BCRpRg6RGQphg4RWYqhQ0SWakjoeD57CWIjTtzzWfmayADs19lwz986ERtxIjbiQOQP11l3beA7+jDznT/FNz6hvaM+7v7qnZj5bzfidu0dRKTTkNCxX9EB19V2dF0h7X532InxO6+E9xo7XFfb4br6Uly/Z6P2YUS0CjTkDz6v/9IuRLovQmHm57j1PuCeh94Lb8c5zD2ZxZ1j57Dh6o24dudpPPF08amJaJVoyEjH2Bq854r1cNuA/MFTDByiVcqCkc4ZePsvx103dWADAJw7hbnnD+P+kZPImC8xx+13/ikGPra5+P1bz38bv/N3UpHN3V+9EzfvegOP3TqBL8v33/3VO3Hz1p8g9u+fxkN39GHmJqjuBz6Eh7/zSewqfn8C6a9/E3/2bPEGaS3opitL37/2FLq/+KKwgeTur96JmyHc94kb8b0//yg2KRu8JR+H8Bii1cqSkU567BDu/eYh5PJngbUb0dl9Ff56eBN2azcs60O4ZeuP0H3r30lfX/8J8LHP4OE7pHu//MVvI/3Wlbjhzm3SDXf0SSFU7o3+iRvxve98Eluf/3Zpn0+egPfP7yzuE5+4Ed+7aTPSX5fvv/UpvKbZjbEP4eE//yiOPak87ttIH9NuQ7R6WRI6AJB5fBEDdxzEHWNHUACAK7Yg8BHtVuW8iH8njjCezeDlt4Ct2+WQwZv4s2ffwKaP3YC78SE8fNOVeO1JcVSjdvenPopNrz1VHCkBAB6cwGOvAbuu+ZD0/VVbsQkncLg48tEcQzmf2I6tOIGFV5Ub3sSffbFM+BGtQnUNHbsDgGM9rt11IQDg7ZPnAQDX327D714tb3TkPN4GAJzHqXzxoSZ8CA9/507MfOdOzHznM/AW5y6yByfw2GtX4ubvfBK7XnsK/+5Bzf1F27BjK/DaS/oA+fJLbwBbt0unvh/8PtJvXYmbv3MnvqeMoMx49ml8/7XN8P75nZj5qhxgRFRUx9CxIfqtLjz+rffi2m0XAKfz+OHD5wBsRE/vldg70oXHH+/Cg9HLsB3vIj/zJh54XbsPY7ff+aeY+c4nAXHK8pZ2K+DVYye0Ny3Dm/izfy9Nq4597DOYqSF8vvxF+Ri3flIKSYYPUVH9QmfnWcy9lEfuYB65nx7C/ffOy6FyClOPHEJaue+leTzxzYPov++MNM0y4bfftxlvPf/tCqMXaQ3mcx87gcdufQqv7fpkaW1G500cPiZMowR3X3MlcOyIZir0Iv7drX+H2PMnsOl9nho+ACiH1pNvALuuwd3au4lWqfqFzuunMPyFeQwMzmPgS4t4IlO66wffWcS9yn1fyOP+x8+ZDhwAOHwM2LR1e/H72+/s1UyvpMVbPP99fBkv4tHnT2DXTX1l3+hffuIneGvXJ9Ujlzv6cPOuE0g/IU+77ugrG1zSyKvM/j9xIx42OSIiWo3qFzoN9OUvSqMXaT3nTnwOPxKmV9vwjf/2Sex66yd4QF4YfujvJqX1mHJ/mvDs0/gd+QyYsk/plLr6lPmum5Q1pDsx8L6c6dPeW3X7Lb+oTbTaNORzOqvN3V+9EzccK31uiIjKa4mRTnOTzoYRkTkMneW64wZ4N72B73OUQ2QKQ2eJpMXkOzFz02akv841GyKzuKZDRJbiSIeILMXQISJLMXSIyFIMHSKyFEOHiCzF0CEiSzF0iMhSDB0ishRDh4gsxdAhIksxdIjIUg0Jnbp3mfujmEhOIOrX3lGjcAzJZAwh7e0rLRxDsh6vj6gFNCR02GVOROU0JHTU1qPvBjs24BzmnnwFt356FncM5nD/4+/UdJ3ktjY+gECgD9Fp7R1E7ceC0FGwy5yILAmdM3jiuUWcxgWwe67CXz/kwje+dCE8phd0RCHEkkkk5a+JIZ92A4RGS/dXXScprvEsc7/KfsIx6f79UfiKtwuPGy2zmqRba/Ihur/C8xG1MAtCpx5d5gBgg3fQg0wggEAggMBkFrbuftWbMTSaRBAJ6f5AAIHJeXgHq71h3Qgmhf2OpIHuiCp4zO3XjaAnI91/WxQpfxQTvU6kR+THBBLIiptXEBqNwLtQer7hmXntJkQty5LQwbK7zCXZyQHElW/GE0gv2tC1Rw4HfxQ9riwSe4tb6LcxVEB6RNjvdBRjMwXYdvuk0Yrp/RaQnhS2cdlhwzzmius0cQyI+yjLh04HUFgoRVRq3wDXe6ht1DV0GttlXkA+p71N4LLDBjeC4nQmGYG3Q7uhlhgMktTheaDDDjdq2a9mP+MJpBelxxlN18pLITqdha070pyn94mWqY6h07guc9MW0xhWpkDCV9++lHbL2ixpvylEb5OmVfPdkbJrRYbGB+RplVMOO4YPtY/6hU4Du8xNyeVR6OiCr+L6jTkhjxvIZaQp17L3G8dAIIBhccpmUmpfn7wW5IYnrL2XqDXVL3Qa2GVuynQKs4s2eMPymSNZaLTaKMGNoHK2CdKZpKALyGbk9Zel7jccQ6xcUPijmEgmy9zvQ3RU/VxE7aR+obPiUojeNow0vIgI6y89C4nSIrGhLBLT9tJjet3ITgYwMK7cv9T9Au7e0vaR3bMYvi2KShOyIof4XEFAdTxErW11916FY0j2AomAcPZqJYRjSPrz5kOJqIW10Uindfl2OLU3EbUths6KCyHYbUN2mqMcWh0YOitFXkxOJoNwzgxzzYZWjdW9pkNEluNIh4gsxdAhIksxdIjIUgwdIrIUQ4eILMXQISJLMXSIyFIMHSKyFEOHiCzF0CEiSzUkdOpeK9wwctVLuWoYMypekIuItBoSOqwVJqJyGvIHn9d/aRci3RehMPNz3HofcM9D74W34xzmnszizrFz2HD1Rly78zRbPolWoYaMdIyxVpiILBnpnIG3/3LcdVMHNgDAuVOYe/4w7h85iYzZq7P7o5gY7MLs5Cy6er3yWlBWusxoOIZkr1veUL5NeKhvaAKR7tLqUWFmWKiO8SG6P4KuA8ptpe+nHBEEXfJmi+nylxJVjm2kTy7Ek/ZR6sUqIF28j4gsGenUrVbYD4wFAggEhotFdkl/Xu6kkm9TLQqHEHRMlbqq5Mrgaou+tu4IPBmhDrjDi36TnVWsBCaqzJLQQV1qhQtIjyujDakF0/A2l0eohtFU+U6nMLsIOHdUCZBcQriSXxwJ051VrAQmqqauodPYWmEj+kpgvRBiFeuA9cTQqA0rgYmqqWPoNEGtsIZvaKLYGyVNd4aRXtRuVWesBCaqqH6hs9K1wjo++HbbUFihi56zEpjIWP1CZ6VrhXVSmFsAbA7lzBbgG+o3Nb2qTJquTRguLLMSmKia+oVOE4rvTSDrCharffsx1fjpFSuBiSpqyOd0VhV/FBODdkytdDUxUYto65GOJVz2JvjDVaLWwdBZFh+ifjcKMwmOcohMYugsifLZH+nTx6U/qyCiarimQ0SW4kiHiCzF0CEiSzF0iMhSDB0ishRDh4gsxdAhIksxdIjIUgwdIrIUQ4eILMXQISJLNTB0dsL2m38A+2/eiI0bAGAzNn74D2D/zT+A7RLttkS0WjQudLbdiKtuuhm7b/Riw2kA+Dicn74Zu2+6HpvWaTe2mtRhbnz1PyJqpMaFzq5d2AQAR16XLk26bSc2bQBw+hAKb2o3JqLVos6hsxObb/kirrr9i3BfuwMAcHbTNdh5+xdx1R98XAohXI5tt38RV/m8mscuFUctRK2kzqFjw0Xua+B8/zXYdsl6AMC6LTvhfP81cDovljbZsBnb3n8NnDulUCKi1aUx19NZczPc0T/ANhzFwZH/hIXj18A5+EVctQWYfzSEV58/o31EVaHRZKlbHEB2MoCBXBQTg0q3uaQwI/eQI4GA2O6p6i2HpsNcon6O6h3k2p505JTnrNBn7tccc6WedKI2VN+RzoU7sG7LTqx7/y7pTfXO6ygcB7DmvbBtAYCjOPWrHVi35VLtIyvyDU0g6EjLneUBBCblBs7pKPrkAr3CzDACgQD69qUQz2jrhQH4fejqKGD2OeO3d2g0KQVV8Tnm4R2cQNSv3VISGk0i0j2PhLJ9IAGlF7R8n3kIsUEv5sXyvwVhp0SrQF1DZ6P/Lnx88D58/I/k3+QXe/GRfQ/it6J/gG0AgEux87P34eOD/disfXAFbocNWJgrjQbGByrXuownkF5Ul9z59nTBlpsyHrn4o+hxZZEQR0bjCaQXbejaY7BW5I+ix1VAekRsgFB60yv0mfs74UQB+VzxHkT3cpRDq0tdQ+fMi0/iwJOP4ZD82/tU9gc48ORjOPjyCemGN1/AgScfw4Env4t3VI+sLD6ZRsEVRDJZfuShlkLqQAFujzLWkdo+s5kyl0932WGDW64BNtF77rLDtjiLlFGAVeozn45iKmeDdzCJ5CjLhml1qmvonJ/7Z+R/fBBnN0jf538aR/7H/4RTZ6VF5MJrTyP/439C/sc/Qk2rOtNR9BWnPElT4ZN6bhYFZYrl96ELaSQqjY4Whemb8LWki65X6DOP75WnVQ65BJDhQ6tMXUMHAHDhNbB1AMBRvPU6AFwD22XSmay35l7QbFyj8QHpDVtu2iOajmIqJ02xfHu6gAOp8tOYXB6Fji74qgRZkcnty/eZpxC9TV6b0q49EbW5BoTOa1h48jEcePKfcOI4ABTw1o8fw4En/xGHX9ZubE5oVDNNUdF3livimSzcnih8u1F2ARkAMJ3C7KIN3rC6h1x83tBoEsn98v3FaZJ4XCHERkOV+8z9UcT4eSJa5RpzyrzOtKfLCzPqU93iaWj1fSHEkkG4i6eyFeLpc2Vb7Wlu9b5Co0npDJpwelt7XNnJAAbG9fuRbjc4XY4sEqwjplWmJUJn6aTQgfKmJ6IVV//pVTMJe+BGFhkGDlHTaOPQYc84UTNqy9DxDU2wZ5yoSbX5mg4RNZu2HOkQUfNi6BCRpRg6RGQphg4RWYqhQ0SWYugQkaUYOkRkKYYOEVmKoUNElmLoEJGlGhI6ns9egtiIE/d8dm3xNvt1Ntzzt07ERpyIjTgQ+cN1quqYlndDDwKP3oXryl9tjIgaFTr2KzrgutqOriuk3e8OOzF+55XwXmOH62o7XFdfiuv3bNQ+jIhWgYaEjtp69N1gxwacw9yTr+DWT8/ijsEc7n/8Hanj3JTt+OA/3IXA3du1dzSP708hectX8Ayvo0FUkQWho1iD91yxHm4bkD94Ck88XfzjdiJaRRpyaYvrv7QLke6LUJj5OW697wy8/Zfjrps6sAEAzp3C3POHcf/ISWRMDnUCj96lKuc78S8PIPnlIwCAzXf3I/DxLcX75h4TRhs39CDweTdeeyyLXTd/TN7H63jmlv2YC92G22/eKW8o36bsRHnc1/4X8LnP4cPK9Y5ffRIPfb5Mo0XxMWP41+9LN3V+7S5cd1VpE9WxEa1Slox00mOHcO83DyGXPwus3YjO7qvw18ObsFu7YRnJWx7AC4tS2Dx0y1fUgfP+LJK3fAUP3fIVPPS159Fxs3Yxdws+7AOeveUreOiWB/DC4k5c9+hduN23ID9Ovu1rHxYfJD3u8/8WeEDe9y1PYu6qm3C7bjtjm+/ux3Vbny8d22OvazchWpUsCR0AyDy+iIE7DuKOsSPSWs4VWxD4iHarWnwYH/448MIDU5D7Q4HvT+GFV4HOD4nBcFzY5gj+NfW68W1XfQCdwqMAYO6x0qgFeAHPPGa8nZEOxxbg2JHSscX3c5RDVO/QsTsAONbj2l0XAgDePnkeAHD97Tb87tXyRkfO420AwHmcyhcfWrsbtqMDW/Dhz9+F2x8tfYnTmfJO4EQxTMo5jl8VO8dluQWcwGZsvkFzu4G5R5/Hiatuwu2P9uODJrYnWi3qGDo2RL/Vhce/9V5cu+0C4HQeP3z4HICN6Om9EntHuvD44114MHoZtuNd5GfexAPLnnG8jmeU6Yv4VW7dxUry2ayHHjshByPDhwh1DZ2dZzH3Uh65g3nkfnoI9987L4fKKUw9cghp5b6X5vHENw+i/74zNZwyN/D9I1jETlxl4YfxNv+2G5sXs5irOkoSxPfL60ZbsOu3m/iUP5FF6hc6r5/C8BfmMTA4j4EvLeKJTOmuH3xnEfcq930hj/sfP1dj4BzBiWPAZodTuO0FvPoq0Hnzbao1ls1331anEcUWfPjzwr5v6MEnPr4FJ15+QV6n+TCue7T8Z4c6v6Y+LiKS1C90Gqy0RlJ6o899/it45lX5bJT8FXD8TFj8XY7jeOGxBXxY2ffnPwYIp+qrE4/rc9j1ci2PJWpfDfmcTssz+MxNVTf0IPB5B14QP+9DRDotM9Jpei6H6gOMRGSMoVMX2/FB306c+JfvcZRDVAVDZ1mkxeTbH/0cPnzsSa7ZEJnANR0ishRHOkRkKYYOEVmKoUNEllpS6HA9h4iWakmhQ0S0VAwdIrIUQ4eILMXQISJLMXSIyFJLC50L1sF25Qew3b5Bew8RUUVLCJ01uGjXb+HKTicuueY3cMW2i7QbEBGVVWPorMNFl2zC6UMvY/E0AGzApqu9uNxh4YjHH8VEMolYWHuHWmg0ieT+KHzaO4hoRdUQOutgc3VjZ5cXrs4zmH/+B/j57C9wFhvQ8f7fsDZ4iKhlmfwrcylwOi+7CBcAAA5j7oezePvdTbj0492Q8uY0Fl/+Pzi0cFr74AbzIbo/gq4Dw+jbl9LeSURNxsRIZx0u2vVvhMABgB1wbN+AjR1r8Kuf/hR5earFEQ8RVVN1pLPe6YXbvVkIHMmvcz/E0Yt/E9tOzuDVQwWstXfBfc0OrMVp5P/1f2P+hFS0Vyvf0AQi3Tb5uwLSk7Po6u3C7EgfotPyms6g/D2imBj0QtkaAAoz0ognNJpEEAkE9pZqNc3vewr2wSDcmn2K1PsCkFM/F8IxJHuBxCQQ7HUDi2kM3xZFyuCx2ckABsZLDyVqZ1VHOmvWr9MFTskaXLjtUmy8ADh3fmkhI5LejPNIBAIIBAIIBKZg71WHisp0FH2BYaQXpWAIBAK6cFCY37cN3kEPMsp2k1nYuvsR9Ze2CI0mNfsaRtoRNFi4diPoyUjbiIGzexbDymNH0nD2Vl8YJ2oXVUPn1C/SmJuvsE5zsRuua38HXR+8AmvldZ2ljXJCCHbbkJ0cQGm8EMfASLrGjiwjte1btd14AulFG7r2yHHij6LHVUB6RNxXCtHxNAodXfAJ4SSNpsQC8xCC3UB6XAogQArOqRzg9ljYGki0gqqGDt49i7dzP1IHz/l5HDv6axTmZoU37TIXkv2dcCKLTCOmGTXtu4C8tsNc5LLDtjiL1LTm9ukUZhdtsLvEG+cxJ27n74QTNngHk0gmS19B1WOI2lv10IFB8Ky5COs3rMO6i21YByw/cFaVrDAtE77E9SCiNmYudKANns3Y/tHrcfUHrsTGugaOGx7t2obLbrDushR12ncubzCNAuD3oaujyihpeg7zRsdBtIqYDx0owfN/8Is3lYBZXuD4hiaQTMYQgrC20St/DwAIIdarnEMqJ4W5BcDmqLDdkvdtYDqKqZwN3kFxXz5Ew17YclPSWbCy4sjojgPwDcVUC9VE7ay20AGAd0/jrZ//CG/MHcPxZQSOkfjeABI5N4LF9Q4PMmUWe0XxyTQKriCSySQmhoz/8GGp+zai35f04UQzUyT9Y5OIODJVwoqofVT9nM6KEz+XU+83ZiP3TUSGah/pWMy3p8v4bFEdNHLfRGSsqUInNDqhXtsIxxDptiE7LXyuZYkauW8iMq+pplfaPw9AHf9EoJH7JiLzmip0iKj9NdX0iojaH0OHiCzF0CEiSzF0iMhSDB0ishRDh4gsxdAhIksxdIjIUgwdIrIUQ4eILFV76GxYj6+51xa//ePdNvyX96i2MM9kRbAp4VjpgmB150N0f/lr9TSEP4qJpOaPVInaQE2hs+M9F+LR398GzybhxgsvxA3/9hJ8wy7cRkRUhunQ2WG/CA98eit2nF7EUy+dK97+P146gRdPXIiP37wV37hE9ZDqpqPoC7TRX3o3dLRF1B5Mhc77L7kY/+PmS7D17TzGJt/CfxGvUHr6LD73+BH87yPr8PFPX4r/cUX5aj4iIhOhswH3fXoLNr66gC898Q4eKA1ySs6fw+enjuJ//hx4/+9swt3a+8vRrlsUvw8hJlxD2GgtJTQqdkeVGV3Ia0bF7UaFy7KP6h8XGk0atHSqqZ5X2DY0mkSy1y21eorHpLymsHgs8n3hWPXXQNRmTISO1czV+gYdaaGaN48ebbND8frHmupfOXjie4eRXnSjRwm0cAxBVxYJuf7XiK07Ak9G2V8C2Q4v+uXHx/dKx1rqtRIbQG3w+oEx5TgW5WDy5+XXIN8mhCJRuzIROqfxpceP49RVDtz3qYvxudKJq5I1a/G1nkvxh+8FXv7eW/iy9v4amar11VTz9k1mle8AAKFeLzAzJlxwPYXodBZweeQRhfS9rTuIkFxHo64dNpBLCOtPcSRmCrDt9lUcGUnE45WPw+i24rERtS8ToQO8/Kt38MeP/QrH3mNHf+8m/OUG4c4N6/DAp7fjt7efxb88fhR//IvihQiXqEphXblaXxUfOh3SyKQ0fVGmP4LxAbkOJgi3KlCMFRbUwbY8mspholXCVOgAwOH8r/G5x4/h8IYOfPIa4XM612zGhzafxL88dgx/9ivVQ1ZcdtKgvlc17QGyC0tpviKipTIdOgBw+O2TuOWRN5F5S7jx5El8/3/9Cn+WF25rNINaX98Op/Cd1Prp9lSZrPij6O+eRyKQQNYVrM+HFImooppCBwBw+gw+nxU+p3OggL98W7VFY8lrPN6wcJbJH0W/pukhnskC2iDxRxErngkLITboBWYSiMvrM2Ldr5kzWTq5PApwopOfIiYqq/bQWXEpRG8bRhpeRJS1mjAwpllIxvgAApNZuHuFNZ1BOzL7UvKfNQThXkxjbJ+8lLtvTDqDVGvQiIo95zwFTlQOK2iIyFItONIholbG0CEiSzF0iMhSDB0ishRDh4gsxdAhIksxdIjIUgwdIrIUQ4eILMXQISJLMXSIyFIMHSKyFEOHiCxlOnRsno34j/c5EYva4FHdsxafizoRu68Dn1LfQUSkYy50dtrwN/e40PORLXB1roe6RfgCXLJzC1wfuRz/zz1OfG6n6k4iIhVzofOBjdi+AcDrv8CtoeP4oerOsxj+7EFM/RLAhovh/oDqziawAj3kNWvEMda4z3AMSXankwXMhc6v5et8nXsXxpcxP4fCrwHgPE7/WnsfEVGJudBRXLQGndrbAAAXwHaR9jZqKeMDCAT6hJ4wosYwFzpr5X7ytRfArr0PALAGG9cCwAWAURkfEZGs+jWSb7LjwT/dDvvas8g9+ioGxo3KzIHdYSf++hY7Npz7NdLffA33PqndwkCx+ncMCEfg7ZBvzyUQ2Cu2U4UQSwZRqsrLIqHpr9JvU0B6pA/RaR+i+yPoOjCMPvki7KHRJIIuqRdLKtjTPtZg//4oJga9UDonCjMJzO4OqvYLYd/yVvIxFO8uQ3+MAOAbmkBEbLnQ/VxgcOy1vG5BOIZkL4TXLT2++G+iey3lnlf5vvT8U45I6WeymMZwhepman/VRzqOddIb7dxZvP32ee29RYW3z6Jw7l2gcKbMuk85NngH+4FxoSPcVeocBwDfkAf5Yid5QGrlFFsb/FFMJINwzgwXtxmemS8+XuQbmpA6ywOlN56p/Q96MS+U9005gsIbUhIaTSKIRKnYb3Ie3sGlLc6GRpOIdM/LveiBUhe79riW8borCY1G4F0ovRbVfg2eV3qtSV13WKX+d1qdqofOg0fx+184jCNrL4LH/56yazq9/kthX3sK6W8dwrCZUY4gOyn+hoxjYFLd653aN6AaLcQzWaDDXvwtG+r1wpZLqEYJ2segOHIA0iPqUYx223L7F9+s8b3DSC+Wvpc61rNIiCMRbQ+7WUpfu+o4U4iOp1EQigaX+7rLk2qZxRplcb9GzytVNBsUHC65/53aVfXQAYCXz0mjl7JrOop3AePZVwUG3eUGpXW+oYkyneTSGySbqfJ22t0vv/GMpzvL3r/LDhvcCIrd6UlxeqJ5jmRSNZpTKdfXPp3C7KINdhfMH1eV120sheh0Vu6C1/Z3lX/eeCYLODpVgVLf/ndqB+ZC54YN2A4Ab59DRnsfAOBd+ZR5I4QQSyYR2T2L4eJQvvb/kW0AClDesKL67B+Q1yuK06HSlzIiSO3rU9+nW5+pv/Kvu4rxAXla5ZSDVBs+REtjLnQUay8oLqRqbVgLAGuwoQ6nzn17ukq/6cMeuJFFouzio7ne8sKBMfTJjZ+qdYeq+5fo9++GXVzTyeVVU59lKbcvvw9dHcrIcJmv2yQpKBPIwg1PGBWfN+RxAwtzFX+OROZCZ+Yk5k4D2HkFHvzmFlyrunMdIt+8Gp/aCeB0AS/8QHWnCTZ4B4XfonIveeFASvqfVzfVCiGmmv4A8ck0Cq6g6tO3vqGYfgFXqBouvgGr7l+aamh70UOj4pmb0tRH1bEOIDS6hBFCsZ5YfKwP0bAXttxUcZq0rNftj2IiWS6IfIiOlq9XNnpehGMIugpITzZ+9EatzVzoFH6N6PAbSL90HL84fAZvq+58F786/BYyz7yG0YEjeLi2U1fSqdbJPHqKfeNeYEY4dTwdxdgM5H7wJJJJDzLa6c90FH0jaaA7UlwviezO69dEIL0Bh2cKUsf5aMjc/g160T0ZzUKyUcd6MomehYTJxVu1+F75LJqwPtR1YFg9JVvO667GIb6OICCeZjd4Xul0ey3rRrRaVf+cTiMVP6fTiv+z6j8H09LCMST9eX6GhhrO3EiH9OT1ldnn2uMt6tvh1N5E1BAMHTPCMc1fa4cQG1Svr7S2EILdNmSnOcqhxmPomJHLq9cvkkG4Df8kocXIi8lJ+dPFZj6pTLRcK7umQ0SrDkc6RGQphg4RWYqhQ0SWYugQkaUYOkRkKYYOEVmKoUNElmLoEJGlTIcOa4WJqB7MhQ5rhYmoTsyFDmuFG0A6LlPXtiFqI+ZCh7XCRFQn5kJHwVrhOkoheps1F2cnaibmQoe1wkRUJ9UvbcFaYUnda4X1xyVV+wqXe1f9HLQ1v/p6YKVhdHihR6gjNngtRCuo+kiHtcLW1Ar7o5jodSJdPI4ESpeHDyGWVNf8BkbScPYaLJC7gujHmLzdMNKLbgS5WE1NpHrosFbYmlphlx02zGNO/DnI+/IN9cC9mMawpglizKiidzGNseLPQanPKf0siVZa9dABa4VN7d9ErXBF4wlpVJLUj17cDqEHTJB6bhYFIRwBsOyOmp650GGtsDlVaoUrk89mBRKYl6/HrA0fonZgLnQUrBUWb2lQrXAcA4EAhoWpU3bBYBpV/DnlhbUfouZnLnRYK1yXWuHQaBJJcYFaFI6VqfgFUvumkO3wIiIuCMs/J9bGUKsxFzqsFbakVljcf2T3rNC2GceAclav+HPqwuyI+pQ5USuo/jmdRlrVtcLS4+3TDA5aXcyNdEhv2bXCmjUholWCoWNGA2qFlc/eJDjKoVWGoWNGHWuFQ6Pymk33fNUzZkTtaGXXdIho1eFIh4gsxdAhIksxdIjIUgwdIrIUQ4eILMXQISJLMXSIyFIMHSKyVO0fDtxwKTbu9OLirdKVdc4fewlvvf4Szp/WbkhEpGc+dDZcA/sf9uO9V28GTh/F8deP4ixs2HjZDmx+D1A4+M84+D//CacYPkRUgbnQ6QzhmtD1uPiXP8LL//PbeOtX76jv3+KF41NhuHceR/YfvoSFuTPq+4mIZNXXdN5zM676k+ux5oU4fvr/jkmBs+a9sN/yRVze/V5pm+NpLDz0H/HTHwO7/uQubH6PdidkqXAMyaRwNUaiJlJlpLMZmz8zgt2bfoD/+/cPQhm/rLn2PvzGJ3cCOIqDI/8JC8eV7ddjU9/92H3ho3j+24+hfEuWQltyJymIVw6EvuhOodsOpW1VVx8USDU02j1pi+1kyvMupoWr+OlJBXvqYj3j56lUvldH4RiSvWDJHjWlyiOdLbfgMvcZzD1RChwAOP/6azhxHji/8BLeKgYOAJzBW4/+M45fdT0cDvH2yrJCiV1AvuyovgmhIBTRlW9ZCPV6gUXjC5kX6VobhpF2BJFMGhXjFVBApQuuh+DRNUzIdM9jQeAQNbnKofO+q2F/5yXkX9XcfiiOl6J34P/8/T/ilHYPJ7+LY4cuxebdmzV3mKSUyDm04x8zQvC4Cpgdly5kHixzoXM9qf4lkdNfWF1ig7fXeLLiG+qBO5dlIwORSdrIUNno2AIcO4pT4o1X3YGr/sP9+I19D+K3on8L52XinQBwAr9eeAcbOy7X3mGa26GdlpgU9sC9OIvUdByJmYJBbUxl8cm0YY3M7HQaBcOWTB98u23IZozbwMzzIbo/iYmhEKL7Sxdnl9ohpF4u9W1qyoXBpC+u5VBzqxg6hl59EK8mX6jYV75uw3rtTeaFY9L6yGStqxE+RP3uYnVN6rlZFFw9BtOlCqbnMG9UyJeLYirnRo92yhcOwov6XXLU1t1T7HQvNlYke4o969Jt6lAJjSYRdAjTuJE8ejQVPUTNpGLonFo4Dmy9FBu1d1S0ExsvXY+zJyvFkppYvZL0ZMqsfdiEmpikfv1Fe6F0uYfKVI94URZ5Va1MSTyT1a0ThTzuyr1THeo6mrKdV7LCzFjxdaf2TSFreJsbHmW044+ix1VAelw4huko+rQVOkRNpGLo4JWDyF98DexXae+owHEjtm07geMvv669p6ziQvKkvtSuRLuQrA4mVSsoACCF1IEqC8o6FRoaxhNIQ1gn8kfR48oiU2mUo11IrnAGrJz5wxUe4bJrXjNR86scOscfxS+z69F54x9hnfY+2RrVHi7F5k9di01zP8TCIfF2k5QiPH/lEYFeCMFum25kEZFvM72g7O+EE+WCRGr6VNaJfHu6gBnzRXpEJKkcOjiBE488ijcv/T3sDnilm7b8Hnb4NqPw8kuYf/kQNl63F5u3AMDFuCgwhN1XvYPXn/xHnNXsySylQrdfu35SidJHrjo9LZ8KXzTqITfiQzTsrRwk4wmkHT2I+kMIds9jyuCUveUMFr59O5zqG4iaSJXQAfD2Y3j1H34EePfi3/yHftjwNA4/9FW8WvwaxQlcD+d/GIHHC/ziH/dhfimjnKI4BiazsHX3m14EDnncQC5jEBZKD7nRmSeBP4qJZATehYThZ39KUkgdALrCPXBWCicTKvaamzWeQFrbny53nBM1q+qhAwBzY/jXr8VxGB/GBwfj+PhffhXu27+Iq26/D7v/Mo7fGAxhp+01vPKNQRx6+aj20bUzejPpFpLlN60/ih4XkM2UiYDxDLLQnHnSLvDKveC6TyQbSO2bwnwHzDV7ap8nmTT40ONyGPSnh4ExLiRTE6vyZxAG3uPFpg9egw73DmwAcPrICzj+0x+isHBCuyURkU7toUNEtAzmpldERHXC0CEiSzF0iMhSDB0ishRDh4gsxdAhIksxdIjIUgwdIrIUQ4eILMXQISJLMXSIyFIMHSKyFEOHiCxVU+h4PnsJYiNO3PPZtcXb7NfZcM/fOhEbcSI24kDkD9fpmjjrLhxTX5h9mTW6dbmgFpSLgRkV9q0EqdYmmUwiORqSj824wsa0euyDVr2aQsd+RQdcV9vRdYX0sN1hJ8bvvBLea+xwXW2H6+pLcf2e2rojqDFCo9KVEAMBcxcnI7JKTaGjth59N9ixAecw9+QruPXTs7hjMIf7H3+nYieWmlIyV+MYY3xA1waxHPG9S2tqaF4+dDqAwoJwBcHpKPoCAQwYXnTepHrsg1a9ZYSOYg3ec8V6uG1A/uApPPF08ZpgREQ6NV058Pov7UKk+yIUZn6OW+87A2//5bjrpg5sAIBzpzD3/GHcP3ISGZNDnYlkUrX+U5gZli+MHkIsGUSppzKLRGCgdCH0cAzJXpRuE7/X3gfANzSBSPe86rbQaBI9C9LzhUaTCCIhT0N8iO6PoOvAMKYcEQSVts/FNIY1oyFpv8orKCA9OYuu3i7MjlQYhYVjSIoNnKr9Ss/tFbq3spOakYXy+kby6Bn0Fn9+xe38UUwItxfvy0UxMag5Ns22hZkEZncH0XVA+XfQ8Ov3ERpNln5GRsdLpLGskU567BDu/eYh5PJngbUb0dl9Ff56eBN2azcso0+uiCnMDCMQCBT/R/cNeYpVuoFAAImcG0GzC73yhdiLLZhy3zhUt4XgcVUusrN1R+DJKMeQ0NXilIJM2WYK9l71m13LNzSBZK9TKA0cRnpBuTeEmNxIUazQGUnD2Ws0/XQjGAbG5O1UdcPTUd3P1TAE5MCZV4oOAwFMOYKqwKvGNzShrjTmBeHJhGWFDgBkHl/EwB0HccfYEWkt54otCHxEu1VtUvsGVCOFeCYLdNiFkU8lcWRygHOH/Eb1+9DVkUVWdVulUj1ZLiG8WeNIzIhtoVK5X3ZSGH0hjoGRdIX1LOUx4igoheheaZTjG+qBezGNYXHRdzqKMdXzKtRVwrq6YRNCvV7YVK8RiO+Vwsost8MGLMyVRn/jA8YBRyQwFTp2BwDHely760IAwNsnzwMArr/dht+9Wt7oyHm8DQA4j1P54kOXzDc0UapuEacjJmQXhDeqyw5bLoMBoYvct6cLNsOerBLVIqyWmdDSqvIYt8OGwoGUbjE79dwsCrrAncdcuembKdJCc9naHpPik2kUXEF9rzxRBSZCx4bot7rw+Lfei2u3XQCczuOHD58DsBE9vVdi70gXHn+8Cw9GL8N2vIv8zJt4wHyNuYEQYskkIrtnlzxsl96oUvNlyOOW3lzjGWQ7uuDzS9Ot5b7hqHQ2KzA5L3eSMXyouuqhs/Ms5l7KI3cwj9xPD+H+e+flUDmFqUcOIa3c99I8nvjmQfTfd6bCFMMEpSJ4Oaewp1OYXbTB7grB41JGF3FkcjbYXW7YO8qPOMwzmM647OXXdKbnMG/0GJlqdCbw7emCbTGP2mLXHH3dshv2GtZ0isYH5ApnG7r2aF8BkVr10Hn9FIa/MI+BwXkMfGkRT2RKd/3gO4u4V7nvC3nc//i5GgMnhbkFwOYQJg+5PApworP4GzOEWI3TK6n+twB3bxBuYRqVXZBvW+6beDqKqRxKi7eA4XFKU0RlG2ldyN0rjgZ8iI5KC+RKh3tkVAgCuSI4O72MADak1C0HVZ8uDo2KZwxRHHXqF7IlodGlfwqcVq/qodNgpXUB+X/u6SjGZiBUCHuQqXF6BWWKBfW6hXKb0dpJreJ75bNqxcpgDzIVF5KB1L4+DKteWwRdC8qxxDEQSCAr/yzEuuOGLM6ODyAwmYW7t1R57MnUtpAMiK9f+piB4al2IkFNn9Ohdlf6jJJhePijmBi0Y0r8zBRRjVZ8pENNxO9DV0cBs88ZBA6qrFkRmcTQWa3CMc1aTQixQS9suakyn6b2Iep3ozCT4CiHloXTq9XK4M8lkFP+FEQk/EmK4f1EtWHoEJGlOL0iIksxdIjIUgwdIrIUQ4eILMXQISJLMXSIyFIMHSKyFEOHiCxVl9CxXbEW195yIX53p/YeIiK12j+RbLsA1954MT7muRhdu96D7Vs3YsPaCwAs4om/OIT7l3XVQCJqd7WPdLq3YG/4SvR0O9C57UI5cAD8chFPMHCIqIraQ0cJGY0jB9/BnPbG5dJ2lrciuf87KXeA16M3vR77IFoptYfOrg0G11Q5ibkD5+HZsxHXv19732omXS5C6ZZqyBUAiVpM7Ws6YScev8WuvVVyOo/EoHLh9kaQLrOAVmmRNGjEJFrtah7pdF64VntTUX5moYGBQ0TtoOaRjtJnrnP6V3j4jiP4h0pXJteYSE7oRwHlesm1HeCa3mx1p3YBae1+NdQ95NoLVGm71LX7q953rtu/3McOVW+6pNZOdHX3usEFuQx614maRc0jnfTThzD6hQO48/9T1wbkZ47VFDgAMKvrSapwSczxAalTXA4bcY2k+CYslvPNwztYfgE6NJrU9JBL+wWUhd8gnHIPeGl/0kKwqFLfeWpfHwIjaRRQkLvLjS9mvpROdDX1upG6H52o+dQcOoUfncF3X3oXnl3C2+L0r/Ddvz8rbmZK6oCmYK7ahcGN+KPocWWREC+jOZ4oX/zmj6LHVUB6RNNDLj9e6fhWtSGMDyCRMyinq9h3bsZSOtE1/J1wooB8Trmh1I9O1IxqDh3JOlx54a8x9+YpYImjHBQL5qT6XxQ7xstdGLwMlx02Vf+S1MHkLddU6bLDtjiLlOFzlO/4jmeygKNTFSgV+87NqNJvbsp0FFM5m9SlJRb1ETWpJYbOWQz/xRy+8pNTSx7lSKSqX2lEsoyO8cV0qfdc+DLsbmpD8b3ytMohF/UxfKiJLTF0JL+1y7bkUY4inslKUxK/D11L6RjP5VEQRktVVdxeqjnWTaMAhDxuYGGuAdMWg37zJfVLpRC9LYDAZBZweVj3S01rGaGzDm77iWWMcmTjCaTRhWBvF2C0gKySRX4RcO4QJjnTKcwu2uANqz+hK/Zsqz7BW5yOaHrI5dGBUnOs6oQKxxB0FZCerHx0NVtSJ7qGP4pYma5xoma0jNBZjzM/W94oR5JC6gDgdsHEAnIK0eksbN2R4p8VSL/hh5GGFxFhXadnoXyA6XvIg4AyrZuOom8kDcjPkUwm5dP2xqevl0t/LNU70bWcumM1PlNG1Axq/pwOWaDKJ5lDo0n0LJTpGydqcssY6VCj+PZ0VT3DRtSqGDorLDSq+RBjOIZItw3Z6TKftQkH4e3IYoqjHGpRnF6tMP2fS6j/vENR2k77JxlErYWhQ0SW4vSKiCzF0CEiS/3/nzlLa5tzRcAAAAAASUVORK5CYII=;" vertex="1" parent="1">
          <mxGeometry x="810" y="200" width="331.1" height="790" as="geometry" />
        </mxCell>
      </root>
    </mxGraphModel>
  </diagram>
</mxfile>
